G04 #@! TF.GenerationSoftware,KiCad,Pcbnew,5.0.0-fee4fd1~66~ubuntu16.04.1*
G04 #@! TF.CreationDate,2018-10-06T10:53:01+08:00*
G04 #@! TF.ProjectId,base-board,626173652D626F6172642E6B69636164,rev?*
G04 #@! TF.SameCoordinates,Original*
G04 #@! TF.FileFunction,Copper,L2,Bot,Signal*
G04 #@! TF.FilePolarity,Positive*
%FSLAX46Y46*%
G04 Gerber Fmt 4.6, Leading zero omitted, Abs format (unit mm)*
G04 Created by KiCad (PCBNEW 5.0.0-fee4fd1~66~ubuntu16.04.1) date Sat Oct  6 10:53:01 2018*
%MOMM*%
%LPD*%
G01*
G04 APERTURE LIST*
G04 #@! TA.AperFunction,Conductor*
%ADD10C,0.150000*%
G04 #@! TD*
G04 #@! TA.AperFunction,ComponentPad*
%ADD11C,3.500000*%
G04 #@! TD*
G04 #@! TA.AperFunction,ComponentPad*
%ADD12C,3.000000*%
G04 #@! TD*
G04 #@! TA.AperFunction,ComponentPad*
%ADD13R,3.500000X3.500000*%
G04 #@! TD*
G04 #@! TA.AperFunction,NonConductor*
%ADD14C,0.254000*%
G04 #@! TD*
G04 APERTURE END LIST*
D10*
G04 #@! TO.N,N/C*
G04 #@! TO.C,J1*
G36*
X150812765Y-115205213D02*
X150897704Y-115217813D01*
X150980999Y-115238677D01*
X151061848Y-115267605D01*
X151139472Y-115304319D01*
X151213124Y-115348464D01*
X151282094Y-115399616D01*
X151345718Y-115457282D01*
X151403384Y-115520906D01*
X151454536Y-115589876D01*
X151498681Y-115663528D01*
X151535395Y-115741152D01*
X151564323Y-115822001D01*
X151585187Y-115905296D01*
X151597787Y-115990235D01*
X151602000Y-116076000D01*
X151602000Y-117826000D01*
X151597787Y-117911765D01*
X151585187Y-117996704D01*
X151564323Y-118079999D01*
X151535395Y-118160848D01*
X151498681Y-118238472D01*
X151454536Y-118312124D01*
X151403384Y-118381094D01*
X151345718Y-118444718D01*
X151282094Y-118502384D01*
X151213124Y-118553536D01*
X151139472Y-118597681D01*
X151061848Y-118634395D01*
X150980999Y-118663323D01*
X150897704Y-118684187D01*
X150812765Y-118696787D01*
X150727000Y-118701000D01*
X148977000Y-118701000D01*
X148891235Y-118696787D01*
X148806296Y-118684187D01*
X148723001Y-118663323D01*
X148642152Y-118634395D01*
X148564528Y-118597681D01*
X148490876Y-118553536D01*
X148421906Y-118502384D01*
X148358282Y-118444718D01*
X148300616Y-118381094D01*
X148249464Y-118312124D01*
X148205319Y-118238472D01*
X148168605Y-118160848D01*
X148139677Y-118079999D01*
X148118813Y-117996704D01*
X148106213Y-117911765D01*
X148102000Y-117826000D01*
X148102000Y-116076000D01*
X148106213Y-115990235D01*
X148118813Y-115905296D01*
X148139677Y-115822001D01*
X148168605Y-115741152D01*
X148205319Y-115663528D01*
X148249464Y-115589876D01*
X148300616Y-115520906D01*
X148358282Y-115457282D01*
X148421906Y-115399616D01*
X148490876Y-115348464D01*
X148564528Y-115304319D01*
X148642152Y-115267605D01*
X148723001Y-115238677D01*
X148806296Y-115217813D01*
X148891235Y-115205213D01*
X148977000Y-115201000D01*
X150727000Y-115201000D01*
X150812765Y-115205213D01*
X150812765Y-115205213D01*
G37*
D11*
G04 #@! TD*
G04 #@! TO.P,J1,3*
G04 #@! TO.N,N/C*
X149852000Y-116951000D03*
D10*
G04 #@! TO.N,-*
G04 #@! TO.C,J1*
G36*
X146225513Y-118454611D02*
X146298318Y-118465411D01*
X146369714Y-118483295D01*
X146439013Y-118508090D01*
X146505548Y-118539559D01*
X146568678Y-118577398D01*
X146627795Y-118621242D01*
X146682330Y-118670670D01*
X146731758Y-118725205D01*
X146775602Y-118784322D01*
X146813441Y-118847452D01*
X146844910Y-118913987D01*
X146869705Y-118983286D01*
X146887589Y-119054682D01*
X146898389Y-119127487D01*
X146902000Y-119201000D01*
X146902000Y-120701000D01*
X146898389Y-120774513D01*
X146887589Y-120847318D01*
X146869705Y-120918714D01*
X146844910Y-120988013D01*
X146813441Y-121054548D01*
X146775602Y-121117678D01*
X146731758Y-121176795D01*
X146682330Y-121231330D01*
X146627795Y-121280758D01*
X146568678Y-121324602D01*
X146505548Y-121362441D01*
X146439013Y-121393910D01*
X146369714Y-121418705D01*
X146298318Y-121436589D01*
X146225513Y-121447389D01*
X146152000Y-121451000D01*
X144152000Y-121451000D01*
X144078487Y-121447389D01*
X144005682Y-121436589D01*
X143934286Y-121418705D01*
X143864987Y-121393910D01*
X143798452Y-121362441D01*
X143735322Y-121324602D01*
X143676205Y-121280758D01*
X143621670Y-121231330D01*
X143572242Y-121176795D01*
X143528398Y-121117678D01*
X143490559Y-121054548D01*
X143459090Y-120988013D01*
X143434295Y-120918714D01*
X143416411Y-120847318D01*
X143405611Y-120774513D01*
X143402000Y-120701000D01*
X143402000Y-119201000D01*
X143405611Y-119127487D01*
X143416411Y-119054682D01*
X143434295Y-118983286D01*
X143459090Y-118913987D01*
X143490559Y-118847452D01*
X143528398Y-118784322D01*
X143572242Y-118725205D01*
X143621670Y-118670670D01*
X143676205Y-118621242D01*
X143735322Y-118577398D01*
X143798452Y-118539559D01*
X143864987Y-118508090D01*
X143934286Y-118483295D01*
X144005682Y-118465411D01*
X144078487Y-118454611D01*
X144152000Y-118451000D01*
X146152000Y-118451000D01*
X146225513Y-118454611D01*
X146225513Y-118454611D01*
G37*
D12*
G04 #@! TD*
G04 #@! TO.P,J1,2*
G04 #@! TO.N,-*
X145152000Y-119951000D03*
D13*
G04 #@! TO.P,J1,1*
G04 #@! TO.N,Net-(F1-Pad2)*
X145152000Y-113951000D03*
G04 #@! TD*
D14*
G36*
X188150571Y-122177510D02*
X139761419Y-122177510D01*
X139761419Y-112201000D01*
X142754560Y-112201000D01*
X142754560Y-115701000D01*
X142803843Y-115948765D01*
X142944191Y-116158809D01*
X143154235Y-116299157D01*
X143402000Y-116348440D01*
X146902000Y-116348440D01*
X147149765Y-116299157D01*
X147359809Y-116158809D01*
X147467000Y-115998388D01*
X147467000Y-116013460D01*
X147454560Y-116076000D01*
X147454560Y-117826000D01*
X147467000Y-117888540D01*
X147467000Y-118786547D01*
X147443066Y-118666223D01*
X147140139Y-118212861D01*
X146686777Y-117909934D01*
X146152000Y-117803560D01*
X144152000Y-117803560D01*
X143617223Y-117909934D01*
X143163861Y-118212861D01*
X142860934Y-118666223D01*
X142754560Y-119201000D01*
X142754560Y-120701000D01*
X142860934Y-121235777D01*
X143163861Y-121689139D01*
X143617223Y-121992066D01*
X144152000Y-122098440D01*
X146152000Y-122098440D01*
X146686777Y-121992066D01*
X147140139Y-121689139D01*
X147443066Y-121235777D01*
X147549440Y-120701000D01*
X147549440Y-119201000D01*
X147482599Y-118864968D01*
X147563673Y-119060698D01*
X147742301Y-119239327D01*
X147975690Y-119336000D01*
X148914460Y-119336000D01*
X148977000Y-119348440D01*
X150727000Y-119348440D01*
X150789540Y-119336000D01*
X151728310Y-119336000D01*
X151961699Y-119239327D01*
X152140327Y-119060698D01*
X152237000Y-118827309D01*
X152237000Y-117888540D01*
X152249440Y-117826000D01*
X152249440Y-116076000D01*
X152237000Y-116013460D01*
X152237000Y-115074691D01*
X152140327Y-114841302D01*
X151961699Y-114662673D01*
X151728310Y-114566000D01*
X150789540Y-114566000D01*
X150727000Y-114553560D01*
X148977000Y-114553560D01*
X148914460Y-114566000D01*
X147975690Y-114566000D01*
X147742301Y-114662673D01*
X147563673Y-114841302D01*
X147549440Y-114875663D01*
X147549440Y-112201000D01*
X147500157Y-111953235D01*
X147359809Y-111743191D01*
X147149765Y-111602843D01*
X146902000Y-111553560D01*
X143402000Y-111553560D01*
X143154235Y-111602843D01*
X142944191Y-111743191D01*
X142803843Y-111953235D01*
X142754560Y-112201000D01*
X139761419Y-112201000D01*
X139761419Y-73788360D01*
X188150570Y-73788360D01*
X188150571Y-122177510D01*
X188150571Y-122177510D01*
G37*
X188150571Y-122177510D02*
X139761419Y-122177510D01*
X139761419Y-112201000D01*
X142754560Y-112201000D01*
X142754560Y-115701000D01*
X142803843Y-115948765D01*
X142944191Y-116158809D01*
X143154235Y-116299157D01*
X143402000Y-116348440D01*
X146902000Y-116348440D01*
X147149765Y-116299157D01*
X147359809Y-116158809D01*
X147467000Y-115998388D01*
X147467000Y-116013460D01*
X147454560Y-116076000D01*
X147454560Y-117826000D01*
X147467000Y-117888540D01*
X147467000Y-118786547D01*
X147443066Y-118666223D01*
X147140139Y-118212861D01*
X146686777Y-117909934D01*
X146152000Y-117803560D01*
X144152000Y-117803560D01*
X143617223Y-117909934D01*
X143163861Y-118212861D01*
X142860934Y-118666223D01*
X142754560Y-119201000D01*
X142754560Y-120701000D01*
X142860934Y-121235777D01*
X143163861Y-121689139D01*
X143617223Y-121992066D01*
X144152000Y-122098440D01*
X146152000Y-122098440D01*
X146686777Y-121992066D01*
X147140139Y-121689139D01*
X147443066Y-121235777D01*
X147549440Y-120701000D01*
X147549440Y-119201000D01*
X147482599Y-118864968D01*
X147563673Y-119060698D01*
X147742301Y-119239327D01*
X147975690Y-119336000D01*
X148914460Y-119336000D01*
X148977000Y-119348440D01*
X150727000Y-119348440D01*
X150789540Y-119336000D01*
X151728310Y-119336000D01*
X151961699Y-119239327D01*
X152140327Y-119060698D01*
X152237000Y-118827309D01*
X152237000Y-117888540D01*
X152249440Y-117826000D01*
X152249440Y-116076000D01*
X152237000Y-116013460D01*
X152237000Y-115074691D01*
X152140327Y-114841302D01*
X151961699Y-114662673D01*
X151728310Y-114566000D01*
X150789540Y-114566000D01*
X150727000Y-114553560D01*
X148977000Y-114553560D01*
X148914460Y-114566000D01*
X147975690Y-114566000D01*
X147742301Y-114662673D01*
X147563673Y-114841302D01*
X147549440Y-114875663D01*
X147549440Y-112201000D01*
X147500157Y-111953235D01*
X147359809Y-111743191D01*
X147149765Y-111602843D01*
X146902000Y-111553560D01*
X143402000Y-111553560D01*
X143154235Y-111602843D01*
X142944191Y-111743191D01*
X142803843Y-111953235D01*
X142754560Y-112201000D01*
X139761419Y-112201000D01*
X139761419Y-73788360D01*
X188150570Y-73788360D01*
X188150571Y-122177510D01*
M02*
