G04 #@! TF.GenerationSoftware,KiCad,Pcbnew,5.0.0-fee4fd1~66~ubuntu16.04.1*
G04 #@! TF.CreationDate,2018-10-06T11:58:11+08:00*
G04 #@! TF.ProjectId,base-board,626173652D626F6172642E6B69636164,rev?*
G04 #@! TF.SameCoordinates,Original*
G04 #@! TF.FileFunction,Soldermask,Top*
G04 #@! TF.FilePolarity,Negative*
%FSLAX46Y46*%
G04 Gerber Fmt 4.6, Leading zero omitted, Abs format (unit mm)*
G04 Created by KiCad (PCBNEW 5.0.0-fee4fd1~66~ubuntu16.04.1) date Sat Oct  6 11:58:11 2018*
%MOMM*%
%LPD*%
G01*
G04 APERTURE LIST*
%ADD10C,0.010000*%
%ADD11R,3.400000X1.050000*%
%ADD12R,2.800000X3.200000*%
%ADD13C,2.200000*%
%ADD14C,0.150000*%
%ADD15C,1.650000*%
%ADD16R,1.300000X1.600000*%
G04 APERTURE END LIST*
D10*
G04 #@! TO.C,J2*
G36*
X176524000Y-97787000D02*
X151420333Y-97787000D01*
X151420333Y-84790666D01*
X176524000Y-84790666D01*
X176524000Y-97787000D01*
X176524000Y-97787000D01*
G37*
X176524000Y-97787000D02*
X151420333Y-97787000D01*
X151420333Y-84790666D01*
X176524000Y-84790666D01*
X176524000Y-97787000D01*
G04 #@! TD*
D11*
G04 #@! TO.C,J3*
X158171000Y-119000000D03*
X161171000Y-117730000D03*
G04 #@! TD*
D12*
G04 #@! TO.C,J1*
X141817000Y-118733000D03*
X153217000Y-118733000D03*
X153217000Y-112633000D03*
X141817000Y-112633000D03*
D13*
X147517000Y-118733000D03*
X147517000Y-114233000D03*
G04 #@! TD*
D14*
G04 #@! TO.C,F1*
G36*
X161895346Y-113054589D02*
X161927380Y-113059341D01*
X161958794Y-113067210D01*
X161989286Y-113078120D01*
X162018561Y-113091966D01*
X162046338Y-113108615D01*
X162072350Y-113127907D01*
X162096345Y-113149655D01*
X162118093Y-113173650D01*
X162137385Y-113199662D01*
X162154034Y-113227439D01*
X162167880Y-113256714D01*
X162178790Y-113287206D01*
X162186659Y-113318620D01*
X162191411Y-113350654D01*
X162193000Y-113383000D01*
X162193000Y-114873000D01*
X162191411Y-114905346D01*
X162186659Y-114937380D01*
X162178790Y-114968794D01*
X162167880Y-114999286D01*
X162154034Y-115028561D01*
X162137385Y-115056338D01*
X162118093Y-115082350D01*
X162096345Y-115106345D01*
X162072350Y-115128093D01*
X162046338Y-115147385D01*
X162018561Y-115164034D01*
X161989286Y-115177880D01*
X161958794Y-115188790D01*
X161927380Y-115196659D01*
X161895346Y-115201411D01*
X161863000Y-115203000D01*
X160873000Y-115203000D01*
X160840654Y-115201411D01*
X160808620Y-115196659D01*
X160777206Y-115188790D01*
X160746714Y-115177880D01*
X160717439Y-115164034D01*
X160689662Y-115147385D01*
X160663650Y-115128093D01*
X160639655Y-115106345D01*
X160617907Y-115082350D01*
X160598615Y-115056338D01*
X160581966Y-115028561D01*
X160568120Y-114999286D01*
X160557210Y-114968794D01*
X160549341Y-114937380D01*
X160544589Y-114905346D01*
X160543000Y-114873000D01*
X160543000Y-113383000D01*
X160544589Y-113350654D01*
X160549341Y-113318620D01*
X160557210Y-113287206D01*
X160568120Y-113256714D01*
X160581966Y-113227439D01*
X160598615Y-113199662D01*
X160617907Y-113173650D01*
X160639655Y-113149655D01*
X160663650Y-113127907D01*
X160689662Y-113108615D01*
X160717439Y-113091966D01*
X160746714Y-113078120D01*
X160777206Y-113067210D01*
X160808620Y-113059341D01*
X160840654Y-113054589D01*
X160873000Y-113053000D01*
X161863000Y-113053000D01*
X161895346Y-113054589D01*
X161895346Y-113054589D01*
G37*
D15*
X161368000Y-114128000D03*
D14*
G36*
X159095346Y-113054589D02*
X159127380Y-113059341D01*
X159158794Y-113067210D01*
X159189286Y-113078120D01*
X159218561Y-113091966D01*
X159246338Y-113108615D01*
X159272350Y-113127907D01*
X159296345Y-113149655D01*
X159318093Y-113173650D01*
X159337385Y-113199662D01*
X159354034Y-113227439D01*
X159367880Y-113256714D01*
X159378790Y-113287206D01*
X159386659Y-113318620D01*
X159391411Y-113350654D01*
X159393000Y-113383000D01*
X159393000Y-114873000D01*
X159391411Y-114905346D01*
X159386659Y-114937380D01*
X159378790Y-114968794D01*
X159367880Y-114999286D01*
X159354034Y-115028561D01*
X159337385Y-115056338D01*
X159318093Y-115082350D01*
X159296345Y-115106345D01*
X159272350Y-115128093D01*
X159246338Y-115147385D01*
X159218561Y-115164034D01*
X159189286Y-115177880D01*
X159158794Y-115188790D01*
X159127380Y-115196659D01*
X159095346Y-115201411D01*
X159063000Y-115203000D01*
X158073000Y-115203000D01*
X158040654Y-115201411D01*
X158008620Y-115196659D01*
X157977206Y-115188790D01*
X157946714Y-115177880D01*
X157917439Y-115164034D01*
X157889662Y-115147385D01*
X157863650Y-115128093D01*
X157839655Y-115106345D01*
X157817907Y-115082350D01*
X157798615Y-115056338D01*
X157781966Y-115028561D01*
X157768120Y-114999286D01*
X157757210Y-114968794D01*
X157749341Y-114937380D01*
X157744589Y-114905346D01*
X157743000Y-114873000D01*
X157743000Y-113383000D01*
X157744589Y-113350654D01*
X157749341Y-113318620D01*
X157757210Y-113287206D01*
X157768120Y-113256714D01*
X157781966Y-113227439D01*
X157798615Y-113199662D01*
X157817907Y-113173650D01*
X157839655Y-113149655D01*
X157863650Y-113127907D01*
X157889662Y-113108615D01*
X157917439Y-113091966D01*
X157946714Y-113078120D01*
X157977206Y-113067210D01*
X158008620Y-113059341D01*
X158040654Y-113054589D01*
X158073000Y-113053000D01*
X159063000Y-113053000D01*
X159095346Y-113054589D01*
X159095346Y-113054589D01*
G37*
D15*
X158568000Y-114128000D03*
G04 #@! TD*
D16*
G04 #@! TO.C,D3*
X164286000Y-116959000D03*
X167586000Y-116959000D03*
G04 #@! TD*
G04 #@! TO.C,D2*
X164286000Y-119790000D03*
X167586000Y-119790000D03*
G04 #@! TD*
G04 #@! TO.C,D1*
X164286000Y-114128000D03*
X167586000Y-114128000D03*
G04 #@! TD*
M02*
