G04 #@! TF.GenerationSoftware,KiCad,Pcbnew,5.0.0-fee4fd1~66~ubuntu16.04.1*
G04 #@! TF.CreationDate,2018-10-06T10:53:01+08:00*
G04 #@! TF.ProjectId,base-board,626173652D626F6172642E6B69636164,rev?*
G04 #@! TF.SameCoordinates,Original*
G04 #@! TF.FileFunction,Copper,L1,Top,Signal*
G04 #@! TF.FilePolarity,Positive*
%FSLAX46Y46*%
G04 Gerber Fmt 4.6, Leading zero omitted, Abs format (unit mm)*
G04 Created by KiCad (PCBNEW 5.0.0-fee4fd1~66~ubuntu16.04.1) date Sat Oct  6 10:53:01 2018*
%MOMM*%
%LPD*%
G01*
G04 APERTURE LIST*
G04 #@! TA.AperFunction,EtchedComponent*
%ADD10C,0.010000*%
G04 #@! TD*
G04 #@! TA.AperFunction,Conductor*
%ADD11C,0.150000*%
G04 #@! TD*
G04 #@! TA.AperFunction,ComponentPad*
%ADD12C,3.500000*%
G04 #@! TD*
G04 #@! TA.AperFunction,ComponentPad*
%ADD13C,3.000000*%
G04 #@! TD*
G04 #@! TA.AperFunction,ComponentPad*
%ADD14R,3.500000X3.500000*%
G04 #@! TD*
G04 #@! TA.AperFunction,SMDPad,CuDef*
%ADD15C,1.250000*%
G04 #@! TD*
G04 #@! TA.AperFunction,SMDPad,CuDef*
%ADD16R,0.900000X1.200000*%
G04 #@! TD*
G04 #@! TA.AperFunction,Conductor*
%ADD17C,0.500000*%
G04 #@! TD*
G04 #@! TA.AperFunction,Conductor*
%ADD18C,0.250000*%
G04 #@! TD*
G04 APERTURE END LIST*
D10*
G04 #@! TO.C,J2*
G36*
X189012333Y-109598000D02*
X164967000Y-109598000D01*
X164967000Y-97787000D01*
X176524000Y-97787000D01*
X176524000Y-91945000D01*
X176227666Y-91945000D01*
X176227666Y-97490666D01*
X164967000Y-97490666D01*
X164967000Y-85087000D01*
X176227666Y-85087000D01*
X176227666Y-90632666D01*
X176524000Y-90632666D01*
X176524000Y-84790666D01*
X164967000Y-84790666D01*
X164967000Y-72979666D01*
X189012333Y-72979666D01*
X189012333Y-109598000D01*
X189012333Y-109598000D01*
G37*
X189012333Y-109598000D02*
X164967000Y-109598000D01*
X164967000Y-97787000D01*
X176524000Y-97787000D01*
X176524000Y-91945000D01*
X176227666Y-91945000D01*
X176227666Y-97490666D01*
X164967000Y-97490666D01*
X164967000Y-85087000D01*
X176227666Y-85087000D01*
X176227666Y-90632666D01*
X176524000Y-90632666D01*
X176524000Y-84790666D01*
X164967000Y-84790666D01*
X164967000Y-72979666D01*
X189012333Y-72979666D01*
X189012333Y-109598000D01*
G36*
X162977333Y-84790364D02*
X157209416Y-84801098D01*
X151441500Y-84811833D01*
X151430624Y-87722250D01*
X151419749Y-90632666D01*
X151716666Y-90632666D01*
X151716666Y-85087000D01*
X162977333Y-85087000D01*
X162977333Y-97490666D01*
X151716666Y-97490666D01*
X151716666Y-91945000D01*
X151419749Y-91945000D01*
X151430624Y-94855416D01*
X151441500Y-97765833D01*
X157209416Y-97776567D01*
X162977333Y-97787302D01*
X162977333Y-109598000D01*
X138974333Y-109598000D01*
X138974333Y-72979666D01*
X162977333Y-72979666D01*
X162977333Y-84790364D01*
X162977333Y-84790364D01*
G37*
X162977333Y-84790364D02*
X157209416Y-84801098D01*
X151441500Y-84811833D01*
X151430624Y-87722250D01*
X151419749Y-90632666D01*
X151716666Y-90632666D01*
X151716666Y-85087000D01*
X162977333Y-85087000D01*
X162977333Y-97490666D01*
X151716666Y-97490666D01*
X151716666Y-91945000D01*
X151419749Y-91945000D01*
X151430624Y-94855416D01*
X151441500Y-97765833D01*
X157209416Y-97776567D01*
X162977333Y-97787302D01*
X162977333Y-109598000D01*
X138974333Y-109598000D01*
X138974333Y-72979666D01*
X162977333Y-72979666D01*
X162977333Y-84790364D01*
G04 #@! TD*
D11*
G04 #@! TO.N,N/C*
G04 #@! TO.C,J1*
G36*
X150812765Y-115205213D02*
X150897704Y-115217813D01*
X150980999Y-115238677D01*
X151061848Y-115267605D01*
X151139472Y-115304319D01*
X151213124Y-115348464D01*
X151282094Y-115399616D01*
X151345718Y-115457282D01*
X151403384Y-115520906D01*
X151454536Y-115589876D01*
X151498681Y-115663528D01*
X151535395Y-115741152D01*
X151564323Y-115822001D01*
X151585187Y-115905296D01*
X151597787Y-115990235D01*
X151602000Y-116076000D01*
X151602000Y-117826000D01*
X151597787Y-117911765D01*
X151585187Y-117996704D01*
X151564323Y-118079999D01*
X151535395Y-118160848D01*
X151498681Y-118238472D01*
X151454536Y-118312124D01*
X151403384Y-118381094D01*
X151345718Y-118444718D01*
X151282094Y-118502384D01*
X151213124Y-118553536D01*
X151139472Y-118597681D01*
X151061848Y-118634395D01*
X150980999Y-118663323D01*
X150897704Y-118684187D01*
X150812765Y-118696787D01*
X150727000Y-118701000D01*
X148977000Y-118701000D01*
X148891235Y-118696787D01*
X148806296Y-118684187D01*
X148723001Y-118663323D01*
X148642152Y-118634395D01*
X148564528Y-118597681D01*
X148490876Y-118553536D01*
X148421906Y-118502384D01*
X148358282Y-118444718D01*
X148300616Y-118381094D01*
X148249464Y-118312124D01*
X148205319Y-118238472D01*
X148168605Y-118160848D01*
X148139677Y-118079999D01*
X148118813Y-117996704D01*
X148106213Y-117911765D01*
X148102000Y-117826000D01*
X148102000Y-116076000D01*
X148106213Y-115990235D01*
X148118813Y-115905296D01*
X148139677Y-115822001D01*
X148168605Y-115741152D01*
X148205319Y-115663528D01*
X148249464Y-115589876D01*
X148300616Y-115520906D01*
X148358282Y-115457282D01*
X148421906Y-115399616D01*
X148490876Y-115348464D01*
X148564528Y-115304319D01*
X148642152Y-115267605D01*
X148723001Y-115238677D01*
X148806296Y-115217813D01*
X148891235Y-115205213D01*
X148977000Y-115201000D01*
X150727000Y-115201000D01*
X150812765Y-115205213D01*
X150812765Y-115205213D01*
G37*
D12*
G04 #@! TD*
G04 #@! TO.P,J1,3*
G04 #@! TO.N,N/C*
X149852000Y-116951000D03*
D11*
G04 #@! TO.N,-*
G04 #@! TO.C,J1*
G36*
X146225513Y-118454611D02*
X146298318Y-118465411D01*
X146369714Y-118483295D01*
X146439013Y-118508090D01*
X146505548Y-118539559D01*
X146568678Y-118577398D01*
X146627795Y-118621242D01*
X146682330Y-118670670D01*
X146731758Y-118725205D01*
X146775602Y-118784322D01*
X146813441Y-118847452D01*
X146844910Y-118913987D01*
X146869705Y-118983286D01*
X146887589Y-119054682D01*
X146898389Y-119127487D01*
X146902000Y-119201000D01*
X146902000Y-120701000D01*
X146898389Y-120774513D01*
X146887589Y-120847318D01*
X146869705Y-120918714D01*
X146844910Y-120988013D01*
X146813441Y-121054548D01*
X146775602Y-121117678D01*
X146731758Y-121176795D01*
X146682330Y-121231330D01*
X146627795Y-121280758D01*
X146568678Y-121324602D01*
X146505548Y-121362441D01*
X146439013Y-121393910D01*
X146369714Y-121418705D01*
X146298318Y-121436589D01*
X146225513Y-121447389D01*
X146152000Y-121451000D01*
X144152000Y-121451000D01*
X144078487Y-121447389D01*
X144005682Y-121436589D01*
X143934286Y-121418705D01*
X143864987Y-121393910D01*
X143798452Y-121362441D01*
X143735322Y-121324602D01*
X143676205Y-121280758D01*
X143621670Y-121231330D01*
X143572242Y-121176795D01*
X143528398Y-121117678D01*
X143490559Y-121054548D01*
X143459090Y-120988013D01*
X143434295Y-120918714D01*
X143416411Y-120847318D01*
X143405611Y-120774513D01*
X143402000Y-120701000D01*
X143402000Y-119201000D01*
X143405611Y-119127487D01*
X143416411Y-119054682D01*
X143434295Y-118983286D01*
X143459090Y-118913987D01*
X143490559Y-118847452D01*
X143528398Y-118784322D01*
X143572242Y-118725205D01*
X143621670Y-118670670D01*
X143676205Y-118621242D01*
X143735322Y-118577398D01*
X143798452Y-118539559D01*
X143864987Y-118508090D01*
X143934286Y-118483295D01*
X144005682Y-118465411D01*
X144078487Y-118454611D01*
X144152000Y-118451000D01*
X146152000Y-118451000D01*
X146225513Y-118454611D01*
X146225513Y-118454611D01*
G37*
D13*
G04 #@! TD*
G04 #@! TO.P,J1,2*
G04 #@! TO.N,-*
X145152000Y-119951000D03*
D14*
G04 #@! TO.P,J1,1*
G04 #@! TO.N,Net-(F1-Pad2)*
X145152000Y-113951000D03*
G04 #@! TD*
D11*
G04 #@! TO.N,Net-(D1-Pad2)*
G04 #@! TO.C,F1*
G36*
X154949504Y-111648204D02*
X154973773Y-111651804D01*
X154997571Y-111657765D01*
X155020671Y-111666030D01*
X155042849Y-111676520D01*
X155063893Y-111689133D01*
X155083598Y-111703747D01*
X155101777Y-111720223D01*
X155118253Y-111738402D01*
X155132867Y-111758107D01*
X155145480Y-111779151D01*
X155155970Y-111801329D01*
X155164235Y-111824429D01*
X155170196Y-111848227D01*
X155173796Y-111872496D01*
X155175000Y-111897000D01*
X155175000Y-113147000D01*
X155173796Y-113171504D01*
X155170196Y-113195773D01*
X155164235Y-113219571D01*
X155155970Y-113242671D01*
X155145480Y-113264849D01*
X155132867Y-113285893D01*
X155118253Y-113305598D01*
X155101777Y-113323777D01*
X155083598Y-113340253D01*
X155063893Y-113354867D01*
X155042849Y-113367480D01*
X155020671Y-113377970D01*
X154997571Y-113386235D01*
X154973773Y-113392196D01*
X154949504Y-113395796D01*
X154925000Y-113397000D01*
X154175000Y-113397000D01*
X154150496Y-113395796D01*
X154126227Y-113392196D01*
X154102429Y-113386235D01*
X154079329Y-113377970D01*
X154057151Y-113367480D01*
X154036107Y-113354867D01*
X154016402Y-113340253D01*
X153998223Y-113323777D01*
X153981747Y-113305598D01*
X153967133Y-113285893D01*
X153954520Y-113264849D01*
X153944030Y-113242671D01*
X153935765Y-113219571D01*
X153929804Y-113195773D01*
X153926204Y-113171504D01*
X153925000Y-113147000D01*
X153925000Y-111897000D01*
X153926204Y-111872496D01*
X153929804Y-111848227D01*
X153935765Y-111824429D01*
X153944030Y-111801329D01*
X153954520Y-111779151D01*
X153967133Y-111758107D01*
X153981747Y-111738402D01*
X153998223Y-111720223D01*
X154016402Y-111703747D01*
X154036107Y-111689133D01*
X154057151Y-111676520D01*
X154079329Y-111666030D01*
X154102429Y-111657765D01*
X154126227Y-111651804D01*
X154150496Y-111648204D01*
X154175000Y-111647000D01*
X154925000Y-111647000D01*
X154949504Y-111648204D01*
X154949504Y-111648204D01*
G37*
D15*
G04 #@! TD*
G04 #@! TO.P,F1,1*
G04 #@! TO.N,Net-(D1-Pad2)*
X154550000Y-112522000D03*
D11*
G04 #@! TO.N,Net-(F1-Pad2)*
G04 #@! TO.C,F1*
G36*
X152149504Y-111648204D02*
X152173773Y-111651804D01*
X152197571Y-111657765D01*
X152220671Y-111666030D01*
X152242849Y-111676520D01*
X152263893Y-111689133D01*
X152283598Y-111703747D01*
X152301777Y-111720223D01*
X152318253Y-111738402D01*
X152332867Y-111758107D01*
X152345480Y-111779151D01*
X152355970Y-111801329D01*
X152364235Y-111824429D01*
X152370196Y-111848227D01*
X152373796Y-111872496D01*
X152375000Y-111897000D01*
X152375000Y-113147000D01*
X152373796Y-113171504D01*
X152370196Y-113195773D01*
X152364235Y-113219571D01*
X152355970Y-113242671D01*
X152345480Y-113264849D01*
X152332867Y-113285893D01*
X152318253Y-113305598D01*
X152301777Y-113323777D01*
X152283598Y-113340253D01*
X152263893Y-113354867D01*
X152242849Y-113367480D01*
X152220671Y-113377970D01*
X152197571Y-113386235D01*
X152173773Y-113392196D01*
X152149504Y-113395796D01*
X152125000Y-113397000D01*
X151375000Y-113397000D01*
X151350496Y-113395796D01*
X151326227Y-113392196D01*
X151302429Y-113386235D01*
X151279329Y-113377970D01*
X151257151Y-113367480D01*
X151236107Y-113354867D01*
X151216402Y-113340253D01*
X151198223Y-113323777D01*
X151181747Y-113305598D01*
X151167133Y-113285893D01*
X151154520Y-113264849D01*
X151144030Y-113242671D01*
X151135765Y-113219571D01*
X151129804Y-113195773D01*
X151126204Y-113171504D01*
X151125000Y-113147000D01*
X151125000Y-111897000D01*
X151126204Y-111872496D01*
X151129804Y-111848227D01*
X151135765Y-111824429D01*
X151144030Y-111801329D01*
X151154520Y-111779151D01*
X151167133Y-111758107D01*
X151181747Y-111738402D01*
X151198223Y-111720223D01*
X151216402Y-111703747D01*
X151236107Y-111689133D01*
X151257151Y-111676520D01*
X151279329Y-111666030D01*
X151302429Y-111657765D01*
X151326227Y-111651804D01*
X151350496Y-111648204D01*
X151375000Y-111647000D01*
X152125000Y-111647000D01*
X152149504Y-111648204D01*
X152149504Y-111648204D01*
G37*
D15*
G04 #@! TD*
G04 #@! TO.P,F1,2*
G04 #@! TO.N,Net-(F1-Pad2)*
X151750000Y-112522000D03*
D16*
G04 #@! TO.P,D3,2*
G04 #@! TO.N,Net-(D1-Pad2)*
X157468000Y-115353000D03*
G04 #@! TO.P,D3,1*
G04 #@! TO.N,+*
X160768000Y-115353000D03*
G04 #@! TD*
G04 #@! TO.P,D2,2*
G04 #@! TO.N,Net-(D1-Pad2)*
X157468000Y-118184000D03*
G04 #@! TO.P,D2,1*
G04 #@! TO.N,+*
X160768000Y-118184000D03*
G04 #@! TD*
G04 #@! TO.P,D1,2*
G04 #@! TO.N,Net-(D1-Pad2)*
X157468000Y-112522000D03*
G04 #@! TO.P,D1,1*
G04 #@! TO.N,+*
X160768000Y-112522000D03*
G04 #@! TD*
D17*
G04 #@! TO.N,+*
X148848000Y-106728000D02*
X148848000Y-105778000D01*
X148846000Y-105776000D02*
X148846000Y-104129000D01*
X148848000Y-105778000D02*
X148846000Y-105776000D01*
X157482999Y-108681999D02*
X157325000Y-108524000D01*
X160768000Y-117084000D02*
X160757000Y-117073000D01*
X160768000Y-118184000D02*
X160768000Y-117084000D01*
X160757000Y-117073000D02*
X160757000Y-107915000D01*
D18*
G04 #@! TO.N,-*
X147152000Y-119951000D02*
X147306000Y-120105000D01*
X145152000Y-119951000D02*
X147152000Y-119951000D01*
D17*
X147402000Y-119951000D02*
X147428000Y-119977000D01*
X145152000Y-119951000D02*
X147402000Y-119951000D01*
X147428000Y-119977000D02*
X166658000Y-119977000D01*
X166658000Y-119977000D02*
X178291000Y-108344000D01*
X178291000Y-108344000D02*
X178291000Y-102065000D01*
G04 #@! TO.N,Net-(D1-Pad2)*
X154550000Y-112522000D02*
X157385000Y-112522000D01*
X157468000Y-112522000D02*
X157468000Y-118188000D01*
X157468000Y-118188000D02*
X157443000Y-118213000D01*
D18*
G04 #@! TO.N,Net-(F1-Pad2)*
X145152000Y-113951000D02*
X147152000Y-113951000D01*
D17*
X145152000Y-113951000D02*
X148476000Y-113951000D01*
X148476000Y-113951000D02*
X149944000Y-112483000D01*
X149944000Y-112483000D02*
X151576000Y-112483000D01*
G04 #@! TD*
M02*
