G04 #@! TF.GenerationSoftware,KiCad,Pcbnew,5.0.0-fee4fd1~66~ubuntu16.04.1*
G04 #@! TF.CreationDate,2018-10-05T16:26:32+08:00*
G04 #@! TF.ProjectId,base-board,626173652D626F6172642E6B69636164,rev?*
G04 #@! TF.SameCoordinates,Original*
G04 #@! TF.FileFunction,Copper,L1,Top,Signal*
G04 #@! TF.FilePolarity,Positive*
%FSLAX46Y46*%
G04 Gerber Fmt 4.6, Leading zero omitted, Abs format (unit mm)*
G04 Created by KiCad (PCBNEW 5.0.0-fee4fd1~66~ubuntu16.04.1) date Fri Oct  5 16:26:32 2018*
%MOMM*%
%LPD*%
G01*
G04 APERTURE LIST*
G04 #@! TA.AperFunction,SMDPad,CuDef*
%ADD10R,1.200000X0.900000*%
G04 #@! TD*
G04 #@! TA.AperFunction,ComponentPad*
%ADD11R,3.500000X3.500000*%
G04 #@! TD*
G04 #@! TA.AperFunction,Conductor*
%ADD12C,0.500000*%
G04 #@! TD*
G04 #@! TA.AperFunction,Conductor*
%ADD13C,0.250000*%
G04 #@! TD*
G04 #@! TA.AperFunction,Conductor*
%ADD14C,0.254000*%
G04 #@! TD*
G04 APERTURE END LIST*
D10*
G04 #@! TO.P,D1,2*
G04 #@! TO.N,Net-(D1-Pad2)*
X148848000Y-110028000D03*
G04 #@! TO.P,D1,1*
G04 #@! TO.N,+*
X148848000Y-106728000D03*
G04 #@! TD*
D11*
G04 #@! TO.P,J1,1*
G04 #@! TO.N,Net-(D1-Pad2)*
X145152000Y-113951000D03*
G04 #@! TO.P,J1,2*
G04 #@! TO.N,-*
X145152000Y-119951000D03*
G04 #@! TO.P,J1,3*
G04 #@! TO.N,N/C*
X149852000Y-116951000D03*
G04 #@! TD*
D12*
G04 #@! TO.N,+*
X148848000Y-105778000D02*
X148846000Y-105776000D01*
X148848000Y-106728000D02*
X148848000Y-105778000D01*
X148846000Y-105776000D02*
X148846000Y-104129000D01*
D13*
G04 #@! TO.N,-*
X147152000Y-119951000D02*
X147306000Y-120105000D01*
X145152000Y-119951000D02*
X147152000Y-119951000D01*
D12*
X147402000Y-119951000D02*
X147428000Y-119977000D01*
X145152000Y-119951000D02*
X147402000Y-119951000D01*
X147428000Y-119977000D02*
X166658000Y-119977000D01*
X166658000Y-119977000D02*
X178291000Y-108344000D01*
X178291000Y-108344000D02*
X178291000Y-102065000D01*
D13*
G04 #@! TO.N,Net-(D1-Pad2)*
X145152000Y-113951000D02*
X147152000Y-113951000D01*
D12*
X147402000Y-113951000D02*
X148844000Y-112509000D01*
X145152000Y-113951000D02*
X147402000Y-113951000D01*
X148844000Y-112509000D02*
X148844000Y-110070000D01*
G04 #@! TD*
D14*
G04 #@! TO.N,+*
G36*
X163375000Y-105231000D02*
X139745419Y-105231000D01*
X139745419Y-73739360D01*
X163375000Y-73739360D01*
X163375000Y-105231000D01*
X163375000Y-105231000D01*
G37*
X163375000Y-105231000D02*
X139745419Y-105231000D01*
X139745419Y-73739360D01*
X163375000Y-73739360D01*
X163375000Y-105231000D01*
G04 #@! TO.N,-*
G36*
X188134571Y-105209724D02*
X164513197Y-105282607D01*
X164561955Y-73739360D01*
X188134570Y-73739360D01*
X188134571Y-105209724D01*
X188134571Y-105209724D01*
G37*
X188134571Y-105209724D02*
X164513197Y-105282607D01*
X164561955Y-73739360D01*
X188134570Y-73739360D01*
X188134571Y-105209724D01*
G04 #@! TD*
M02*
