G04 #@! TF.GenerationSoftware,KiCad,Pcbnew,5.0.0-fee4fd1~66~ubuntu16.04.1*
G04 #@! TF.CreationDate,2018-10-06T10:53:01+08:00*
G04 #@! TF.ProjectId,base-board,626173652D626F6172642E6B69636164,rev?*
G04 #@! TF.SameCoordinates,Original*
G04 #@! TF.FileFunction,Paste,Top*
G04 #@! TF.FilePolarity,Positive*
%FSLAX46Y46*%
G04 Gerber Fmt 4.6, Leading zero omitted, Abs format (unit mm)*
G04 Created by KiCad (PCBNEW 5.0.0-fee4fd1~66~ubuntu16.04.1) date Sat Oct  6 10:53:01 2018*
%MOMM*%
%LPD*%
G01*
G04 APERTURE LIST*
%ADD10C,0.150000*%
%ADD11C,1.250000*%
%ADD12R,0.900000X1.200000*%
G04 APERTURE END LIST*
D10*
G04 #@! TO.C,F1*
G36*
X154949504Y-111648204D02*
X154973773Y-111651804D01*
X154997571Y-111657765D01*
X155020671Y-111666030D01*
X155042849Y-111676520D01*
X155063893Y-111689133D01*
X155083598Y-111703747D01*
X155101777Y-111720223D01*
X155118253Y-111738402D01*
X155132867Y-111758107D01*
X155145480Y-111779151D01*
X155155970Y-111801329D01*
X155164235Y-111824429D01*
X155170196Y-111848227D01*
X155173796Y-111872496D01*
X155175000Y-111897000D01*
X155175000Y-113147000D01*
X155173796Y-113171504D01*
X155170196Y-113195773D01*
X155164235Y-113219571D01*
X155155970Y-113242671D01*
X155145480Y-113264849D01*
X155132867Y-113285893D01*
X155118253Y-113305598D01*
X155101777Y-113323777D01*
X155083598Y-113340253D01*
X155063893Y-113354867D01*
X155042849Y-113367480D01*
X155020671Y-113377970D01*
X154997571Y-113386235D01*
X154973773Y-113392196D01*
X154949504Y-113395796D01*
X154925000Y-113397000D01*
X154175000Y-113397000D01*
X154150496Y-113395796D01*
X154126227Y-113392196D01*
X154102429Y-113386235D01*
X154079329Y-113377970D01*
X154057151Y-113367480D01*
X154036107Y-113354867D01*
X154016402Y-113340253D01*
X153998223Y-113323777D01*
X153981747Y-113305598D01*
X153967133Y-113285893D01*
X153954520Y-113264849D01*
X153944030Y-113242671D01*
X153935765Y-113219571D01*
X153929804Y-113195773D01*
X153926204Y-113171504D01*
X153925000Y-113147000D01*
X153925000Y-111897000D01*
X153926204Y-111872496D01*
X153929804Y-111848227D01*
X153935765Y-111824429D01*
X153944030Y-111801329D01*
X153954520Y-111779151D01*
X153967133Y-111758107D01*
X153981747Y-111738402D01*
X153998223Y-111720223D01*
X154016402Y-111703747D01*
X154036107Y-111689133D01*
X154057151Y-111676520D01*
X154079329Y-111666030D01*
X154102429Y-111657765D01*
X154126227Y-111651804D01*
X154150496Y-111648204D01*
X154175000Y-111647000D01*
X154925000Y-111647000D01*
X154949504Y-111648204D01*
X154949504Y-111648204D01*
G37*
D11*
X154550000Y-112522000D03*
D10*
G36*
X152149504Y-111648204D02*
X152173773Y-111651804D01*
X152197571Y-111657765D01*
X152220671Y-111666030D01*
X152242849Y-111676520D01*
X152263893Y-111689133D01*
X152283598Y-111703747D01*
X152301777Y-111720223D01*
X152318253Y-111738402D01*
X152332867Y-111758107D01*
X152345480Y-111779151D01*
X152355970Y-111801329D01*
X152364235Y-111824429D01*
X152370196Y-111848227D01*
X152373796Y-111872496D01*
X152375000Y-111897000D01*
X152375000Y-113147000D01*
X152373796Y-113171504D01*
X152370196Y-113195773D01*
X152364235Y-113219571D01*
X152355970Y-113242671D01*
X152345480Y-113264849D01*
X152332867Y-113285893D01*
X152318253Y-113305598D01*
X152301777Y-113323777D01*
X152283598Y-113340253D01*
X152263893Y-113354867D01*
X152242849Y-113367480D01*
X152220671Y-113377970D01*
X152197571Y-113386235D01*
X152173773Y-113392196D01*
X152149504Y-113395796D01*
X152125000Y-113397000D01*
X151375000Y-113397000D01*
X151350496Y-113395796D01*
X151326227Y-113392196D01*
X151302429Y-113386235D01*
X151279329Y-113377970D01*
X151257151Y-113367480D01*
X151236107Y-113354867D01*
X151216402Y-113340253D01*
X151198223Y-113323777D01*
X151181747Y-113305598D01*
X151167133Y-113285893D01*
X151154520Y-113264849D01*
X151144030Y-113242671D01*
X151135765Y-113219571D01*
X151129804Y-113195773D01*
X151126204Y-113171504D01*
X151125000Y-113147000D01*
X151125000Y-111897000D01*
X151126204Y-111872496D01*
X151129804Y-111848227D01*
X151135765Y-111824429D01*
X151144030Y-111801329D01*
X151154520Y-111779151D01*
X151167133Y-111758107D01*
X151181747Y-111738402D01*
X151198223Y-111720223D01*
X151216402Y-111703747D01*
X151236107Y-111689133D01*
X151257151Y-111676520D01*
X151279329Y-111666030D01*
X151302429Y-111657765D01*
X151326227Y-111651804D01*
X151350496Y-111648204D01*
X151375000Y-111647000D01*
X152125000Y-111647000D01*
X152149504Y-111648204D01*
X152149504Y-111648204D01*
G37*
D11*
X151750000Y-112522000D03*
G04 #@! TD*
D12*
G04 #@! TO.C,D3*
X157468000Y-115353000D03*
X160768000Y-115353000D03*
G04 #@! TD*
G04 #@! TO.C,D2*
X157468000Y-118184000D03*
X160768000Y-118184000D03*
G04 #@! TD*
G04 #@! TO.C,D1*
X157468000Y-112522000D03*
X160768000Y-112522000D03*
G04 #@! TD*
M02*
