G04 #@! TF.GenerationSoftware,KiCad,Pcbnew,5.0.0-fee4fd1~66~ubuntu16.04.1*
G04 #@! TF.CreationDate,2018-10-06T11:58:11+08:00*
G04 #@! TF.ProjectId,base-board,626173652D626F6172642E6B69636164,rev?*
G04 #@! TF.SameCoordinates,Original*
G04 #@! TF.FileFunction,Copper,L2,Bot,Signal*
G04 #@! TF.FilePolarity,Positive*
%FSLAX46Y46*%
G04 Gerber Fmt 4.6, Leading zero omitted, Abs format (unit mm)*
G04 Created by KiCad (PCBNEW 5.0.0-fee4fd1~66~ubuntu16.04.1) date Sat Oct  6 11:58:11 2018*
%MOMM*%
%LPD*%
G01*
G04 APERTURE LIST*
G04 #@! TA.AperFunction,ComponentPad*
%ADD10C,1.800000*%
G04 #@! TD*
G04 #@! TA.AperFunction,NonConductor*
%ADD11C,0.254000*%
G04 #@! TD*
G04 APERTURE END LIST*
D10*
G04 #@! TO.P,J1,*
G04 #@! TO.N,*
X147517000Y-118733000D03*
X147517000Y-114233000D03*
G04 #@! TD*
D11*
G36*
X188150571Y-122177510D02*
X139761419Y-122177510D01*
X139761419Y-118492336D01*
X145970542Y-118492336D01*
X145982000Y-118765212D01*
X145982000Y-119038330D01*
X145994762Y-119069140D01*
X145996161Y-119102460D01*
X146180357Y-119547148D01*
X146194771Y-119552004D01*
X146215690Y-119602507D01*
X146647493Y-120034310D01*
X146697996Y-120055229D01*
X146702852Y-120069643D01*
X146959348Y-120163485D01*
X147211670Y-120268000D01*
X147245018Y-120268000D01*
X147276336Y-120279458D01*
X147549212Y-120268000D01*
X147822330Y-120268000D01*
X147853140Y-120255238D01*
X147886460Y-120253839D01*
X148331148Y-120069643D01*
X148336004Y-120055229D01*
X148386507Y-120034310D01*
X148818310Y-119602507D01*
X148839229Y-119552004D01*
X148853643Y-119547148D01*
X148947485Y-119290652D01*
X149052000Y-119038330D01*
X149052000Y-119004982D01*
X149063458Y-118973664D01*
X149052000Y-118700788D01*
X149052000Y-118427670D01*
X149039238Y-118396860D01*
X149037839Y-118363540D01*
X148853643Y-117918852D01*
X148839229Y-117913996D01*
X148818310Y-117863493D01*
X148386507Y-117431690D01*
X148336004Y-117410771D01*
X148331148Y-117396357D01*
X148074652Y-117302515D01*
X147822330Y-117198000D01*
X147788982Y-117198000D01*
X147757664Y-117186542D01*
X147484788Y-117198000D01*
X147211670Y-117198000D01*
X147180860Y-117210762D01*
X147147540Y-117212161D01*
X146702852Y-117396357D01*
X146697996Y-117410771D01*
X146647493Y-117431690D01*
X146215690Y-117863493D01*
X146194771Y-117913996D01*
X146180357Y-117918852D01*
X146086515Y-118175348D01*
X145982000Y-118427670D01*
X145982000Y-118461018D01*
X145970542Y-118492336D01*
X139761419Y-118492336D01*
X139761419Y-113992336D01*
X145970542Y-113992336D01*
X145982000Y-114265212D01*
X145982000Y-114538330D01*
X145994762Y-114569140D01*
X145996161Y-114602460D01*
X146180357Y-115047148D01*
X146194771Y-115052004D01*
X146215690Y-115102507D01*
X146647493Y-115534310D01*
X146697996Y-115555229D01*
X146702852Y-115569643D01*
X146959348Y-115663485D01*
X147211670Y-115768000D01*
X147245018Y-115768000D01*
X147276336Y-115779458D01*
X147549212Y-115768000D01*
X147822330Y-115768000D01*
X147853140Y-115755238D01*
X147886460Y-115753839D01*
X148331148Y-115569643D01*
X148336004Y-115555229D01*
X148386507Y-115534310D01*
X148818310Y-115102507D01*
X148839229Y-115052004D01*
X148853643Y-115047148D01*
X148947485Y-114790652D01*
X149052000Y-114538330D01*
X149052000Y-114504982D01*
X149063458Y-114473664D01*
X149052000Y-114200788D01*
X149052000Y-113927670D01*
X149039238Y-113896860D01*
X149037839Y-113863540D01*
X148853643Y-113418852D01*
X148839229Y-113413996D01*
X148818310Y-113363493D01*
X148386507Y-112931690D01*
X148336004Y-112910771D01*
X148331148Y-112896357D01*
X148074652Y-112802515D01*
X147822330Y-112698000D01*
X147788982Y-112698000D01*
X147757664Y-112686542D01*
X147484788Y-112698000D01*
X147211670Y-112698000D01*
X147180860Y-112710762D01*
X147147540Y-112712161D01*
X146702852Y-112896357D01*
X146697996Y-112910771D01*
X146647493Y-112931690D01*
X146215690Y-113363493D01*
X146194771Y-113413996D01*
X146180357Y-113418852D01*
X146086515Y-113675348D01*
X145982000Y-113927670D01*
X145982000Y-113961018D01*
X145970542Y-113992336D01*
X139761419Y-113992336D01*
X139761419Y-73788360D01*
X188150570Y-73788360D01*
X188150571Y-122177510D01*
X188150571Y-122177510D01*
G37*
X188150571Y-122177510D02*
X139761419Y-122177510D01*
X139761419Y-118492336D01*
X145970542Y-118492336D01*
X145982000Y-118765212D01*
X145982000Y-119038330D01*
X145994762Y-119069140D01*
X145996161Y-119102460D01*
X146180357Y-119547148D01*
X146194771Y-119552004D01*
X146215690Y-119602507D01*
X146647493Y-120034310D01*
X146697996Y-120055229D01*
X146702852Y-120069643D01*
X146959348Y-120163485D01*
X147211670Y-120268000D01*
X147245018Y-120268000D01*
X147276336Y-120279458D01*
X147549212Y-120268000D01*
X147822330Y-120268000D01*
X147853140Y-120255238D01*
X147886460Y-120253839D01*
X148331148Y-120069643D01*
X148336004Y-120055229D01*
X148386507Y-120034310D01*
X148818310Y-119602507D01*
X148839229Y-119552004D01*
X148853643Y-119547148D01*
X148947485Y-119290652D01*
X149052000Y-119038330D01*
X149052000Y-119004982D01*
X149063458Y-118973664D01*
X149052000Y-118700788D01*
X149052000Y-118427670D01*
X149039238Y-118396860D01*
X149037839Y-118363540D01*
X148853643Y-117918852D01*
X148839229Y-117913996D01*
X148818310Y-117863493D01*
X148386507Y-117431690D01*
X148336004Y-117410771D01*
X148331148Y-117396357D01*
X148074652Y-117302515D01*
X147822330Y-117198000D01*
X147788982Y-117198000D01*
X147757664Y-117186542D01*
X147484788Y-117198000D01*
X147211670Y-117198000D01*
X147180860Y-117210762D01*
X147147540Y-117212161D01*
X146702852Y-117396357D01*
X146697996Y-117410771D01*
X146647493Y-117431690D01*
X146215690Y-117863493D01*
X146194771Y-117913996D01*
X146180357Y-117918852D01*
X146086515Y-118175348D01*
X145982000Y-118427670D01*
X145982000Y-118461018D01*
X145970542Y-118492336D01*
X139761419Y-118492336D01*
X139761419Y-113992336D01*
X145970542Y-113992336D01*
X145982000Y-114265212D01*
X145982000Y-114538330D01*
X145994762Y-114569140D01*
X145996161Y-114602460D01*
X146180357Y-115047148D01*
X146194771Y-115052004D01*
X146215690Y-115102507D01*
X146647493Y-115534310D01*
X146697996Y-115555229D01*
X146702852Y-115569643D01*
X146959348Y-115663485D01*
X147211670Y-115768000D01*
X147245018Y-115768000D01*
X147276336Y-115779458D01*
X147549212Y-115768000D01*
X147822330Y-115768000D01*
X147853140Y-115755238D01*
X147886460Y-115753839D01*
X148331148Y-115569643D01*
X148336004Y-115555229D01*
X148386507Y-115534310D01*
X148818310Y-115102507D01*
X148839229Y-115052004D01*
X148853643Y-115047148D01*
X148947485Y-114790652D01*
X149052000Y-114538330D01*
X149052000Y-114504982D01*
X149063458Y-114473664D01*
X149052000Y-114200788D01*
X149052000Y-113927670D01*
X149039238Y-113896860D01*
X149037839Y-113863540D01*
X148853643Y-113418852D01*
X148839229Y-113413996D01*
X148818310Y-113363493D01*
X148386507Y-112931690D01*
X148336004Y-112910771D01*
X148331148Y-112896357D01*
X148074652Y-112802515D01*
X147822330Y-112698000D01*
X147788982Y-112698000D01*
X147757664Y-112686542D01*
X147484788Y-112698000D01*
X147211670Y-112698000D01*
X147180860Y-112710762D01*
X147147540Y-112712161D01*
X146702852Y-112896357D01*
X146697996Y-112910771D01*
X146647493Y-112931690D01*
X146215690Y-113363493D01*
X146194771Y-113413996D01*
X146180357Y-113418852D01*
X146086515Y-113675348D01*
X145982000Y-113927670D01*
X145982000Y-113961018D01*
X145970542Y-113992336D01*
X139761419Y-113992336D01*
X139761419Y-73788360D01*
X188150570Y-73788360D01*
X188150571Y-122177510D01*
M02*
