G04 #@! TF.GenerationSoftware,KiCad,Pcbnew,5.0.0-fee4fd1~66~ubuntu16.04.1*
G04 #@! TF.CreationDate,2018-10-06T10:53:01+08:00*
G04 #@! TF.ProjectId,base-board,626173652D626F6172642E6B69636164,rev?*
G04 #@! TF.SameCoordinates,Original*
G04 #@! TF.FileFunction,Soldermask,Bot*
G04 #@! TF.FilePolarity,Negative*
%FSLAX46Y46*%
G04 Gerber Fmt 4.6, Leading zero omitted, Abs format (unit mm)*
G04 Created by KiCad (PCBNEW 5.0.0-fee4fd1~66~ubuntu16.04.1) date Sat Oct  6 10:53:01 2018*
%MOMM*%
%LPD*%
G01*
G04 APERTURE LIST*
%ADD10C,0.150000*%
%ADD11C,3.900000*%
%ADD12C,3.400000*%
%ADD13R,3.900000X3.900000*%
G04 APERTURE END LIST*
D10*
G04 #@! TO.C,J1*
G36*
X150922567Y-115005695D02*
X151017213Y-115019734D01*
X151110028Y-115042983D01*
X151200116Y-115075217D01*
X151286612Y-115116127D01*
X151368681Y-115165317D01*
X151445533Y-115222315D01*
X151516429Y-115286571D01*
X151580685Y-115357467D01*
X151637683Y-115434319D01*
X151686873Y-115516388D01*
X151727783Y-115602884D01*
X151760017Y-115692972D01*
X151783266Y-115785787D01*
X151797305Y-115880433D01*
X151802000Y-115976000D01*
X151802000Y-117926000D01*
X151797305Y-118021567D01*
X151783266Y-118116213D01*
X151760017Y-118209028D01*
X151727783Y-118299116D01*
X151686873Y-118385612D01*
X151637683Y-118467681D01*
X151580685Y-118544533D01*
X151516429Y-118615429D01*
X151445533Y-118679685D01*
X151368681Y-118736683D01*
X151286612Y-118785873D01*
X151200116Y-118826783D01*
X151110028Y-118859017D01*
X151017213Y-118882266D01*
X150922567Y-118896305D01*
X150827000Y-118901000D01*
X148877000Y-118901000D01*
X148781433Y-118896305D01*
X148686787Y-118882266D01*
X148593972Y-118859017D01*
X148503884Y-118826783D01*
X148417388Y-118785873D01*
X148335319Y-118736683D01*
X148258467Y-118679685D01*
X148187571Y-118615429D01*
X148123315Y-118544533D01*
X148066317Y-118467681D01*
X148017127Y-118385612D01*
X147976217Y-118299116D01*
X147943983Y-118209028D01*
X147920734Y-118116213D01*
X147906695Y-118021567D01*
X147902000Y-117926000D01*
X147902000Y-115976000D01*
X147906695Y-115880433D01*
X147920734Y-115785787D01*
X147943983Y-115692972D01*
X147976217Y-115602884D01*
X148017127Y-115516388D01*
X148066317Y-115434319D01*
X148123315Y-115357467D01*
X148187571Y-115286571D01*
X148258467Y-115222315D01*
X148335319Y-115165317D01*
X148417388Y-115116127D01*
X148503884Y-115075217D01*
X148593972Y-115042983D01*
X148686787Y-115019734D01*
X148781433Y-115005695D01*
X148877000Y-115001000D01*
X150827000Y-115001000D01*
X150922567Y-115005695D01*
X150922567Y-115005695D01*
G37*
D11*
X149852000Y-116951000D03*
D10*
G36*
X146335315Y-118255093D02*
X146417827Y-118267333D01*
X146498742Y-118287601D01*
X146577281Y-118315702D01*
X146652687Y-118351367D01*
X146724235Y-118394251D01*
X146791234Y-118443941D01*
X146853041Y-118499959D01*
X146909059Y-118561766D01*
X146958749Y-118628765D01*
X147001633Y-118700313D01*
X147037298Y-118775719D01*
X147065399Y-118854258D01*
X147085667Y-118935173D01*
X147097907Y-119017685D01*
X147102000Y-119101000D01*
X147102000Y-120801000D01*
X147097907Y-120884315D01*
X147085667Y-120966827D01*
X147065399Y-121047742D01*
X147037298Y-121126281D01*
X147001633Y-121201687D01*
X146958749Y-121273235D01*
X146909059Y-121340234D01*
X146853041Y-121402041D01*
X146791234Y-121458059D01*
X146724235Y-121507749D01*
X146652687Y-121550633D01*
X146577281Y-121586298D01*
X146498742Y-121614399D01*
X146417827Y-121634667D01*
X146335315Y-121646907D01*
X146252000Y-121651000D01*
X144052000Y-121651000D01*
X143968685Y-121646907D01*
X143886173Y-121634667D01*
X143805258Y-121614399D01*
X143726719Y-121586298D01*
X143651313Y-121550633D01*
X143579765Y-121507749D01*
X143512766Y-121458059D01*
X143450959Y-121402041D01*
X143394941Y-121340234D01*
X143345251Y-121273235D01*
X143302367Y-121201687D01*
X143266702Y-121126281D01*
X143238601Y-121047742D01*
X143218333Y-120966827D01*
X143206093Y-120884315D01*
X143202000Y-120801000D01*
X143202000Y-119101000D01*
X143206093Y-119017685D01*
X143218333Y-118935173D01*
X143238601Y-118854258D01*
X143266702Y-118775719D01*
X143302367Y-118700313D01*
X143345251Y-118628765D01*
X143394941Y-118561766D01*
X143450959Y-118499959D01*
X143512766Y-118443941D01*
X143579765Y-118394251D01*
X143651313Y-118351367D01*
X143726719Y-118315702D01*
X143805258Y-118287601D01*
X143886173Y-118267333D01*
X143968685Y-118255093D01*
X144052000Y-118251000D01*
X146252000Y-118251000D01*
X146335315Y-118255093D01*
X146335315Y-118255093D01*
G37*
D12*
X145152000Y-119951000D03*
D13*
X145152000Y-113951000D03*
G04 #@! TD*
M02*
