G04 #@! TF.GenerationSoftware,KiCad,Pcbnew,5.0.0-fee4fd1~66~ubuntu16.04.1*
G04 #@! TF.CreationDate,2018-10-06T11:58:11+08:00*
G04 #@! TF.ProjectId,base-board,626173652D626F6172642E6B69636164,rev?*
G04 #@! TF.SameCoordinates,Original*
G04 #@! TF.FileFunction,Copper,L1,Top,Signal*
G04 #@! TF.FilePolarity,Positive*
%FSLAX46Y46*%
G04 Gerber Fmt 4.6, Leading zero omitted, Abs format (unit mm)*
G04 Created by KiCad (PCBNEW 5.0.0-fee4fd1~66~ubuntu16.04.1) date Sat Oct  6 11:58:11 2018*
%MOMM*%
%LPD*%
G01*
G04 APERTURE LIST*
G04 #@! TA.AperFunction,EtchedComponent*
%ADD10C,0.010000*%
G04 #@! TD*
G04 #@! TA.AperFunction,SMDPad,CuDef*
%ADD11R,3.000000X0.650000*%
G04 #@! TD*
G04 #@! TA.AperFunction,SMDPad,CuDef*
%ADD12R,2.400000X2.800000*%
G04 #@! TD*
G04 #@! TA.AperFunction,ComponentPad*
%ADD13C,1.800000*%
G04 #@! TD*
G04 #@! TA.AperFunction,Conductor*
%ADD14C,0.150000*%
G04 #@! TD*
G04 #@! TA.AperFunction,SMDPad,CuDef*
%ADD15C,1.250000*%
G04 #@! TD*
G04 #@! TA.AperFunction,SMDPad,CuDef*
%ADD16R,0.900000X1.200000*%
G04 #@! TD*
G04 #@! TA.AperFunction,Conductor*
%ADD17C,0.500000*%
G04 #@! TD*
G04 APERTURE END LIST*
D10*
G04 #@! TO.C,J2*
G36*
X189012333Y-109598000D02*
X164967000Y-109598000D01*
X164967000Y-97787000D01*
X176524000Y-97787000D01*
X176524000Y-91945000D01*
X176227666Y-91945000D01*
X176227666Y-97490666D01*
X164967000Y-97490666D01*
X164967000Y-85087000D01*
X176227666Y-85087000D01*
X176227666Y-90632666D01*
X176524000Y-90632666D01*
X176524000Y-84790666D01*
X164967000Y-84790666D01*
X164967000Y-72979666D01*
X189012333Y-72979666D01*
X189012333Y-109598000D01*
X189012333Y-109598000D01*
G37*
X189012333Y-109598000D02*
X164967000Y-109598000D01*
X164967000Y-97787000D01*
X176524000Y-97787000D01*
X176524000Y-91945000D01*
X176227666Y-91945000D01*
X176227666Y-97490666D01*
X164967000Y-97490666D01*
X164967000Y-85087000D01*
X176227666Y-85087000D01*
X176227666Y-90632666D01*
X176524000Y-90632666D01*
X176524000Y-84790666D01*
X164967000Y-84790666D01*
X164967000Y-72979666D01*
X189012333Y-72979666D01*
X189012333Y-109598000D01*
G36*
X162977333Y-84790364D02*
X157209416Y-84801098D01*
X151441500Y-84811833D01*
X151430624Y-87722250D01*
X151419749Y-90632666D01*
X151716666Y-90632666D01*
X151716666Y-85087000D01*
X162977333Y-85087000D01*
X162977333Y-97490666D01*
X151716666Y-97490666D01*
X151716666Y-91945000D01*
X151419749Y-91945000D01*
X151430624Y-94855416D01*
X151441500Y-97765833D01*
X157209416Y-97776567D01*
X162977333Y-97787302D01*
X162977333Y-109598000D01*
X138974333Y-109598000D01*
X138974333Y-72979666D01*
X162977333Y-72979666D01*
X162977333Y-84790364D01*
X162977333Y-84790364D01*
G37*
X162977333Y-84790364D02*
X157209416Y-84801098D01*
X151441500Y-84811833D01*
X151430624Y-87722250D01*
X151419749Y-90632666D01*
X151716666Y-90632666D01*
X151716666Y-85087000D01*
X162977333Y-85087000D01*
X162977333Y-97490666D01*
X151716666Y-97490666D01*
X151716666Y-91945000D01*
X151419749Y-91945000D01*
X151430624Y-94855416D01*
X151441500Y-97765833D01*
X157209416Y-97776567D01*
X162977333Y-97787302D01*
X162977333Y-109598000D01*
X138974333Y-109598000D01*
X138974333Y-72979666D01*
X162977333Y-72979666D01*
X162977333Y-84790364D01*
G04 #@! TD*
D11*
G04 #@! TO.P,J3,2*
G04 #@! TO.N,-*
X158171000Y-119000000D03*
G04 #@! TO.P,J3,1*
G04 #@! TO.N,Net-(F1-Pad2)*
X161171000Y-117730000D03*
G04 #@! TD*
D12*
G04 #@! TO.P,J1,1*
G04 #@! TO.N,Net-(F1-Pad2)*
X141817000Y-118733000D03*
G04 #@! TO.P,J1,2*
G04 #@! TO.N,-*
X153217000Y-118733000D03*
G04 #@! TO.P,J1,3*
G04 #@! TO.N,N/C*
X153217000Y-112633000D03*
G04 #@! TO.P,J1,1*
G04 #@! TO.N,Net-(F1-Pad2)*
X141817000Y-112633000D03*
D13*
G04 #@! TO.P,J1,*
G04 #@! TO.N,*
X147517000Y-118733000D03*
X147517000Y-114233000D03*
G04 #@! TD*
D14*
G04 #@! TO.N,Net-(D1-Pad2)*
G04 #@! TO.C,F1*
G36*
X161767504Y-113254204D02*
X161791773Y-113257804D01*
X161815571Y-113263765D01*
X161838671Y-113272030D01*
X161860849Y-113282520D01*
X161881893Y-113295133D01*
X161901598Y-113309747D01*
X161919777Y-113326223D01*
X161936253Y-113344402D01*
X161950867Y-113364107D01*
X161963480Y-113385151D01*
X161973970Y-113407329D01*
X161982235Y-113430429D01*
X161988196Y-113454227D01*
X161991796Y-113478496D01*
X161993000Y-113503000D01*
X161993000Y-114753000D01*
X161991796Y-114777504D01*
X161988196Y-114801773D01*
X161982235Y-114825571D01*
X161973970Y-114848671D01*
X161963480Y-114870849D01*
X161950867Y-114891893D01*
X161936253Y-114911598D01*
X161919777Y-114929777D01*
X161901598Y-114946253D01*
X161881893Y-114960867D01*
X161860849Y-114973480D01*
X161838671Y-114983970D01*
X161815571Y-114992235D01*
X161791773Y-114998196D01*
X161767504Y-115001796D01*
X161743000Y-115003000D01*
X160993000Y-115003000D01*
X160968496Y-115001796D01*
X160944227Y-114998196D01*
X160920429Y-114992235D01*
X160897329Y-114983970D01*
X160875151Y-114973480D01*
X160854107Y-114960867D01*
X160834402Y-114946253D01*
X160816223Y-114929777D01*
X160799747Y-114911598D01*
X160785133Y-114891893D01*
X160772520Y-114870849D01*
X160762030Y-114848671D01*
X160753765Y-114825571D01*
X160747804Y-114801773D01*
X160744204Y-114777504D01*
X160743000Y-114753000D01*
X160743000Y-113503000D01*
X160744204Y-113478496D01*
X160747804Y-113454227D01*
X160753765Y-113430429D01*
X160762030Y-113407329D01*
X160772520Y-113385151D01*
X160785133Y-113364107D01*
X160799747Y-113344402D01*
X160816223Y-113326223D01*
X160834402Y-113309747D01*
X160854107Y-113295133D01*
X160875151Y-113282520D01*
X160897329Y-113272030D01*
X160920429Y-113263765D01*
X160944227Y-113257804D01*
X160968496Y-113254204D01*
X160993000Y-113253000D01*
X161743000Y-113253000D01*
X161767504Y-113254204D01*
X161767504Y-113254204D01*
G37*
D15*
G04 #@! TD*
G04 #@! TO.P,F1,1*
G04 #@! TO.N,Net-(D1-Pad2)*
X161368000Y-114128000D03*
D14*
G04 #@! TO.N,Net-(F1-Pad2)*
G04 #@! TO.C,F1*
G36*
X158967504Y-113254204D02*
X158991773Y-113257804D01*
X159015571Y-113263765D01*
X159038671Y-113272030D01*
X159060849Y-113282520D01*
X159081893Y-113295133D01*
X159101598Y-113309747D01*
X159119777Y-113326223D01*
X159136253Y-113344402D01*
X159150867Y-113364107D01*
X159163480Y-113385151D01*
X159173970Y-113407329D01*
X159182235Y-113430429D01*
X159188196Y-113454227D01*
X159191796Y-113478496D01*
X159193000Y-113503000D01*
X159193000Y-114753000D01*
X159191796Y-114777504D01*
X159188196Y-114801773D01*
X159182235Y-114825571D01*
X159173970Y-114848671D01*
X159163480Y-114870849D01*
X159150867Y-114891893D01*
X159136253Y-114911598D01*
X159119777Y-114929777D01*
X159101598Y-114946253D01*
X159081893Y-114960867D01*
X159060849Y-114973480D01*
X159038671Y-114983970D01*
X159015571Y-114992235D01*
X158991773Y-114998196D01*
X158967504Y-115001796D01*
X158943000Y-115003000D01*
X158193000Y-115003000D01*
X158168496Y-115001796D01*
X158144227Y-114998196D01*
X158120429Y-114992235D01*
X158097329Y-114983970D01*
X158075151Y-114973480D01*
X158054107Y-114960867D01*
X158034402Y-114946253D01*
X158016223Y-114929777D01*
X157999747Y-114911598D01*
X157985133Y-114891893D01*
X157972520Y-114870849D01*
X157962030Y-114848671D01*
X157953765Y-114825571D01*
X157947804Y-114801773D01*
X157944204Y-114777504D01*
X157943000Y-114753000D01*
X157943000Y-113503000D01*
X157944204Y-113478496D01*
X157947804Y-113454227D01*
X157953765Y-113430429D01*
X157962030Y-113407329D01*
X157972520Y-113385151D01*
X157985133Y-113364107D01*
X157999747Y-113344402D01*
X158016223Y-113326223D01*
X158034402Y-113309747D01*
X158054107Y-113295133D01*
X158075151Y-113282520D01*
X158097329Y-113272030D01*
X158120429Y-113263765D01*
X158144227Y-113257804D01*
X158168496Y-113254204D01*
X158193000Y-113253000D01*
X158943000Y-113253000D01*
X158967504Y-113254204D01*
X158967504Y-113254204D01*
G37*
D15*
G04 #@! TD*
G04 #@! TO.P,F1,2*
G04 #@! TO.N,Net-(F1-Pad2)*
X158568000Y-114128000D03*
D16*
G04 #@! TO.P,D3,2*
G04 #@! TO.N,Net-(D1-Pad2)*
X164286000Y-116959000D03*
G04 #@! TO.P,D3,1*
G04 #@! TO.N,+*
X167586000Y-116959000D03*
G04 #@! TD*
G04 #@! TO.P,D2,2*
G04 #@! TO.N,Net-(D1-Pad2)*
X164286000Y-119790000D03*
G04 #@! TO.P,D2,1*
G04 #@! TO.N,+*
X167586000Y-119790000D03*
G04 #@! TD*
G04 #@! TO.P,D1,2*
G04 #@! TO.N,Net-(D1-Pad2)*
X164286000Y-114128000D03*
G04 #@! TO.P,D1,1*
G04 #@! TO.N,+*
X167586000Y-114128000D03*
G04 #@! TD*
D17*
G04 #@! TO.N,+*
X167586000Y-118690000D02*
X167575000Y-118679000D01*
X167586000Y-119790000D02*
X167586000Y-118690000D01*
X167586000Y-119790000D02*
X167586000Y-114256000D01*
X167586000Y-114256000D02*
X167563000Y-114233000D01*
X167563000Y-114233000D02*
X167563000Y-114167000D01*
X167586000Y-114128000D02*
X167586000Y-113028000D01*
X165704000Y-112295000D02*
X162257000Y-108848000D01*
X166853000Y-112295000D02*
X165704000Y-112295000D01*
X167586000Y-113028000D02*
X166853000Y-112295000D01*
G04 #@! TO.N,-*
X154917000Y-118733000D02*
X157906000Y-121722000D01*
X153217000Y-118733000D02*
X154917000Y-118733000D01*
X170609000Y-121722000D02*
X173537000Y-118794000D01*
X173537000Y-118794000D02*
X173537000Y-107573000D01*
X161216000Y-121722000D02*
X170609000Y-121722000D01*
X159321000Y-120938000D02*
X159321000Y-121722000D01*
X158208000Y-119825000D02*
X159321000Y-120938000D01*
X158208000Y-119000000D02*
X158208000Y-119825000D01*
X157906000Y-121722000D02*
X159321000Y-121722000D01*
X159321000Y-121722000D02*
X161216000Y-121722000D01*
G04 #@! TO.N,Net-(D1-Pad2)*
X161368000Y-114128000D02*
X164203000Y-114128000D01*
X164286000Y-114128000D02*
X164286000Y-119794000D01*
X164286000Y-119794000D02*
X164261000Y-119819000D01*
G04 #@! TO.N,Net-(F1-Pad2)*
X141817000Y-116833000D02*
X141755000Y-116771000D01*
X141817000Y-118733000D02*
X141817000Y-116833000D01*
X141755000Y-116771000D02*
X141755000Y-112384000D01*
X141755000Y-112384000D02*
X141617000Y-112384000D01*
X158568000Y-114128000D02*
X156515000Y-116181000D01*
X156515000Y-116181000D02*
X145142000Y-116181000D01*
X145142000Y-116181000D02*
X142005000Y-113044000D01*
X161208000Y-116905000D02*
X158515000Y-114212000D01*
X161208000Y-117730000D02*
X161208000Y-116905000D01*
X158515000Y-114212000D02*
X158510000Y-114212000D01*
X158510000Y-114212000D02*
X158497000Y-114199000D01*
G04 #@! TD*
M02*
