G04 #@! TF.GenerationSoftware,KiCad,Pcbnew,5.0.0-fee4fd1~66~ubuntu16.04.1*
G04 #@! TF.CreationDate,2018-10-05T15:26:55+08:00*
G04 #@! TF.ProjectId,corners,636F726E6572732E6B696361645F7063,rev?*
G04 #@! TF.SameCoordinates,Original*
G04 #@! TF.FileFunction,Copper,L2,Bot,Signal*
G04 #@! TF.FilePolarity,Positive*
%FSLAX46Y46*%
G04 Gerber Fmt 4.6, Leading zero omitted, Abs format (unit mm)*
G04 Created by KiCad (PCBNEW 5.0.0-fee4fd1~66~ubuntu16.04.1) date Fri Oct  5 15:26:55 2018*
%MOMM*%
%LPD*%
G01*
G04 APERTURE LIST*
G04 #@! TA.AperFunction,EtchedComponent*
%ADD10C,0.010000*%
G04 #@! TD*
G04 APERTURE END LIST*
D10*
G04 #@! TO.C,*
G36*
X172884839Y-50821194D02*
X172904344Y-50865824D01*
X172951582Y-50985774D01*
X173025022Y-51176915D01*
X173123133Y-51435118D01*
X173244383Y-51756254D01*
X173387242Y-52136195D01*
X173550179Y-52570813D01*
X173731662Y-53055977D01*
X173930162Y-53587560D01*
X174144146Y-54161432D01*
X174372085Y-54773465D01*
X174612446Y-55419530D01*
X174863699Y-56095499D01*
X175124314Y-56797242D01*
X175392758Y-57520630D01*
X175667501Y-58261536D01*
X175947012Y-59015829D01*
X176229761Y-59779382D01*
X176514215Y-60548066D01*
X176798845Y-61317751D01*
X177082119Y-62084310D01*
X177362506Y-62843613D01*
X177638475Y-63591531D01*
X177908496Y-64323936D01*
X178171037Y-65036699D01*
X178424567Y-65725690D01*
X178667555Y-66386783D01*
X178898471Y-67015847D01*
X179115783Y-67608753D01*
X179317960Y-68161374D01*
X179503472Y-68669580D01*
X179523550Y-68724667D01*
X179657767Y-69090520D01*
X179788545Y-69442425D01*
X179911876Y-69769917D01*
X180023749Y-70062532D01*
X180120152Y-70309804D01*
X180197076Y-70501269D01*
X180250511Y-70626461D01*
X180260755Y-70648292D01*
X180363824Y-70903467D01*
X180400740Y-71118954D01*
X180368220Y-71300661D01*
X180262979Y-71454494D01*
X180081733Y-71586361D01*
X179821200Y-71702169D01*
X179642000Y-71761438D01*
X179426095Y-71835831D01*
X179142929Y-71947925D01*
X178799295Y-72094375D01*
X178401984Y-72271836D01*
X177957786Y-72476962D01*
X177473493Y-72706407D01*
X176955898Y-72956827D01*
X176411789Y-73224876D01*
X175847961Y-73507208D01*
X175271202Y-73800479D01*
X174688306Y-74101343D01*
X174106063Y-74406454D01*
X173531264Y-74712467D01*
X172970701Y-75016038D01*
X172436960Y-75310588D01*
X172197480Y-75444937D01*
X171892731Y-75617243D01*
X171530660Y-75822952D01*
X171119218Y-76057511D01*
X170666355Y-76316365D01*
X170180021Y-76594960D01*
X169668165Y-76888742D01*
X169138737Y-77193157D01*
X168599686Y-77503651D01*
X168058963Y-77815669D01*
X167524518Y-78124658D01*
X167511031Y-78132464D01*
X166745467Y-78574691D01*
X166037436Y-78981921D01*
X165388277Y-79353410D01*
X164799329Y-79688414D01*
X164271930Y-79986192D01*
X163807421Y-80245999D01*
X163407140Y-80467093D01*
X163072426Y-80648729D01*
X162804619Y-80790166D01*
X162605059Y-80890660D01*
X162475083Y-80949467D01*
X162416032Y-80965844D01*
X162412333Y-80962015D01*
X162426032Y-80913126D01*
X162466347Y-80787758D01*
X162532107Y-80589293D01*
X162622143Y-80321113D01*
X162735282Y-79986600D01*
X162870354Y-79589137D01*
X163026188Y-79132106D01*
X163201614Y-78618888D01*
X163395459Y-78052867D01*
X163606554Y-77437423D01*
X163833728Y-76775940D01*
X164075808Y-76071799D01*
X164331626Y-75328383D01*
X164600009Y-74549073D01*
X164879787Y-73737252D01*
X165169789Y-72896302D01*
X165468844Y-72029605D01*
X165775782Y-71140543D01*
X166089430Y-70232498D01*
X166408619Y-69308853D01*
X166732177Y-68372990D01*
X167058934Y-67428290D01*
X167387718Y-66478137D01*
X167717360Y-65525911D01*
X168046687Y-64574995D01*
X168374529Y-63628772D01*
X168699715Y-62690623D01*
X169021074Y-61763931D01*
X169337436Y-60852078D01*
X169647629Y-59958445D01*
X169950482Y-59086416D01*
X170244825Y-58239371D01*
X170529487Y-57420694D01*
X170803297Y-56633767D01*
X171065083Y-55881971D01*
X171313675Y-55168688D01*
X171547903Y-54497302D01*
X171766594Y-53871193D01*
X171968579Y-53293745D01*
X172152687Y-52768339D01*
X172317745Y-52298357D01*
X172462585Y-51887182D01*
X172586034Y-51538196D01*
X172686922Y-51254780D01*
X172764078Y-51040318D01*
X172816330Y-50898190D01*
X172842509Y-50831780D01*
X172845014Y-50827208D01*
X172883700Y-50820063D01*
X172884839Y-50821194D01*
X172884839Y-50821194D01*
G37*
X172884839Y-50821194D02*
X172904344Y-50865824D01*
X172951582Y-50985774D01*
X173025022Y-51176915D01*
X173123133Y-51435118D01*
X173244383Y-51756254D01*
X173387242Y-52136195D01*
X173550179Y-52570813D01*
X173731662Y-53055977D01*
X173930162Y-53587560D01*
X174144146Y-54161432D01*
X174372085Y-54773465D01*
X174612446Y-55419530D01*
X174863699Y-56095499D01*
X175124314Y-56797242D01*
X175392758Y-57520630D01*
X175667501Y-58261536D01*
X175947012Y-59015829D01*
X176229761Y-59779382D01*
X176514215Y-60548066D01*
X176798845Y-61317751D01*
X177082119Y-62084310D01*
X177362506Y-62843613D01*
X177638475Y-63591531D01*
X177908496Y-64323936D01*
X178171037Y-65036699D01*
X178424567Y-65725690D01*
X178667555Y-66386783D01*
X178898471Y-67015847D01*
X179115783Y-67608753D01*
X179317960Y-68161374D01*
X179503472Y-68669580D01*
X179523550Y-68724667D01*
X179657767Y-69090520D01*
X179788545Y-69442425D01*
X179911876Y-69769917D01*
X180023749Y-70062532D01*
X180120152Y-70309804D01*
X180197076Y-70501269D01*
X180250511Y-70626461D01*
X180260755Y-70648292D01*
X180363824Y-70903467D01*
X180400740Y-71118954D01*
X180368220Y-71300661D01*
X180262979Y-71454494D01*
X180081733Y-71586361D01*
X179821200Y-71702169D01*
X179642000Y-71761438D01*
X179426095Y-71835831D01*
X179142929Y-71947925D01*
X178799295Y-72094375D01*
X178401984Y-72271836D01*
X177957786Y-72476962D01*
X177473493Y-72706407D01*
X176955898Y-72956827D01*
X176411789Y-73224876D01*
X175847961Y-73507208D01*
X175271202Y-73800479D01*
X174688306Y-74101343D01*
X174106063Y-74406454D01*
X173531264Y-74712467D01*
X172970701Y-75016038D01*
X172436960Y-75310588D01*
X172197480Y-75444937D01*
X171892731Y-75617243D01*
X171530660Y-75822952D01*
X171119218Y-76057511D01*
X170666355Y-76316365D01*
X170180021Y-76594960D01*
X169668165Y-76888742D01*
X169138737Y-77193157D01*
X168599686Y-77503651D01*
X168058963Y-77815669D01*
X167524518Y-78124658D01*
X167511031Y-78132464D01*
X166745467Y-78574691D01*
X166037436Y-78981921D01*
X165388277Y-79353410D01*
X164799329Y-79688414D01*
X164271930Y-79986192D01*
X163807421Y-80245999D01*
X163407140Y-80467093D01*
X163072426Y-80648729D01*
X162804619Y-80790166D01*
X162605059Y-80890660D01*
X162475083Y-80949467D01*
X162416032Y-80965844D01*
X162412333Y-80962015D01*
X162426032Y-80913126D01*
X162466347Y-80787758D01*
X162532107Y-80589293D01*
X162622143Y-80321113D01*
X162735282Y-79986600D01*
X162870354Y-79589137D01*
X163026188Y-79132106D01*
X163201614Y-78618888D01*
X163395459Y-78052867D01*
X163606554Y-77437423D01*
X163833728Y-76775940D01*
X164075808Y-76071799D01*
X164331626Y-75328383D01*
X164600009Y-74549073D01*
X164879787Y-73737252D01*
X165169789Y-72896302D01*
X165468844Y-72029605D01*
X165775782Y-71140543D01*
X166089430Y-70232498D01*
X166408619Y-69308853D01*
X166732177Y-68372990D01*
X167058934Y-67428290D01*
X167387718Y-66478137D01*
X167717360Y-65525911D01*
X168046687Y-64574995D01*
X168374529Y-63628772D01*
X168699715Y-62690623D01*
X169021074Y-61763931D01*
X169337436Y-60852078D01*
X169647629Y-59958445D01*
X169950482Y-59086416D01*
X170244825Y-58239371D01*
X170529487Y-57420694D01*
X170803297Y-56633767D01*
X171065083Y-55881971D01*
X171313675Y-55168688D01*
X171547903Y-54497302D01*
X171766594Y-53871193D01*
X171968579Y-53293745D01*
X172152687Y-52768339D01*
X172317745Y-52298357D01*
X172462585Y-51887182D01*
X172586034Y-51538196D01*
X172686922Y-51254780D01*
X172764078Y-51040318D01*
X172816330Y-50898190D01*
X172842509Y-50831780D01*
X172845014Y-50827208D01*
X172883700Y-50820063D01*
X172884839Y-50821194D01*
G36*
X169172563Y-50390178D02*
X169227285Y-50459885D01*
X169243094Y-50583966D01*
X169242286Y-50636272D01*
X169227789Y-50720445D01*
X169188169Y-50881059D01*
X169124686Y-51114102D01*
X169038600Y-51415564D01*
X168931171Y-51781434D01*
X168803660Y-52207702D01*
X168657327Y-52690357D01*
X168493431Y-53225388D01*
X168313234Y-53808785D01*
X168117994Y-54436536D01*
X167908973Y-55104632D01*
X167687431Y-55809061D01*
X167454627Y-56545813D01*
X167211822Y-57310877D01*
X166960276Y-58100242D01*
X166701249Y-58909898D01*
X166436001Y-59735834D01*
X166165793Y-60574039D01*
X165891885Y-61420504D01*
X165615536Y-62271216D01*
X165338008Y-63122165D01*
X165060559Y-63969341D01*
X164889003Y-64491333D01*
X164820775Y-64698618D01*
X164728140Y-64980015D01*
X164613175Y-65329218D01*
X164477957Y-65739920D01*
X164324561Y-66205814D01*
X164155066Y-66720595D01*
X163971546Y-67277956D01*
X163776079Y-67871590D01*
X163570741Y-68495191D01*
X163357608Y-69142453D01*
X163138757Y-69807070D01*
X162916265Y-70482734D01*
X162692208Y-71163140D01*
X162672715Y-71222333D01*
X162304248Y-72341439D01*
X161961045Y-73384194D01*
X161641785Y-74354633D01*
X161345147Y-75256791D01*
X161069810Y-76094701D01*
X160814453Y-76872397D01*
X160577757Y-77593915D01*
X160358399Y-78263289D01*
X160155059Y-78884552D01*
X159966416Y-79461739D01*
X159791150Y-79998885D01*
X159627939Y-80500024D01*
X159475464Y-80969190D01*
X159332402Y-81410417D01*
X159197434Y-81827740D01*
X159069239Y-82225194D01*
X158996627Y-82450816D01*
X158884996Y-82796134D01*
X158780830Y-83114843D01*
X158687057Y-83398241D01*
X158606607Y-83637628D01*
X158542412Y-83824302D01*
X158497400Y-83949562D01*
X158474502Y-84004707D01*
X158472754Y-84006566D01*
X158438203Y-83976962D01*
X158355635Y-83894123D01*
X158234028Y-83767425D01*
X158082361Y-83606244D01*
X157909611Y-83419956D01*
X157875225Y-83382583D01*
X157484899Y-82955940D01*
X157135890Y-82569995D01*
X156810513Y-82204724D01*
X156491085Y-81840101D01*
X156159919Y-81456102D01*
X155799333Y-81032703D01*
X155784327Y-81014995D01*
X154306279Y-79212961D01*
X152891554Y-77371504D01*
X151541996Y-75493992D01*
X150259448Y-73583790D01*
X149045753Y-71644266D01*
X147902756Y-69678786D01*
X146832297Y-67690719D01*
X145836222Y-65683431D01*
X144916374Y-63660289D01*
X144074595Y-61624660D01*
X143312729Y-59579910D01*
X142632619Y-57529408D01*
X142277307Y-56342167D01*
X142188242Y-56025094D01*
X142093044Y-55673432D01*
X141993720Y-55295671D01*
X141892281Y-54900304D01*
X141790735Y-54495821D01*
X141691090Y-54090715D01*
X141595356Y-53693477D01*
X141505542Y-53312598D01*
X141423655Y-52956571D01*
X141351705Y-52633886D01*
X141291701Y-52353036D01*
X141245652Y-52122512D01*
X141215566Y-51950805D01*
X141203452Y-51846407D01*
X141206980Y-51817691D01*
X141251810Y-51812227D01*
X141371715Y-51803590D01*
X141557186Y-51792307D01*
X141798714Y-51778907D01*
X142086788Y-51763916D01*
X142411899Y-51747861D01*
X142764537Y-51731270D01*
X142769667Y-51731035D01*
X143344055Y-51704359D01*
X143941213Y-51675992D01*
X144566450Y-51645659D01*
X145225077Y-51613086D01*
X145922403Y-51577999D01*
X146663740Y-51540123D01*
X147454397Y-51499184D01*
X148299685Y-51454907D01*
X149204915Y-51407019D01*
X150175396Y-51355245D01*
X151216439Y-51299311D01*
X152333355Y-51238942D01*
X153077833Y-51198538D01*
X154152158Y-51140194D01*
X155147289Y-51086248D01*
X156068570Y-51036418D01*
X156921345Y-50990420D01*
X157710956Y-50947973D01*
X158442747Y-50908794D01*
X159122062Y-50872599D01*
X159754243Y-50839106D01*
X160344636Y-50808033D01*
X160898582Y-50779096D01*
X161421426Y-50752013D01*
X161918511Y-50726501D01*
X162395180Y-50702277D01*
X162856778Y-50679059D01*
X163308646Y-50656563D01*
X163491833Y-50647509D01*
X163965465Y-50624142D01*
X164493069Y-50598107D01*
X165050298Y-50570606D01*
X165612804Y-50542842D01*
X166156240Y-50516014D01*
X166656256Y-50491326D01*
X166963167Y-50476169D01*
X167343633Y-50457129D01*
X167706047Y-50438519D01*
X168039750Y-50420922D01*
X168334079Y-50404918D01*
X168578375Y-50391091D01*
X168761977Y-50380023D01*
X168874223Y-50372294D01*
X168889333Y-50371004D01*
X169064667Y-50364124D01*
X169172563Y-50390178D01*
X169172563Y-50390178D01*
G37*
X169172563Y-50390178D02*
X169227285Y-50459885D01*
X169243094Y-50583966D01*
X169242286Y-50636272D01*
X169227789Y-50720445D01*
X169188169Y-50881059D01*
X169124686Y-51114102D01*
X169038600Y-51415564D01*
X168931171Y-51781434D01*
X168803660Y-52207702D01*
X168657327Y-52690357D01*
X168493431Y-53225388D01*
X168313234Y-53808785D01*
X168117994Y-54436536D01*
X167908973Y-55104632D01*
X167687431Y-55809061D01*
X167454627Y-56545813D01*
X167211822Y-57310877D01*
X166960276Y-58100242D01*
X166701249Y-58909898D01*
X166436001Y-59735834D01*
X166165793Y-60574039D01*
X165891885Y-61420504D01*
X165615536Y-62271216D01*
X165338008Y-63122165D01*
X165060559Y-63969341D01*
X164889003Y-64491333D01*
X164820775Y-64698618D01*
X164728140Y-64980015D01*
X164613175Y-65329218D01*
X164477957Y-65739920D01*
X164324561Y-66205814D01*
X164155066Y-66720595D01*
X163971546Y-67277956D01*
X163776079Y-67871590D01*
X163570741Y-68495191D01*
X163357608Y-69142453D01*
X163138757Y-69807070D01*
X162916265Y-70482734D01*
X162692208Y-71163140D01*
X162672715Y-71222333D01*
X162304248Y-72341439D01*
X161961045Y-73384194D01*
X161641785Y-74354633D01*
X161345147Y-75256791D01*
X161069810Y-76094701D01*
X160814453Y-76872397D01*
X160577757Y-77593915D01*
X160358399Y-78263289D01*
X160155059Y-78884552D01*
X159966416Y-79461739D01*
X159791150Y-79998885D01*
X159627939Y-80500024D01*
X159475464Y-80969190D01*
X159332402Y-81410417D01*
X159197434Y-81827740D01*
X159069239Y-82225194D01*
X158996627Y-82450816D01*
X158884996Y-82796134D01*
X158780830Y-83114843D01*
X158687057Y-83398241D01*
X158606607Y-83637628D01*
X158542412Y-83824302D01*
X158497400Y-83949562D01*
X158474502Y-84004707D01*
X158472754Y-84006566D01*
X158438203Y-83976962D01*
X158355635Y-83894123D01*
X158234028Y-83767425D01*
X158082361Y-83606244D01*
X157909611Y-83419956D01*
X157875225Y-83382583D01*
X157484899Y-82955940D01*
X157135890Y-82569995D01*
X156810513Y-82204724D01*
X156491085Y-81840101D01*
X156159919Y-81456102D01*
X155799333Y-81032703D01*
X155784327Y-81014995D01*
X154306279Y-79212961D01*
X152891554Y-77371504D01*
X151541996Y-75493992D01*
X150259448Y-73583790D01*
X149045753Y-71644266D01*
X147902756Y-69678786D01*
X146832297Y-67690719D01*
X145836222Y-65683431D01*
X144916374Y-63660289D01*
X144074595Y-61624660D01*
X143312729Y-59579910D01*
X142632619Y-57529408D01*
X142277307Y-56342167D01*
X142188242Y-56025094D01*
X142093044Y-55673432D01*
X141993720Y-55295671D01*
X141892281Y-54900304D01*
X141790735Y-54495821D01*
X141691090Y-54090715D01*
X141595356Y-53693477D01*
X141505542Y-53312598D01*
X141423655Y-52956571D01*
X141351705Y-52633886D01*
X141291701Y-52353036D01*
X141245652Y-52122512D01*
X141215566Y-51950805D01*
X141203452Y-51846407D01*
X141206980Y-51817691D01*
X141251810Y-51812227D01*
X141371715Y-51803590D01*
X141557186Y-51792307D01*
X141798714Y-51778907D01*
X142086788Y-51763916D01*
X142411899Y-51747861D01*
X142764537Y-51731270D01*
X142769667Y-51731035D01*
X143344055Y-51704359D01*
X143941213Y-51675992D01*
X144566450Y-51645659D01*
X145225077Y-51613086D01*
X145922403Y-51577999D01*
X146663740Y-51540123D01*
X147454397Y-51499184D01*
X148299685Y-51454907D01*
X149204915Y-51407019D01*
X150175396Y-51355245D01*
X151216439Y-51299311D01*
X152333355Y-51238942D01*
X153077833Y-51198538D01*
X154152158Y-51140194D01*
X155147289Y-51086248D01*
X156068570Y-51036418D01*
X156921345Y-50990420D01*
X157710956Y-50947973D01*
X158442747Y-50908794D01*
X159122062Y-50872599D01*
X159754243Y-50839106D01*
X160344636Y-50808033D01*
X160898582Y-50779096D01*
X161421426Y-50752013D01*
X161918511Y-50726501D01*
X162395180Y-50702277D01*
X162856778Y-50679059D01*
X163308646Y-50656563D01*
X163491833Y-50647509D01*
X163965465Y-50624142D01*
X164493069Y-50598107D01*
X165050298Y-50570606D01*
X165612804Y-50542842D01*
X166156240Y-50516014D01*
X166656256Y-50491326D01*
X166963167Y-50476169D01*
X167343633Y-50457129D01*
X167706047Y-50438519D01*
X168039750Y-50420922D01*
X168334079Y-50404918D01*
X168578375Y-50391091D01*
X168761977Y-50380023D01*
X168874223Y-50372294D01*
X168889333Y-50371004D01*
X169064667Y-50364124D01*
X169172563Y-50390178D01*
G36*
X124044908Y-51470985D02*
X124048315Y-51471594D01*
X124019785Y-51499088D01*
X123933716Y-51569488D01*
X123800236Y-51674809D01*
X123629472Y-51807068D01*
X123431553Y-51958282D01*
X123413315Y-51972123D01*
X122962004Y-52321469D01*
X122544539Y-52660637D01*
X122142868Y-53005477D01*
X121738941Y-53371843D01*
X121314708Y-53775586D01*
X120944191Y-54140512D01*
X119832486Y-55308724D01*
X118777968Y-56539271D01*
X117780870Y-57831839D01*
X116841428Y-59186114D01*
X115959873Y-60601783D01*
X115418906Y-61553118D01*
X114989646Y-62377727D01*
X114562246Y-63282665D01*
X114136497Y-64268492D01*
X113712193Y-65335764D01*
X113289126Y-66485042D01*
X112867089Y-67716882D01*
X112445875Y-69031843D01*
X112025276Y-70430484D01*
X111702768Y-71561000D01*
X111629106Y-71825525D01*
X111559855Y-72075629D01*
X111493034Y-72318819D01*
X111426665Y-72562602D01*
X111358767Y-72814485D01*
X111287360Y-73081975D01*
X111210466Y-73372579D01*
X111126103Y-73693804D01*
X111032293Y-74053156D01*
X110927055Y-74458143D01*
X110808411Y-74916272D01*
X110674379Y-75435049D01*
X110522981Y-76021982D01*
X110379822Y-76577500D01*
X110245486Y-77097611D01*
X110107091Y-77630980D01*
X109967748Y-78165766D01*
X109830568Y-78690129D01*
X109698662Y-79192230D01*
X109575140Y-79660227D01*
X109463114Y-80082281D01*
X109365694Y-80446552D01*
X109285991Y-80741201D01*
X109282689Y-80753298D01*
X109188471Y-81095337D01*
X109087877Y-81455189D01*
X108983618Y-81823620D01*
X108878403Y-82191400D01*
X108774942Y-82549297D01*
X108675944Y-82888077D01*
X108584119Y-83198510D01*
X108502177Y-83471363D01*
X108432827Y-83697404D01*
X108378780Y-83867401D01*
X108342744Y-83972122D01*
X108329051Y-84002393D01*
X108302742Y-83985763D01*
X108290658Y-83960142D01*
X108271915Y-83910492D01*
X108225876Y-83789104D01*
X108155351Y-83603375D01*
X108063151Y-83360701D01*
X107952088Y-83068477D01*
X107824970Y-82734099D01*
X107684610Y-82364962D01*
X107533817Y-81968464D01*
X107439691Y-81721000D01*
X106671665Y-79701502D01*
X105933755Y-77760349D01*
X105225705Y-75896854D01*
X104547257Y-74110329D01*
X103898154Y-72400090D01*
X103278137Y-70765449D01*
X102686950Y-69205719D01*
X102124335Y-67720215D01*
X101590034Y-66308250D01*
X101083791Y-64969138D01*
X100605347Y-63702191D01*
X100154445Y-62506724D01*
X99730828Y-61382049D01*
X99334237Y-60327482D01*
X98964417Y-59342334D01*
X98621109Y-58425920D01*
X98304055Y-57577553D01*
X98012999Y-56796547D01*
X97747682Y-56082215D01*
X97507848Y-55433871D01*
X97293238Y-54850828D01*
X97103596Y-54332400D01*
X96938663Y-53877901D01*
X96798183Y-53486643D01*
X96681898Y-53157940D01*
X96589550Y-52891107D01*
X96520882Y-52685456D01*
X96475636Y-52540301D01*
X96453556Y-52454955D01*
X96452836Y-52428907D01*
X96500875Y-52423273D01*
X96626956Y-52415000D01*
X96824507Y-52404376D01*
X97086954Y-52391688D01*
X97407724Y-52377223D01*
X97780243Y-52361268D01*
X98197938Y-52344110D01*
X98654236Y-52326037D01*
X99142564Y-52307335D01*
X99656347Y-52288293D01*
X99746207Y-52285026D01*
X100361414Y-52262693D01*
X101026049Y-52238514D01*
X101723706Y-52213088D01*
X102437978Y-52187017D01*
X103152458Y-52160898D01*
X103850741Y-52135333D01*
X104516420Y-52110921D01*
X105133088Y-52088262D01*
X105684339Y-52067956D01*
X105770333Y-52064782D01*
X107427808Y-52003941D01*
X109005026Y-51946772D01*
X110506308Y-51893127D01*
X111935978Y-51842859D01*
X113298359Y-51795819D01*
X114597772Y-51751861D01*
X115838541Y-51710836D01*
X117024989Y-51672598D01*
X118161438Y-51636997D01*
X119252211Y-51603888D01*
X119359333Y-51600696D01*
X119837764Y-51586464D01*
X120333277Y-51571716D01*
X120831102Y-51556891D01*
X121316472Y-51542431D01*
X121774617Y-51528775D01*
X122190769Y-51516363D01*
X122550158Y-51505636D01*
X122809500Y-51497886D01*
X123122676Y-51488875D01*
X123407134Y-51481375D01*
X123652231Y-51475609D01*
X123847322Y-51471805D01*
X123981762Y-51470188D01*
X124044908Y-51470985D01*
X124044908Y-51470985D01*
G37*
X124044908Y-51470985D02*
X124048315Y-51471594D01*
X124019785Y-51499088D01*
X123933716Y-51569488D01*
X123800236Y-51674809D01*
X123629472Y-51807068D01*
X123431553Y-51958282D01*
X123413315Y-51972123D01*
X122962004Y-52321469D01*
X122544539Y-52660637D01*
X122142868Y-53005477D01*
X121738941Y-53371843D01*
X121314708Y-53775586D01*
X120944191Y-54140512D01*
X119832486Y-55308724D01*
X118777968Y-56539271D01*
X117780870Y-57831839D01*
X116841428Y-59186114D01*
X115959873Y-60601783D01*
X115418906Y-61553118D01*
X114989646Y-62377727D01*
X114562246Y-63282665D01*
X114136497Y-64268492D01*
X113712193Y-65335764D01*
X113289126Y-66485042D01*
X112867089Y-67716882D01*
X112445875Y-69031843D01*
X112025276Y-70430484D01*
X111702768Y-71561000D01*
X111629106Y-71825525D01*
X111559855Y-72075629D01*
X111493034Y-72318819D01*
X111426665Y-72562602D01*
X111358767Y-72814485D01*
X111287360Y-73081975D01*
X111210466Y-73372579D01*
X111126103Y-73693804D01*
X111032293Y-74053156D01*
X110927055Y-74458143D01*
X110808411Y-74916272D01*
X110674379Y-75435049D01*
X110522981Y-76021982D01*
X110379822Y-76577500D01*
X110245486Y-77097611D01*
X110107091Y-77630980D01*
X109967748Y-78165766D01*
X109830568Y-78690129D01*
X109698662Y-79192230D01*
X109575140Y-79660227D01*
X109463114Y-80082281D01*
X109365694Y-80446552D01*
X109285991Y-80741201D01*
X109282689Y-80753298D01*
X109188471Y-81095337D01*
X109087877Y-81455189D01*
X108983618Y-81823620D01*
X108878403Y-82191400D01*
X108774942Y-82549297D01*
X108675944Y-82888077D01*
X108584119Y-83198510D01*
X108502177Y-83471363D01*
X108432827Y-83697404D01*
X108378780Y-83867401D01*
X108342744Y-83972122D01*
X108329051Y-84002393D01*
X108302742Y-83985763D01*
X108290658Y-83960142D01*
X108271915Y-83910492D01*
X108225876Y-83789104D01*
X108155351Y-83603375D01*
X108063151Y-83360701D01*
X107952088Y-83068477D01*
X107824970Y-82734099D01*
X107684610Y-82364962D01*
X107533817Y-81968464D01*
X107439691Y-81721000D01*
X106671665Y-79701502D01*
X105933755Y-77760349D01*
X105225705Y-75896854D01*
X104547257Y-74110329D01*
X103898154Y-72400090D01*
X103278137Y-70765449D01*
X102686950Y-69205719D01*
X102124335Y-67720215D01*
X101590034Y-66308250D01*
X101083791Y-64969138D01*
X100605347Y-63702191D01*
X100154445Y-62506724D01*
X99730828Y-61382049D01*
X99334237Y-60327482D01*
X98964417Y-59342334D01*
X98621109Y-58425920D01*
X98304055Y-57577553D01*
X98012999Y-56796547D01*
X97747682Y-56082215D01*
X97507848Y-55433871D01*
X97293238Y-54850828D01*
X97103596Y-54332400D01*
X96938663Y-53877901D01*
X96798183Y-53486643D01*
X96681898Y-53157940D01*
X96589550Y-52891107D01*
X96520882Y-52685456D01*
X96475636Y-52540301D01*
X96453556Y-52454955D01*
X96452836Y-52428907D01*
X96500875Y-52423273D01*
X96626956Y-52415000D01*
X96824507Y-52404376D01*
X97086954Y-52391688D01*
X97407724Y-52377223D01*
X97780243Y-52361268D01*
X98197938Y-52344110D01*
X98654236Y-52326037D01*
X99142564Y-52307335D01*
X99656347Y-52288293D01*
X99746207Y-52285026D01*
X100361414Y-52262693D01*
X101026049Y-52238514D01*
X101723706Y-52213088D01*
X102437978Y-52187017D01*
X103152458Y-52160898D01*
X103850741Y-52135333D01*
X104516420Y-52110921D01*
X105133088Y-52088262D01*
X105684339Y-52067956D01*
X105770333Y-52064782D01*
X107427808Y-52003941D01*
X109005026Y-51946772D01*
X110506308Y-51893127D01*
X111935978Y-51842859D01*
X113298359Y-51795819D01*
X114597772Y-51751861D01*
X115838541Y-51710836D01*
X117024989Y-51672598D01*
X118161438Y-51636997D01*
X119252211Y-51603888D01*
X119359333Y-51600696D01*
X119837764Y-51586464D01*
X120333277Y-51571716D01*
X120831102Y-51556891D01*
X121316472Y-51542431D01*
X121774617Y-51528775D01*
X122190769Y-51516363D01*
X122550158Y-51505636D01*
X122809500Y-51497886D01*
X123122676Y-51488875D01*
X123407134Y-51481375D01*
X123652231Y-51475609D01*
X123847322Y-51471805D01*
X123981762Y-51470188D01*
X124044908Y-51470985D01*
G36*
X140148980Y-51687828D02*
X140233553Y-51699860D01*
X140234998Y-51700390D01*
X140335531Y-51778813D01*
X140366858Y-51862372D01*
X140385468Y-51960553D01*
X140419325Y-52129891D01*
X140465989Y-52358746D01*
X140523019Y-52635477D01*
X140587973Y-52948442D01*
X140658412Y-53286000D01*
X140731894Y-53636511D01*
X140805979Y-53988334D01*
X140878226Y-54329827D01*
X140946194Y-54649350D01*
X141007443Y-54935261D01*
X141059531Y-55175920D01*
X141100018Y-55359686D01*
X141101991Y-55368500D01*
X141191837Y-55746193D01*
X141306094Y-56189612D01*
X141440633Y-56684773D01*
X141591320Y-57217692D01*
X141754025Y-57774385D01*
X141924615Y-58340868D01*
X142098960Y-58903157D01*
X142272927Y-59447268D01*
X142442385Y-59959217D01*
X142557730Y-60295604D01*
X143331137Y-62387089D01*
X144186777Y-64463159D01*
X145123241Y-66521543D01*
X146139121Y-68559968D01*
X147233010Y-70576162D01*
X148403499Y-72567855D01*
X149649180Y-74532773D01*
X150968645Y-76468645D01*
X152360486Y-78373199D01*
X153823296Y-80244163D01*
X155355666Y-82079265D01*
X156956187Y-83876234D01*
X157601502Y-84569347D01*
X158191468Y-85195194D01*
X158072894Y-85585347D01*
X158022005Y-85747587D01*
X157948553Y-85973535D01*
X157852032Y-86264677D01*
X157731934Y-86622498D01*
X157587752Y-87048486D01*
X157418979Y-87544126D01*
X157225108Y-88110905D01*
X157005631Y-88750309D01*
X156760042Y-89463824D01*
X156487833Y-90252936D01*
X156188497Y-91119132D01*
X155902872Y-91944500D01*
X155716305Y-92484063D01*
X155527325Y-93032009D01*
X155339348Y-93578353D01*
X155155790Y-94113105D01*
X154980068Y-94626280D01*
X154815598Y-95107888D01*
X154665796Y-95547944D01*
X154534078Y-95936459D01*
X154423861Y-96263446D01*
X154349898Y-96484750D01*
X154242424Y-96806973D01*
X154143197Y-97102093D01*
X154055383Y-97360873D01*
X153982150Y-97574077D01*
X153926665Y-97732469D01*
X153892095Y-97826812D01*
X153881719Y-97850000D01*
X153860926Y-97813458D01*
X153818216Y-97716119D01*
X153761537Y-97576410D01*
X153740258Y-97521917D01*
X153700492Y-97419993D01*
X153632971Y-97247976D01*
X153541098Y-97014494D01*
X153428276Y-96728179D01*
X153297909Y-96397660D01*
X153153400Y-96031569D01*
X152998152Y-95638536D01*
X152835569Y-95227190D01*
X152759505Y-95034833D01*
X152165991Y-93532422D01*
X151543923Y-91954422D01*
X150893183Y-90300532D01*
X150213655Y-88570455D01*
X149505221Y-86763890D01*
X148767765Y-84880538D01*
X148001169Y-82920100D01*
X147205316Y-80882277D01*
X146380090Y-78766769D01*
X145525373Y-76573277D01*
X144641048Y-74301501D01*
X143726999Y-71951143D01*
X142783107Y-69521903D01*
X142761201Y-69465500D01*
X142146033Y-67881460D01*
X141561418Y-66375844D01*
X141007175Y-64948185D01*
X140483122Y-63598014D01*
X139989079Y-62324865D01*
X139524864Y-61128269D01*
X139090298Y-60007760D01*
X138685198Y-58962869D01*
X138309383Y-57993129D01*
X137962674Y-57098072D01*
X137644888Y-56277231D01*
X137355846Y-55530138D01*
X137095365Y-54856325D01*
X136863265Y-54255326D01*
X136659365Y-53726672D01*
X136483483Y-53269896D01*
X136335440Y-52884530D01*
X136215054Y-52570106D01*
X136122143Y-52326158D01*
X136056528Y-52152216D01*
X136018027Y-52047815D01*
X136006521Y-52013583D01*
X136006805Y-51941143D01*
X136065118Y-51918670D01*
X136086648Y-51918101D01*
X136156536Y-51914497D01*
X136297348Y-51904522D01*
X136495669Y-51889225D01*
X136738082Y-51869656D01*
X137011171Y-51846864D01*
X137160500Y-51834117D01*
X137577475Y-51800151D01*
X137995204Y-51769657D01*
X138404265Y-51743044D01*
X138795236Y-51720723D01*
X139158696Y-51703102D01*
X139485222Y-51690593D01*
X139765393Y-51683604D01*
X139989786Y-51682546D01*
X140148980Y-51687828D01*
X140148980Y-51687828D01*
G37*
X140148980Y-51687828D02*
X140233553Y-51699860D01*
X140234998Y-51700390D01*
X140335531Y-51778813D01*
X140366858Y-51862372D01*
X140385468Y-51960553D01*
X140419325Y-52129891D01*
X140465989Y-52358746D01*
X140523019Y-52635477D01*
X140587973Y-52948442D01*
X140658412Y-53286000D01*
X140731894Y-53636511D01*
X140805979Y-53988334D01*
X140878226Y-54329827D01*
X140946194Y-54649350D01*
X141007443Y-54935261D01*
X141059531Y-55175920D01*
X141100018Y-55359686D01*
X141101991Y-55368500D01*
X141191837Y-55746193D01*
X141306094Y-56189612D01*
X141440633Y-56684773D01*
X141591320Y-57217692D01*
X141754025Y-57774385D01*
X141924615Y-58340868D01*
X142098960Y-58903157D01*
X142272927Y-59447268D01*
X142442385Y-59959217D01*
X142557730Y-60295604D01*
X143331137Y-62387089D01*
X144186777Y-64463159D01*
X145123241Y-66521543D01*
X146139121Y-68559968D01*
X147233010Y-70576162D01*
X148403499Y-72567855D01*
X149649180Y-74532773D01*
X150968645Y-76468645D01*
X152360486Y-78373199D01*
X153823296Y-80244163D01*
X155355666Y-82079265D01*
X156956187Y-83876234D01*
X157601502Y-84569347D01*
X158191468Y-85195194D01*
X158072894Y-85585347D01*
X158022005Y-85747587D01*
X157948553Y-85973535D01*
X157852032Y-86264677D01*
X157731934Y-86622498D01*
X157587752Y-87048486D01*
X157418979Y-87544126D01*
X157225108Y-88110905D01*
X157005631Y-88750309D01*
X156760042Y-89463824D01*
X156487833Y-90252936D01*
X156188497Y-91119132D01*
X155902872Y-91944500D01*
X155716305Y-92484063D01*
X155527325Y-93032009D01*
X155339348Y-93578353D01*
X155155790Y-94113105D01*
X154980068Y-94626280D01*
X154815598Y-95107888D01*
X154665796Y-95547944D01*
X154534078Y-95936459D01*
X154423861Y-96263446D01*
X154349898Y-96484750D01*
X154242424Y-96806973D01*
X154143197Y-97102093D01*
X154055383Y-97360873D01*
X153982150Y-97574077D01*
X153926665Y-97732469D01*
X153892095Y-97826812D01*
X153881719Y-97850000D01*
X153860926Y-97813458D01*
X153818216Y-97716119D01*
X153761537Y-97576410D01*
X153740258Y-97521917D01*
X153700492Y-97419993D01*
X153632971Y-97247976D01*
X153541098Y-97014494D01*
X153428276Y-96728179D01*
X153297909Y-96397660D01*
X153153400Y-96031569D01*
X152998152Y-95638536D01*
X152835569Y-95227190D01*
X152759505Y-95034833D01*
X152165991Y-93532422D01*
X151543923Y-91954422D01*
X150893183Y-90300532D01*
X150213655Y-88570455D01*
X149505221Y-86763890D01*
X148767765Y-84880538D01*
X148001169Y-82920100D01*
X147205316Y-80882277D01*
X146380090Y-78766769D01*
X145525373Y-76573277D01*
X144641048Y-74301501D01*
X143726999Y-71951143D01*
X142783107Y-69521903D01*
X142761201Y-69465500D01*
X142146033Y-67881460D01*
X141561418Y-66375844D01*
X141007175Y-64948185D01*
X140483122Y-63598014D01*
X139989079Y-62324865D01*
X139524864Y-61128269D01*
X139090298Y-60007760D01*
X138685198Y-58962869D01*
X138309383Y-57993129D01*
X137962674Y-57098072D01*
X137644888Y-56277231D01*
X137355846Y-55530138D01*
X137095365Y-54856325D01*
X136863265Y-54255326D01*
X136659365Y-53726672D01*
X136483483Y-53269896D01*
X136335440Y-52884530D01*
X136215054Y-52570106D01*
X136122143Y-52326158D01*
X136056528Y-52152216D01*
X136018027Y-52047815D01*
X136006521Y-52013583D01*
X136006805Y-51941143D01*
X136065118Y-51918670D01*
X136086648Y-51918101D01*
X136156536Y-51914497D01*
X136297348Y-51904522D01*
X136495669Y-51889225D01*
X136738082Y-51869656D01*
X137011171Y-51846864D01*
X137160500Y-51834117D01*
X137577475Y-51800151D01*
X137995204Y-51769657D01*
X138404265Y-51743044D01*
X138795236Y-51720723D01*
X139158696Y-51703102D01*
X139485222Y-51690593D01*
X139765393Y-51683604D01*
X139989786Y-51682546D01*
X140148980Y-51687828D01*
G36*
X180703955Y-72636854D02*
X181060167Y-72769566D01*
X182107524Y-75604866D01*
X182452542Y-76539424D01*
X182802874Y-77489454D01*
X183157342Y-78451723D01*
X183514769Y-79422998D01*
X183873979Y-80400047D01*
X184233792Y-81379636D01*
X184593034Y-82358532D01*
X184950525Y-83333502D01*
X185305088Y-84301313D01*
X185655548Y-85258733D01*
X186000725Y-86202527D01*
X186339443Y-87129464D01*
X186670525Y-88036309D01*
X186992793Y-88919831D01*
X187305070Y-89776796D01*
X187606179Y-90603971D01*
X187894942Y-91398122D01*
X188170182Y-92156018D01*
X188430722Y-92874424D01*
X188675385Y-93550109D01*
X188902993Y-94179838D01*
X189112369Y-94760380D01*
X189302336Y-95288500D01*
X189471716Y-95760966D01*
X189619332Y-96174545D01*
X189744007Y-96526003D01*
X189844563Y-96812109D01*
X189919824Y-97029628D01*
X189968612Y-97175328D01*
X189989750Y-97245976D01*
X189990360Y-97252418D01*
X189940921Y-97260677D01*
X189809959Y-97270142D01*
X189600610Y-97280744D01*
X189316007Y-97292412D01*
X188959287Y-97305079D01*
X188533583Y-97318674D01*
X188042031Y-97333127D01*
X187487764Y-97348371D01*
X186873918Y-97364334D01*
X186203627Y-97380948D01*
X185480027Y-97398144D01*
X184706251Y-97415852D01*
X183885435Y-97434002D01*
X183020713Y-97452525D01*
X182115221Y-97471353D01*
X181172091Y-97490415D01*
X180194461Y-97509641D01*
X179185463Y-97528964D01*
X178148233Y-97548313D01*
X177085906Y-97567619D01*
X176001617Y-97586812D01*
X174898499Y-97605824D01*
X173779688Y-97624584D01*
X172648318Y-97643023D01*
X171577500Y-97659982D01*
X170464109Y-97677504D01*
X169367227Y-97695046D01*
X168291520Y-97712525D01*
X167241654Y-97729857D01*
X166222297Y-97746960D01*
X165238114Y-97763750D01*
X164293774Y-97780145D01*
X163393942Y-97796061D01*
X162543285Y-97811415D01*
X161746470Y-97826125D01*
X161008164Y-97840107D01*
X160333033Y-97853278D01*
X159725744Y-97865556D01*
X159190963Y-97876856D01*
X158733358Y-97887097D01*
X158496500Y-97892729D01*
X158042352Y-97903855D01*
X157665633Y-97913025D01*
X157359132Y-97920253D01*
X157115633Y-97925556D01*
X156927924Y-97928947D01*
X156788791Y-97930442D01*
X156691020Y-97930057D01*
X156627397Y-97927806D01*
X156590710Y-97923704D01*
X156573745Y-97917767D01*
X156569287Y-97910009D01*
X156570124Y-97900446D01*
X156570333Y-97896760D01*
X156583678Y-97847817D01*
X156621194Y-97730265D01*
X156679104Y-97555416D01*
X156753631Y-97334584D01*
X156840996Y-97079081D01*
X156913134Y-96870177D01*
X156967528Y-96711847D01*
X157046876Y-96478757D01*
X157149313Y-96176457D01*
X157272972Y-95810493D01*
X157415989Y-95386413D01*
X157576499Y-94909766D01*
X157752636Y-94386098D01*
X157942534Y-93820958D01*
X158144329Y-93219894D01*
X158356155Y-92588452D01*
X158576147Y-91932182D01*
X158802439Y-91256631D01*
X159033166Y-90567346D01*
X159195583Y-90081833D01*
X159426999Y-89390085D01*
X159654445Y-88710597D01*
X159876127Y-88048707D01*
X160090252Y-87409752D01*
X160295027Y-86799070D01*
X160488659Y-86222001D01*
X160669356Y-85683880D01*
X160835323Y-85190047D01*
X160984769Y-84745840D01*
X161115900Y-84356596D01*
X161226924Y-84027653D01*
X161316046Y-83764350D01*
X161381475Y-83572024D01*
X161413828Y-83477833D01*
X161499020Y-83228399D01*
X161573703Y-83003093D01*
X161633623Y-82815294D01*
X161674528Y-82678380D01*
X161692166Y-82605731D01*
X161692545Y-82600890D01*
X161725151Y-82511437D01*
X161809771Y-82397417D01*
X161926957Y-82279670D01*
X162057262Y-82179037D01*
X162120898Y-82141834D01*
X162232363Y-82095727D01*
X162399114Y-82039547D01*
X162593908Y-81982117D01*
X162704322Y-81952892D01*
X162904751Y-81900487D01*
X163094446Y-81847868D01*
X163245323Y-81802957D01*
X163301386Y-81784481D01*
X163433491Y-81728116D01*
X163635316Y-81627943D01*
X163904845Y-81485129D01*
X164240063Y-81300839D01*
X164638955Y-81076239D01*
X165099505Y-80812494D01*
X165619699Y-80510771D01*
X166197521Y-80172235D01*
X166830956Y-79798051D01*
X167517989Y-79389386D01*
X168256604Y-78947404D01*
X169044787Y-78473273D01*
X169482000Y-78209305D01*
X170275368Y-77730779D01*
X171003639Y-77293865D01*
X171673269Y-76894914D01*
X172290713Y-76530276D01*
X172862427Y-76196303D01*
X173394868Y-75889346D01*
X173894490Y-75605754D01*
X174367751Y-75341880D01*
X174821106Y-75094074D01*
X175261011Y-74858687D01*
X175693921Y-74632069D01*
X176126293Y-74410572D01*
X176564583Y-74190547D01*
X176784500Y-74081654D01*
X177548244Y-73711518D01*
X178270536Y-73374488D01*
X178943307Y-73074195D01*
X179558489Y-72814273D01*
X179920788Y-72669804D01*
X180347743Y-72504143D01*
X180703955Y-72636854D01*
X180703955Y-72636854D01*
G37*
X180703955Y-72636854D02*
X181060167Y-72769566D01*
X182107524Y-75604866D01*
X182452542Y-76539424D01*
X182802874Y-77489454D01*
X183157342Y-78451723D01*
X183514769Y-79422998D01*
X183873979Y-80400047D01*
X184233792Y-81379636D01*
X184593034Y-82358532D01*
X184950525Y-83333502D01*
X185305088Y-84301313D01*
X185655548Y-85258733D01*
X186000725Y-86202527D01*
X186339443Y-87129464D01*
X186670525Y-88036309D01*
X186992793Y-88919831D01*
X187305070Y-89776796D01*
X187606179Y-90603971D01*
X187894942Y-91398122D01*
X188170182Y-92156018D01*
X188430722Y-92874424D01*
X188675385Y-93550109D01*
X188902993Y-94179838D01*
X189112369Y-94760380D01*
X189302336Y-95288500D01*
X189471716Y-95760966D01*
X189619332Y-96174545D01*
X189744007Y-96526003D01*
X189844563Y-96812109D01*
X189919824Y-97029628D01*
X189968612Y-97175328D01*
X189989750Y-97245976D01*
X189990360Y-97252418D01*
X189940921Y-97260677D01*
X189809959Y-97270142D01*
X189600610Y-97280744D01*
X189316007Y-97292412D01*
X188959287Y-97305079D01*
X188533583Y-97318674D01*
X188042031Y-97333127D01*
X187487764Y-97348371D01*
X186873918Y-97364334D01*
X186203627Y-97380948D01*
X185480027Y-97398144D01*
X184706251Y-97415852D01*
X183885435Y-97434002D01*
X183020713Y-97452525D01*
X182115221Y-97471353D01*
X181172091Y-97490415D01*
X180194461Y-97509641D01*
X179185463Y-97528964D01*
X178148233Y-97548313D01*
X177085906Y-97567619D01*
X176001617Y-97586812D01*
X174898499Y-97605824D01*
X173779688Y-97624584D01*
X172648318Y-97643023D01*
X171577500Y-97659982D01*
X170464109Y-97677504D01*
X169367227Y-97695046D01*
X168291520Y-97712525D01*
X167241654Y-97729857D01*
X166222297Y-97746960D01*
X165238114Y-97763750D01*
X164293774Y-97780145D01*
X163393942Y-97796061D01*
X162543285Y-97811415D01*
X161746470Y-97826125D01*
X161008164Y-97840107D01*
X160333033Y-97853278D01*
X159725744Y-97865556D01*
X159190963Y-97876856D01*
X158733358Y-97887097D01*
X158496500Y-97892729D01*
X158042352Y-97903855D01*
X157665633Y-97913025D01*
X157359132Y-97920253D01*
X157115633Y-97925556D01*
X156927924Y-97928947D01*
X156788791Y-97930442D01*
X156691020Y-97930057D01*
X156627397Y-97927806D01*
X156590710Y-97923704D01*
X156573745Y-97917767D01*
X156569287Y-97910009D01*
X156570124Y-97900446D01*
X156570333Y-97896760D01*
X156583678Y-97847817D01*
X156621194Y-97730265D01*
X156679104Y-97555416D01*
X156753631Y-97334584D01*
X156840996Y-97079081D01*
X156913134Y-96870177D01*
X156967528Y-96711847D01*
X157046876Y-96478757D01*
X157149313Y-96176457D01*
X157272972Y-95810493D01*
X157415989Y-95386413D01*
X157576499Y-94909766D01*
X157752636Y-94386098D01*
X157942534Y-93820958D01*
X158144329Y-93219894D01*
X158356155Y-92588452D01*
X158576147Y-91932182D01*
X158802439Y-91256631D01*
X159033166Y-90567346D01*
X159195583Y-90081833D01*
X159426999Y-89390085D01*
X159654445Y-88710597D01*
X159876127Y-88048707D01*
X160090252Y-87409752D01*
X160295027Y-86799070D01*
X160488659Y-86222001D01*
X160669356Y-85683880D01*
X160835323Y-85190047D01*
X160984769Y-84745840D01*
X161115900Y-84356596D01*
X161226924Y-84027653D01*
X161316046Y-83764350D01*
X161381475Y-83572024D01*
X161413828Y-83477833D01*
X161499020Y-83228399D01*
X161573703Y-83003093D01*
X161633623Y-82815294D01*
X161674528Y-82678380D01*
X161692166Y-82605731D01*
X161692545Y-82600890D01*
X161725151Y-82511437D01*
X161809771Y-82397417D01*
X161926957Y-82279670D01*
X162057262Y-82179037D01*
X162120898Y-82141834D01*
X162232363Y-82095727D01*
X162399114Y-82039547D01*
X162593908Y-81982117D01*
X162704322Y-81952892D01*
X162904751Y-81900487D01*
X163094446Y-81847868D01*
X163245323Y-81802957D01*
X163301386Y-81784481D01*
X163433491Y-81728116D01*
X163635316Y-81627943D01*
X163904845Y-81485129D01*
X164240063Y-81300839D01*
X164638955Y-81076239D01*
X165099505Y-80812494D01*
X165619699Y-80510771D01*
X166197521Y-80172235D01*
X166830956Y-79798051D01*
X167517989Y-79389386D01*
X168256604Y-78947404D01*
X169044787Y-78473273D01*
X169482000Y-78209305D01*
X170275368Y-77730779D01*
X171003639Y-77293865D01*
X171673269Y-76894914D01*
X172290713Y-76530276D01*
X172862427Y-76196303D01*
X173394868Y-75889346D01*
X173894490Y-75605754D01*
X174367751Y-75341880D01*
X174821106Y-75094074D01*
X175261011Y-74858687D01*
X175693921Y-74632069D01*
X176126293Y-74410572D01*
X176564583Y-74190547D01*
X176784500Y-74081654D01*
X177548244Y-73711518D01*
X178270536Y-73374488D01*
X178943307Y-73074195D01*
X179558489Y-72814273D01*
X179920788Y-72669804D01*
X180347743Y-72504143D01*
X180703955Y-72636854D01*
G36*
X129792879Y-51502460D02*
X129883094Y-51508460D01*
X129900333Y-51515404D01*
X129887720Y-51560794D01*
X129851611Y-51678543D01*
X129794606Y-51860465D01*
X129719303Y-52098373D01*
X129628300Y-52384081D01*
X129524197Y-52709403D01*
X129409591Y-53066152D01*
X129310816Y-53372625D01*
X129176898Y-53787755D01*
X129022597Y-54266416D01*
X128853413Y-54791524D01*
X128674847Y-55345998D01*
X128492400Y-55912753D01*
X128311570Y-56474708D01*
X128137859Y-57014780D01*
X127979838Y-57506333D01*
X127831774Y-57964695D01*
X127661312Y-58488310D01*
X127473371Y-59062291D01*
X127272868Y-59671754D01*
X127064722Y-60301812D01*
X126853850Y-60937578D01*
X126645172Y-61564168D01*
X126443605Y-62166694D01*
X126254068Y-62730271D01*
X126245499Y-62755667D01*
X125696173Y-64383440D01*
X125173047Y-65933505D01*
X124675263Y-67408384D01*
X124201968Y-68810594D01*
X123752305Y-70142657D01*
X123325418Y-71407092D01*
X122920452Y-72606419D01*
X122536550Y-73743159D01*
X122172858Y-74819831D01*
X121828518Y-75838956D01*
X121502676Y-76803052D01*
X121194476Y-77714641D01*
X120903062Y-78576242D01*
X120627578Y-79390376D01*
X120367168Y-80159561D01*
X120120978Y-80886319D01*
X119888150Y-81573169D01*
X119667829Y-82222631D01*
X119459159Y-82837226D01*
X119261286Y-83419472D01*
X119073352Y-83971891D01*
X118894502Y-84497002D01*
X118723881Y-84997325D01*
X118560632Y-85475380D01*
X118403900Y-85933687D01*
X118252829Y-86374767D01*
X118106564Y-86801138D01*
X117964248Y-87215322D01*
X117825025Y-87619837D01*
X117688041Y-88017205D01*
X117552439Y-88409944D01*
X117417364Y-88800576D01*
X117281959Y-89191619D01*
X117145370Y-89585595D01*
X117006739Y-89985022D01*
X116865212Y-90392422D01*
X116719933Y-90810313D01*
X116656743Y-90992000D01*
X116318798Y-91962775D01*
X116001971Y-92871258D01*
X115706748Y-93716085D01*
X115433611Y-94495889D01*
X115183047Y-95209307D01*
X114955538Y-95854971D01*
X114751569Y-96431518D01*
X114571625Y-96937581D01*
X114416189Y-97371795D01*
X114285746Y-97732795D01*
X114180780Y-98019215D01*
X114101775Y-98229691D01*
X114049216Y-98362856D01*
X114023586Y-98417346D01*
X114023103Y-98417896D01*
X113985764Y-98407167D01*
X113933326Y-98329368D01*
X113904898Y-98269729D01*
X113858072Y-98162673D01*
X113785699Y-97998270D01*
X113696613Y-97796546D01*
X113599649Y-97577524D01*
X113570298Y-97511333D01*
X113456507Y-97252633D01*
X113315377Y-96928229D01*
X113152219Y-96550538D01*
X112972342Y-96131975D01*
X112781056Y-95684956D01*
X112583669Y-95221896D01*
X112385491Y-94755211D01*
X112191831Y-94297318D01*
X112008000Y-93860631D01*
X111950064Y-93722500D01*
X111749780Y-93242357D01*
X111567566Y-92800147D01*
X111400110Y-92386578D01*
X111244101Y-91992362D01*
X111096228Y-91608208D01*
X110953180Y-91224827D01*
X110811644Y-90832929D01*
X110668311Y-90423225D01*
X110519869Y-89986424D01*
X110363006Y-89513237D01*
X110194412Y-88994374D01*
X110010774Y-88420545D01*
X109808783Y-87782461D01*
X109628982Y-87210666D01*
X108993772Y-85186165D01*
X109225140Y-84416666D01*
X109345719Y-84008565D01*
X109483743Y-83528943D01*
X109636291Y-82988456D01*
X109800443Y-82397763D01*
X109973277Y-81767524D01*
X110151874Y-81108395D01*
X110333314Y-80431037D01*
X110514676Y-79746107D01*
X110693039Y-79064264D01*
X110717689Y-78969333D01*
X110916777Y-78201955D01*
X111096017Y-77511254D01*
X111256790Y-76891948D01*
X111400477Y-76338753D01*
X111528461Y-75846385D01*
X111642122Y-75409560D01*
X111742842Y-75022994D01*
X111832002Y-74681404D01*
X111910984Y-74379507D01*
X111981169Y-74112017D01*
X112043939Y-73873653D01*
X112100674Y-73659129D01*
X112152756Y-73463162D01*
X112201567Y-73280469D01*
X112248488Y-73105765D01*
X112294901Y-72933768D01*
X112316985Y-72852167D01*
X112890744Y-70802125D01*
X113481643Y-68825140D01*
X114088138Y-66926373D01*
X114102423Y-66883167D01*
X114456284Y-65856679D01*
X114820421Y-64889213D01*
X115205362Y-63955125D01*
X115621637Y-63028770D01*
X116040491Y-62163000D01*
X116666087Y-60965298D01*
X117312117Y-59840505D01*
X117985888Y-58777887D01*
X118694703Y-57766711D01*
X119445870Y-56796244D01*
X120246693Y-55855752D01*
X120592918Y-55474333D01*
X121148006Y-54900276D01*
X121750856Y-54325036D01*
X122385296Y-53762206D01*
X123035157Y-53225375D01*
X123684270Y-52728134D01*
X124316466Y-52284074D01*
X124632178Y-52079305D01*
X124760940Y-51999900D01*
X124874844Y-51936122D01*
X124986034Y-51885195D01*
X125106651Y-51844344D01*
X125248839Y-51810794D01*
X125424739Y-51781770D01*
X125646494Y-51754496D01*
X125926246Y-51726198D01*
X126276138Y-51694100D01*
X126344333Y-51687989D01*
X126670040Y-51660506D01*
X127021758Y-51633766D01*
X127390004Y-51608228D01*
X127765293Y-51584354D01*
X128138141Y-51562602D01*
X128499065Y-51543435D01*
X128838580Y-51527311D01*
X129147203Y-51514691D01*
X129415450Y-51506036D01*
X129633837Y-51501806D01*
X129792879Y-51502460D01*
X129792879Y-51502460D01*
G37*
X129792879Y-51502460D02*
X129883094Y-51508460D01*
X129900333Y-51515404D01*
X129887720Y-51560794D01*
X129851611Y-51678543D01*
X129794606Y-51860465D01*
X129719303Y-52098373D01*
X129628300Y-52384081D01*
X129524197Y-52709403D01*
X129409591Y-53066152D01*
X129310816Y-53372625D01*
X129176898Y-53787755D01*
X129022597Y-54266416D01*
X128853413Y-54791524D01*
X128674847Y-55345998D01*
X128492400Y-55912753D01*
X128311570Y-56474708D01*
X128137859Y-57014780D01*
X127979838Y-57506333D01*
X127831774Y-57964695D01*
X127661312Y-58488310D01*
X127473371Y-59062291D01*
X127272868Y-59671754D01*
X127064722Y-60301812D01*
X126853850Y-60937578D01*
X126645172Y-61564168D01*
X126443605Y-62166694D01*
X126254068Y-62730271D01*
X126245499Y-62755667D01*
X125696173Y-64383440D01*
X125173047Y-65933505D01*
X124675263Y-67408384D01*
X124201968Y-68810594D01*
X123752305Y-70142657D01*
X123325418Y-71407092D01*
X122920452Y-72606419D01*
X122536550Y-73743159D01*
X122172858Y-74819831D01*
X121828518Y-75838956D01*
X121502676Y-76803052D01*
X121194476Y-77714641D01*
X120903062Y-78576242D01*
X120627578Y-79390376D01*
X120367168Y-80159561D01*
X120120978Y-80886319D01*
X119888150Y-81573169D01*
X119667829Y-82222631D01*
X119459159Y-82837226D01*
X119261286Y-83419472D01*
X119073352Y-83971891D01*
X118894502Y-84497002D01*
X118723881Y-84997325D01*
X118560632Y-85475380D01*
X118403900Y-85933687D01*
X118252829Y-86374767D01*
X118106564Y-86801138D01*
X117964248Y-87215322D01*
X117825025Y-87619837D01*
X117688041Y-88017205D01*
X117552439Y-88409944D01*
X117417364Y-88800576D01*
X117281959Y-89191619D01*
X117145370Y-89585595D01*
X117006739Y-89985022D01*
X116865212Y-90392422D01*
X116719933Y-90810313D01*
X116656743Y-90992000D01*
X116318798Y-91962775D01*
X116001971Y-92871258D01*
X115706748Y-93716085D01*
X115433611Y-94495889D01*
X115183047Y-95209307D01*
X114955538Y-95854971D01*
X114751569Y-96431518D01*
X114571625Y-96937581D01*
X114416189Y-97371795D01*
X114285746Y-97732795D01*
X114180780Y-98019215D01*
X114101775Y-98229691D01*
X114049216Y-98362856D01*
X114023586Y-98417346D01*
X114023103Y-98417896D01*
X113985764Y-98407167D01*
X113933326Y-98329368D01*
X113904898Y-98269729D01*
X113858072Y-98162673D01*
X113785699Y-97998270D01*
X113696613Y-97796546D01*
X113599649Y-97577524D01*
X113570298Y-97511333D01*
X113456507Y-97252633D01*
X113315377Y-96928229D01*
X113152219Y-96550538D01*
X112972342Y-96131975D01*
X112781056Y-95684956D01*
X112583669Y-95221896D01*
X112385491Y-94755211D01*
X112191831Y-94297318D01*
X112008000Y-93860631D01*
X111950064Y-93722500D01*
X111749780Y-93242357D01*
X111567566Y-92800147D01*
X111400110Y-92386578D01*
X111244101Y-91992362D01*
X111096228Y-91608208D01*
X110953180Y-91224827D01*
X110811644Y-90832929D01*
X110668311Y-90423225D01*
X110519869Y-89986424D01*
X110363006Y-89513237D01*
X110194412Y-88994374D01*
X110010774Y-88420545D01*
X109808783Y-87782461D01*
X109628982Y-87210666D01*
X108993772Y-85186165D01*
X109225140Y-84416666D01*
X109345719Y-84008565D01*
X109483743Y-83528943D01*
X109636291Y-82988456D01*
X109800443Y-82397763D01*
X109973277Y-81767524D01*
X110151874Y-81108395D01*
X110333314Y-80431037D01*
X110514676Y-79746107D01*
X110693039Y-79064264D01*
X110717689Y-78969333D01*
X110916777Y-78201955D01*
X111096017Y-77511254D01*
X111256790Y-76891948D01*
X111400477Y-76338753D01*
X111528461Y-75846385D01*
X111642122Y-75409560D01*
X111742842Y-75022994D01*
X111832002Y-74681404D01*
X111910984Y-74379507D01*
X111981169Y-74112017D01*
X112043939Y-73873653D01*
X112100674Y-73659129D01*
X112152756Y-73463162D01*
X112201567Y-73280469D01*
X112248488Y-73105765D01*
X112294901Y-72933768D01*
X112316985Y-72852167D01*
X112890744Y-70802125D01*
X113481643Y-68825140D01*
X114088138Y-66926373D01*
X114102423Y-66883167D01*
X114456284Y-65856679D01*
X114820421Y-64889213D01*
X115205362Y-63955125D01*
X115621637Y-63028770D01*
X116040491Y-62163000D01*
X116666087Y-60965298D01*
X117312117Y-59840505D01*
X117985888Y-58777887D01*
X118694703Y-57766711D01*
X119445870Y-56796244D01*
X120246693Y-55855752D01*
X120592918Y-55474333D01*
X121148006Y-54900276D01*
X121750856Y-54325036D01*
X122385296Y-53762206D01*
X123035157Y-53225375D01*
X123684270Y-52728134D01*
X124316466Y-52284074D01*
X124632178Y-52079305D01*
X124760940Y-51999900D01*
X124874844Y-51936122D01*
X124986034Y-51885195D01*
X125106651Y-51844344D01*
X125248839Y-51810794D01*
X125424739Y-51781770D01*
X125646494Y-51754496D01*
X125926246Y-51726198D01*
X126276138Y-51694100D01*
X126344333Y-51687989D01*
X126670040Y-51660506D01*
X127021758Y-51633766D01*
X127390004Y-51608228D01*
X127765293Y-51584354D01*
X128138141Y-51562602D01*
X128499065Y-51543435D01*
X128838580Y-51527311D01*
X129147203Y-51514691D01*
X129415450Y-51506036D01*
X129633837Y-51501806D01*
X129792879Y-51502460D01*
G36*
X131760508Y-57909704D02*
X131744477Y-57984137D01*
X131742265Y-57993167D01*
X131735625Y-58059142D01*
X131728226Y-58201350D01*
X131720296Y-58411362D01*
X131712065Y-58680751D01*
X131703762Y-59001088D01*
X131695617Y-59363944D01*
X131687859Y-59760892D01*
X131680718Y-60183504D01*
X131678307Y-60342667D01*
X131670183Y-60831820D01*
X131660639Y-61295442D01*
X131649957Y-61724803D01*
X131638416Y-62111175D01*
X131626297Y-62445830D01*
X131613881Y-62720039D01*
X131601447Y-62925075D01*
X131591979Y-63030833D01*
X131576380Y-63216828D01*
X131563217Y-63475195D01*
X131552507Y-63793675D01*
X131544267Y-64160007D01*
X131538516Y-64561931D01*
X131535270Y-64987188D01*
X131534548Y-65423518D01*
X131536366Y-65858661D01*
X131540744Y-66280357D01*
X131547698Y-66676345D01*
X131557246Y-67034367D01*
X131569406Y-67342162D01*
X131584195Y-67587471D01*
X131585397Y-67602833D01*
X131652505Y-68382840D01*
X131728709Y-69148027D01*
X131815376Y-69905896D01*
X131913871Y-70663950D01*
X132025559Y-71429692D01*
X132151806Y-72210624D01*
X132293978Y-73014247D01*
X132453440Y-73848066D01*
X132631558Y-74719581D01*
X132829697Y-75636296D01*
X133049224Y-76605713D01*
X133291504Y-77635335D01*
X133557901Y-78732663D01*
X133758396Y-79540833D01*
X133964036Y-80383322D01*
X134141936Y-81158457D01*
X134293755Y-81878285D01*
X134421147Y-82554851D01*
X134525769Y-83200203D01*
X134609277Y-83826387D01*
X134673327Y-84445449D01*
X134719576Y-85069435D01*
X134749679Y-85710392D01*
X134765294Y-86380367D01*
X134768494Y-86887788D01*
X134751910Y-87910243D01*
X134700248Y-88874939D01*
X134611117Y-89802222D01*
X134482125Y-90712435D01*
X134310880Y-91625925D01*
X134106708Y-92516000D01*
X133943292Y-93123929D01*
X133742737Y-93786561D01*
X133511658Y-94486110D01*
X133256670Y-95204795D01*
X132984389Y-95924832D01*
X132701428Y-96628437D01*
X132414402Y-97297827D01*
X132129927Y-97915220D01*
X131998965Y-98182416D01*
X131727084Y-98724984D01*
X127374125Y-98753136D01*
X126704935Y-98757258D01*
X126011498Y-98761146D01*
X125304716Y-98764758D01*
X124595489Y-98768055D01*
X123894716Y-98770995D01*
X123213297Y-98773538D01*
X122562133Y-98775642D01*
X121952123Y-98777268D01*
X121394167Y-98778375D01*
X120899166Y-98778921D01*
X120481167Y-98778870D01*
X119945479Y-98778157D01*
X119487485Y-98776991D01*
X119100214Y-98775187D01*
X118776694Y-98772559D01*
X118509951Y-98768921D01*
X118293016Y-98764086D01*
X118118914Y-98757870D01*
X117980676Y-98750085D01*
X117871327Y-98740546D01*
X117783898Y-98729068D01*
X117711415Y-98715463D01*
X117662432Y-98703692D01*
X117383232Y-98607651D01*
X117183727Y-98484447D01*
X117062513Y-98331236D01*
X117018187Y-98145175D01*
X117049344Y-97923419D01*
X117151636Y-97668978D01*
X117184823Y-97591786D01*
X117244449Y-97440846D01*
X117328316Y-97222087D01*
X117434229Y-96941441D01*
X117559988Y-96604836D01*
X117703398Y-96218201D01*
X117862262Y-95787466D01*
X118034381Y-95318561D01*
X118217560Y-94817415D01*
X118409601Y-94289958D01*
X118608308Y-93742119D01*
X118676669Y-93553167D01*
X119160772Y-92215468D01*
X119674112Y-90799361D01*
X120216710Y-89304787D01*
X120788589Y-87731685D01*
X121389770Y-86079997D01*
X122020274Y-84349662D01*
X122680125Y-82540621D01*
X123369343Y-80652813D01*
X124087950Y-78686181D01*
X124835969Y-76640663D01*
X125613420Y-74516201D01*
X126420326Y-72312734D01*
X127256708Y-70030203D01*
X128122589Y-67668548D01*
X129017990Y-65227710D01*
X129942933Y-62707629D01*
X130430450Y-61379833D01*
X130672887Y-60720384D01*
X130887724Y-60137741D01*
X131076061Y-59629061D01*
X131239001Y-59191496D01*
X131377647Y-58822202D01*
X131493101Y-58518334D01*
X131586464Y-58277045D01*
X131658840Y-58095491D01*
X131711330Y-57970825D01*
X131745037Y-57900202D01*
X131761062Y-57880777D01*
X131760508Y-57909704D01*
X131760508Y-57909704D01*
G37*
X131760508Y-57909704D02*
X131744477Y-57984137D01*
X131742265Y-57993167D01*
X131735625Y-58059142D01*
X131728226Y-58201350D01*
X131720296Y-58411362D01*
X131712065Y-58680751D01*
X131703762Y-59001088D01*
X131695617Y-59363944D01*
X131687859Y-59760892D01*
X131680718Y-60183504D01*
X131678307Y-60342667D01*
X131670183Y-60831820D01*
X131660639Y-61295442D01*
X131649957Y-61724803D01*
X131638416Y-62111175D01*
X131626297Y-62445830D01*
X131613881Y-62720039D01*
X131601447Y-62925075D01*
X131591979Y-63030833D01*
X131576380Y-63216828D01*
X131563217Y-63475195D01*
X131552507Y-63793675D01*
X131544267Y-64160007D01*
X131538516Y-64561931D01*
X131535270Y-64987188D01*
X131534548Y-65423518D01*
X131536366Y-65858661D01*
X131540744Y-66280357D01*
X131547698Y-66676345D01*
X131557246Y-67034367D01*
X131569406Y-67342162D01*
X131584195Y-67587471D01*
X131585397Y-67602833D01*
X131652505Y-68382840D01*
X131728709Y-69148027D01*
X131815376Y-69905896D01*
X131913871Y-70663950D01*
X132025559Y-71429692D01*
X132151806Y-72210624D01*
X132293978Y-73014247D01*
X132453440Y-73848066D01*
X132631558Y-74719581D01*
X132829697Y-75636296D01*
X133049224Y-76605713D01*
X133291504Y-77635335D01*
X133557901Y-78732663D01*
X133758396Y-79540833D01*
X133964036Y-80383322D01*
X134141936Y-81158457D01*
X134293755Y-81878285D01*
X134421147Y-82554851D01*
X134525769Y-83200203D01*
X134609277Y-83826387D01*
X134673327Y-84445449D01*
X134719576Y-85069435D01*
X134749679Y-85710392D01*
X134765294Y-86380367D01*
X134768494Y-86887788D01*
X134751910Y-87910243D01*
X134700248Y-88874939D01*
X134611117Y-89802222D01*
X134482125Y-90712435D01*
X134310880Y-91625925D01*
X134106708Y-92516000D01*
X133943292Y-93123929D01*
X133742737Y-93786561D01*
X133511658Y-94486110D01*
X133256670Y-95204795D01*
X132984389Y-95924832D01*
X132701428Y-96628437D01*
X132414402Y-97297827D01*
X132129927Y-97915220D01*
X131998965Y-98182416D01*
X131727084Y-98724984D01*
X127374125Y-98753136D01*
X126704935Y-98757258D01*
X126011498Y-98761146D01*
X125304716Y-98764758D01*
X124595489Y-98768055D01*
X123894716Y-98770995D01*
X123213297Y-98773538D01*
X122562133Y-98775642D01*
X121952123Y-98777268D01*
X121394167Y-98778375D01*
X120899166Y-98778921D01*
X120481167Y-98778870D01*
X119945479Y-98778157D01*
X119487485Y-98776991D01*
X119100214Y-98775187D01*
X118776694Y-98772559D01*
X118509951Y-98768921D01*
X118293016Y-98764086D01*
X118118914Y-98757870D01*
X117980676Y-98750085D01*
X117871327Y-98740546D01*
X117783898Y-98729068D01*
X117711415Y-98715463D01*
X117662432Y-98703692D01*
X117383232Y-98607651D01*
X117183727Y-98484447D01*
X117062513Y-98331236D01*
X117018187Y-98145175D01*
X117049344Y-97923419D01*
X117151636Y-97668978D01*
X117184823Y-97591786D01*
X117244449Y-97440846D01*
X117328316Y-97222087D01*
X117434229Y-96941441D01*
X117559988Y-96604836D01*
X117703398Y-96218201D01*
X117862262Y-95787466D01*
X118034381Y-95318561D01*
X118217560Y-94817415D01*
X118409601Y-94289958D01*
X118608308Y-93742119D01*
X118676669Y-93553167D01*
X119160772Y-92215468D01*
X119674112Y-90799361D01*
X120216710Y-89304787D01*
X120788589Y-87731685D01*
X121389770Y-86079997D01*
X122020274Y-84349662D01*
X122680125Y-82540621D01*
X123369343Y-80652813D01*
X124087950Y-78686181D01*
X124835969Y-76640663D01*
X125613420Y-74516201D01*
X126420326Y-72312734D01*
X127256708Y-70030203D01*
X128122589Y-67668548D01*
X129017990Y-65227710D01*
X129942933Y-62707629D01*
X130430450Y-61379833D01*
X130672887Y-60720384D01*
X130887724Y-60137741D01*
X131076061Y-59629061D01*
X131239001Y-59191496D01*
X131377647Y-58822202D01*
X131493101Y-58518334D01*
X131586464Y-58277045D01*
X131658840Y-58095491D01*
X131711330Y-57970825D01*
X131745037Y-57900202D01*
X131761062Y-57880777D01*
X131760508Y-57909704D01*
G36*
X133901135Y-52052691D02*
X133917675Y-52094619D01*
X133960141Y-52210811D01*
X134026529Y-52395600D01*
X134114836Y-52643323D01*
X134223058Y-52948314D01*
X134349191Y-53304910D01*
X134491233Y-53707445D01*
X134647179Y-54150254D01*
X134815026Y-54627674D01*
X134992771Y-55134038D01*
X135178409Y-55663684D01*
X135187217Y-55688833D01*
X135371737Y-56215664D01*
X135548122Y-56719148D01*
X135717865Y-57203531D01*
X135882463Y-57673057D01*
X136043410Y-58131970D01*
X136202203Y-58584516D01*
X136360335Y-59034937D01*
X136519303Y-59487480D01*
X136680602Y-59946387D01*
X136845726Y-60415904D01*
X137016172Y-60900275D01*
X137193434Y-61403745D01*
X137379008Y-61930557D01*
X137574388Y-62484957D01*
X137781071Y-63071189D01*
X138000551Y-63693497D01*
X138234324Y-64356126D01*
X138483885Y-65063320D01*
X138750728Y-65819323D01*
X139036351Y-66628381D01*
X139342246Y-67494737D01*
X139669911Y-68422636D01*
X140020840Y-69416322D01*
X140396528Y-70480040D01*
X140798471Y-71618035D01*
X140927852Y-71984333D01*
X141619291Y-73942352D01*
X142284854Y-75828010D01*
X142924436Y-77641015D01*
X143537936Y-79381074D01*
X144125252Y-81047894D01*
X144686281Y-82641181D01*
X145220921Y-84160644D01*
X145729069Y-85605989D01*
X146210624Y-86976923D01*
X146665483Y-88273153D01*
X147093544Y-89494387D01*
X147494705Y-90640331D01*
X147868863Y-91710693D01*
X148215915Y-92705179D01*
X148535761Y-93623498D01*
X148828297Y-94465355D01*
X149093420Y-95230458D01*
X149331030Y-95918514D01*
X149541023Y-96529231D01*
X149723298Y-97062314D01*
X149877751Y-97517472D01*
X150004281Y-97894412D01*
X150102785Y-98192840D01*
X150173162Y-98412464D01*
X150215308Y-98552990D01*
X150229122Y-98614126D01*
X150228474Y-98616802D01*
X150178258Y-98625225D01*
X150049115Y-98634722D01*
X149846776Y-98645139D01*
X149576972Y-98656319D01*
X149245435Y-98668110D01*
X148857894Y-98680355D01*
X148420082Y-98692901D01*
X147937728Y-98705593D01*
X147416565Y-98718276D01*
X146862322Y-98730795D01*
X146280731Y-98742995D01*
X145677523Y-98754723D01*
X145058429Y-98765823D01*
X144429180Y-98776141D01*
X144187833Y-98779836D01*
X143652571Y-98787446D01*
X143083217Y-98794764D01*
X142485200Y-98801763D01*
X141863946Y-98808418D01*
X141224885Y-98814702D01*
X140573443Y-98820588D01*
X139915049Y-98826050D01*
X139255130Y-98831062D01*
X138599114Y-98835597D01*
X137952429Y-98839629D01*
X137320503Y-98843132D01*
X136708763Y-98846079D01*
X136122638Y-98848443D01*
X135567555Y-98850199D01*
X135048942Y-98851320D01*
X134572226Y-98851779D01*
X134142836Y-98851550D01*
X133766200Y-98850607D01*
X133447744Y-98848924D01*
X133192898Y-98846473D01*
X133007088Y-98843229D01*
X132895743Y-98839166D01*
X132863667Y-98834897D01*
X132877879Y-98771035D01*
X132918491Y-98636404D01*
X132982461Y-98439620D01*
X133066751Y-98189298D01*
X133168321Y-97894054D01*
X133284131Y-97562504D01*
X133411141Y-97203263D01*
X133546312Y-96824945D01*
X133686604Y-96436168D01*
X133828977Y-96045546D01*
X133970392Y-95661695D01*
X134107808Y-95293229D01*
X134191145Y-95072386D01*
X134639635Y-93777950D01*
X135007783Y-92469739D01*
X135296267Y-91143739D01*
X135505764Y-89795931D01*
X135636953Y-88422301D01*
X135690510Y-87018831D01*
X135686649Y-86208333D01*
X135673194Y-85682375D01*
X135653497Y-85189997D01*
X135626071Y-84721361D01*
X135589428Y-84266626D01*
X135542079Y-83815953D01*
X135482536Y-83359503D01*
X135409312Y-82887436D01*
X135320919Y-82389913D01*
X135215868Y-81857094D01*
X135092671Y-81279139D01*
X134949840Y-80646211D01*
X134785888Y-79948467D01*
X134662313Y-79435000D01*
X134442360Y-78524963D01*
X134242362Y-77690763D01*
X134061010Y-76926283D01*
X133896998Y-76225407D01*
X133749016Y-75582017D01*
X133615759Y-74989997D01*
X133495917Y-74443230D01*
X133388183Y-73935600D01*
X133291250Y-73460989D01*
X133203809Y-73013282D01*
X133124554Y-72586361D01*
X133052175Y-72174111D01*
X132985366Y-71770413D01*
X132922818Y-71369151D01*
X132888350Y-71137667D01*
X132725346Y-69869675D01*
X132597281Y-68537710D01*
X132504175Y-67154926D01*
X132446047Y-65734481D01*
X132422916Y-64289530D01*
X132434804Y-62833229D01*
X132481728Y-61378736D01*
X132563710Y-59939205D01*
X132680768Y-58527794D01*
X132832923Y-57157658D01*
X132867019Y-56893881D01*
X132967778Y-56190543D01*
X133084147Y-55479378D01*
X133213153Y-54774719D01*
X133351826Y-54090896D01*
X133497192Y-53442242D01*
X133646280Y-52843088D01*
X133796118Y-52307767D01*
X133862781Y-52092191D01*
X133889880Y-52050450D01*
X133901135Y-52052691D01*
X133901135Y-52052691D01*
G37*
X133901135Y-52052691D02*
X133917675Y-52094619D01*
X133960141Y-52210811D01*
X134026529Y-52395600D01*
X134114836Y-52643323D01*
X134223058Y-52948314D01*
X134349191Y-53304910D01*
X134491233Y-53707445D01*
X134647179Y-54150254D01*
X134815026Y-54627674D01*
X134992771Y-55134038D01*
X135178409Y-55663684D01*
X135187217Y-55688833D01*
X135371737Y-56215664D01*
X135548122Y-56719148D01*
X135717865Y-57203531D01*
X135882463Y-57673057D01*
X136043410Y-58131970D01*
X136202203Y-58584516D01*
X136360335Y-59034937D01*
X136519303Y-59487480D01*
X136680602Y-59946387D01*
X136845726Y-60415904D01*
X137016172Y-60900275D01*
X137193434Y-61403745D01*
X137379008Y-61930557D01*
X137574388Y-62484957D01*
X137781071Y-63071189D01*
X138000551Y-63693497D01*
X138234324Y-64356126D01*
X138483885Y-65063320D01*
X138750728Y-65819323D01*
X139036351Y-66628381D01*
X139342246Y-67494737D01*
X139669911Y-68422636D01*
X140020840Y-69416322D01*
X140396528Y-70480040D01*
X140798471Y-71618035D01*
X140927852Y-71984333D01*
X141619291Y-73942352D01*
X142284854Y-75828010D01*
X142924436Y-77641015D01*
X143537936Y-79381074D01*
X144125252Y-81047894D01*
X144686281Y-82641181D01*
X145220921Y-84160644D01*
X145729069Y-85605989D01*
X146210624Y-86976923D01*
X146665483Y-88273153D01*
X147093544Y-89494387D01*
X147494705Y-90640331D01*
X147868863Y-91710693D01*
X148215915Y-92705179D01*
X148535761Y-93623498D01*
X148828297Y-94465355D01*
X149093420Y-95230458D01*
X149331030Y-95918514D01*
X149541023Y-96529231D01*
X149723298Y-97062314D01*
X149877751Y-97517472D01*
X150004281Y-97894412D01*
X150102785Y-98192840D01*
X150173162Y-98412464D01*
X150215308Y-98552990D01*
X150229122Y-98614126D01*
X150228474Y-98616802D01*
X150178258Y-98625225D01*
X150049115Y-98634722D01*
X149846776Y-98645139D01*
X149576972Y-98656319D01*
X149245435Y-98668110D01*
X148857894Y-98680355D01*
X148420082Y-98692901D01*
X147937728Y-98705593D01*
X147416565Y-98718276D01*
X146862322Y-98730795D01*
X146280731Y-98742995D01*
X145677523Y-98754723D01*
X145058429Y-98765823D01*
X144429180Y-98776141D01*
X144187833Y-98779836D01*
X143652571Y-98787446D01*
X143083217Y-98794764D01*
X142485200Y-98801763D01*
X141863946Y-98808418D01*
X141224885Y-98814702D01*
X140573443Y-98820588D01*
X139915049Y-98826050D01*
X139255130Y-98831062D01*
X138599114Y-98835597D01*
X137952429Y-98839629D01*
X137320503Y-98843132D01*
X136708763Y-98846079D01*
X136122638Y-98848443D01*
X135567555Y-98850199D01*
X135048942Y-98851320D01*
X134572226Y-98851779D01*
X134142836Y-98851550D01*
X133766200Y-98850607D01*
X133447744Y-98848924D01*
X133192898Y-98846473D01*
X133007088Y-98843229D01*
X132895743Y-98839166D01*
X132863667Y-98834897D01*
X132877879Y-98771035D01*
X132918491Y-98636404D01*
X132982461Y-98439620D01*
X133066751Y-98189298D01*
X133168321Y-97894054D01*
X133284131Y-97562504D01*
X133411141Y-97203263D01*
X133546312Y-96824945D01*
X133686604Y-96436168D01*
X133828977Y-96045546D01*
X133970392Y-95661695D01*
X134107808Y-95293229D01*
X134191145Y-95072386D01*
X134639635Y-93777950D01*
X135007783Y-92469739D01*
X135296267Y-91143739D01*
X135505764Y-89795931D01*
X135636953Y-88422301D01*
X135690510Y-87018831D01*
X135686649Y-86208333D01*
X135673194Y-85682375D01*
X135653497Y-85189997D01*
X135626071Y-84721361D01*
X135589428Y-84266626D01*
X135542079Y-83815953D01*
X135482536Y-83359503D01*
X135409312Y-82887436D01*
X135320919Y-82389913D01*
X135215868Y-81857094D01*
X135092671Y-81279139D01*
X134949840Y-80646211D01*
X134785888Y-79948467D01*
X134662313Y-79435000D01*
X134442360Y-78524963D01*
X134242362Y-77690763D01*
X134061010Y-76926283D01*
X133896998Y-76225407D01*
X133749016Y-75582017D01*
X133615759Y-74989997D01*
X133495917Y-74443230D01*
X133388183Y-73935600D01*
X133291250Y-73460989D01*
X133203809Y-73013282D01*
X133124554Y-72586361D01*
X133052175Y-72174111D01*
X132985366Y-71770413D01*
X132922818Y-71369151D01*
X132888350Y-71137667D01*
X132725346Y-69869675D01*
X132597281Y-68537710D01*
X132504175Y-67154926D01*
X132446047Y-65734481D01*
X132422916Y-64289530D01*
X132434804Y-62833229D01*
X132481728Y-61378736D01*
X132563710Y-59939205D01*
X132680768Y-58527794D01*
X132832923Y-57157658D01*
X132867019Y-56893881D01*
X132967778Y-56190543D01*
X133084147Y-55479378D01*
X133213153Y-54774719D01*
X133351826Y-54090896D01*
X133497192Y-53442242D01*
X133646280Y-52843088D01*
X133796118Y-52307767D01*
X133862781Y-52092191D01*
X133889880Y-52050450D01*
X133901135Y-52052691D01*
G04 #@! TD*
M02*
