G04 #@! TF.GenerationSoftware,KiCad,Pcbnew,5.0.0-fee4fd1~66~ubuntu16.04.1*
G04 #@! TF.CreationDate,2018-10-05T15:26:55+08:00*
G04 #@! TF.ProjectId,corners,636F726E6572732E6B696361645F7063,rev?*
G04 #@! TF.SameCoordinates,Original*
G04 #@! TF.FileFunction,Soldermask,Top*
G04 #@! TF.FilePolarity,Negative*
%FSLAX46Y46*%
G04 Gerber Fmt 4.6, Leading zero omitted, Abs format (unit mm)*
G04 Created by KiCad (PCBNEW 5.0.0-fee4fd1~66~ubuntu16.04.1) date Fri Oct  5 15:26:55 2018*
%MOMM*%
%LPD*%
G01*
G04 APERTURE LIST*
%ADD10C,0.010000*%
%ADD11C,0.900000*%
G04 APERTURE END LIST*
D10*
G04 #@! TO.C,*
G36*
X168908198Y-50429710D02*
X168965095Y-50434783D01*
X169093001Y-50461296D01*
X169163070Y-50495741D01*
X169200643Y-50561844D01*
X169231064Y-50683329D01*
X169231189Y-50683885D01*
X169240379Y-50728736D01*
X169245521Y-50774209D01*
X169244660Y-50827713D01*
X169235842Y-50896656D01*
X169217113Y-50988448D01*
X169186516Y-51110498D01*
X169142099Y-51270214D01*
X169081907Y-51475004D01*
X169003984Y-51732278D01*
X168906376Y-52049445D01*
X168787129Y-52433912D01*
X168670976Y-52807333D01*
X168569078Y-53134306D01*
X168465307Y-53466294D01*
X168358516Y-53806872D01*
X168247560Y-54159616D01*
X168131294Y-54528102D01*
X168008572Y-54915906D01*
X167878249Y-55326603D01*
X167739180Y-55763769D01*
X167590220Y-56230980D01*
X167430223Y-56731811D01*
X167258044Y-57269839D01*
X167072538Y-57848638D01*
X166872559Y-58471786D01*
X166656962Y-59142857D01*
X166424602Y-59865427D01*
X166174333Y-60643072D01*
X165905010Y-61479368D01*
X165615488Y-62377890D01*
X165304622Y-63342214D01*
X164971266Y-64375916D01*
X164614275Y-65482572D01*
X164232503Y-66665757D01*
X164182836Y-66819667D01*
X163957200Y-67518870D01*
X163737014Y-68201183D01*
X163523848Y-68861743D01*
X163319271Y-69495688D01*
X163124853Y-70098155D01*
X162942161Y-70664283D01*
X162772765Y-71189210D01*
X162618234Y-71668073D01*
X162480138Y-72096011D01*
X162360044Y-72468161D01*
X162259523Y-72779661D01*
X162180142Y-73025649D01*
X162123472Y-73201263D01*
X162091081Y-73301641D01*
X162089271Y-73307250D01*
X162027524Y-73488370D01*
X161971143Y-73635303D01*
X161926763Y-73731866D01*
X161902664Y-73762333D01*
X161848992Y-73758128D01*
X161712844Y-73745627D01*
X161495989Y-73725004D01*
X161200192Y-73696432D01*
X160827221Y-73660086D01*
X160378844Y-73616138D01*
X159856826Y-73564763D01*
X159262935Y-73506134D01*
X158598938Y-73440423D01*
X157866602Y-73367806D01*
X157067695Y-73288455D01*
X156274000Y-73209513D01*
X155596071Y-73141501D01*
X154927820Y-73073408D01*
X154276156Y-73005991D01*
X153647990Y-72940006D01*
X153050231Y-72876209D01*
X152489789Y-72815356D01*
X151973576Y-72758202D01*
X151508500Y-72705503D01*
X151101471Y-72658016D01*
X150759401Y-72616496D01*
X150489198Y-72581699D01*
X150330049Y-72559304D01*
X150161316Y-72534751D01*
X150028768Y-72516768D01*
X149951273Y-72507849D01*
X149939003Y-72507615D01*
X149956850Y-72546134D01*
X150016969Y-72646735D01*
X150114078Y-72801452D01*
X150242894Y-73002315D01*
X150398132Y-73241358D01*
X150574512Y-73510615D01*
X150766749Y-73802116D01*
X150969560Y-74107896D01*
X151177662Y-74419986D01*
X151385773Y-74730420D01*
X151588609Y-75031230D01*
X151780888Y-75314449D01*
X151957325Y-75572109D01*
X152112639Y-75796244D01*
X152230672Y-75963667D01*
X153298408Y-77418707D01*
X154433310Y-78886054D01*
X155622673Y-80349915D01*
X156853795Y-81794499D01*
X157594419Y-82631167D01*
X157805649Y-82865949D01*
X158002205Y-83083549D01*
X158175899Y-83274967D01*
X158318539Y-83431208D01*
X158421938Y-83543272D01*
X158477904Y-83602161D01*
X158480633Y-83604833D01*
X158590291Y-83756314D01*
X158639999Y-83946154D01*
X158629981Y-84180863D01*
X158560462Y-84466947D01*
X158514961Y-84600195D01*
X158423573Y-84839018D01*
X158346878Y-85009257D01*
X158277278Y-85124005D01*
X158207173Y-85196355D01*
X158148845Y-85231059D01*
X158051934Y-85266015D01*
X157968432Y-85265294D01*
X157878271Y-85221289D01*
X157761385Y-85126394D01*
X157683741Y-85054750D01*
X157577637Y-84949725D01*
X157423789Y-84790253D01*
X157230468Y-84585381D01*
X157005940Y-84344154D01*
X156758475Y-84075618D01*
X156496339Y-83788819D01*
X156227801Y-83492803D01*
X155961130Y-83196616D01*
X155704593Y-82909303D01*
X155466458Y-82639911D01*
X155255727Y-82398333D01*
X153876185Y-80757315D01*
X152548869Y-79085916D01*
X151280793Y-77393638D01*
X150078975Y-75689983D01*
X148950432Y-73984455D01*
X148421167Y-73142596D01*
X147870833Y-72251567D01*
X147595667Y-72270958D01*
X147415358Y-72275625D01*
X147159850Y-72269370D01*
X146827628Y-72252093D01*
X146417175Y-72223690D01*
X145926978Y-72184062D01*
X145355520Y-72133104D01*
X144886333Y-72088708D01*
X144591494Y-72060411D01*
X144323592Y-72035027D01*
X144094444Y-72013650D01*
X143915865Y-71997373D01*
X143799671Y-71987288D01*
X143758754Y-71984402D01*
X143726192Y-71950595D01*
X143668758Y-71848310D01*
X143585855Y-71676162D01*
X143476888Y-71432768D01*
X143341262Y-71116742D01*
X143178381Y-70726701D01*
X142987649Y-70261261D01*
X142768471Y-69719036D01*
X142559614Y-69197379D01*
X142324877Y-68607339D01*
X142066120Y-67954027D01*
X141786186Y-67244755D01*
X141487913Y-66486833D01*
X141174143Y-65687570D01*
X140847716Y-64854277D01*
X140511472Y-63994265D01*
X140168252Y-63114844D01*
X139820895Y-62223324D01*
X139472243Y-61327016D01*
X139125135Y-60433229D01*
X138782411Y-59549275D01*
X138446914Y-58682464D01*
X138121481Y-57840105D01*
X137808955Y-57029510D01*
X137512175Y-56257988D01*
X137233982Y-55532850D01*
X136977215Y-54861407D01*
X136744716Y-54250968D01*
X136539325Y-53708844D01*
X136461066Y-53501260D01*
X136311348Y-53099671D01*
X136193613Y-52769365D01*
X136108564Y-52502948D01*
X136056904Y-52293026D01*
X136039335Y-52132206D01*
X136056560Y-52013094D01*
X136109283Y-51928297D01*
X136198205Y-51870421D01*
X136324029Y-51832073D01*
X136487459Y-51805858D01*
X136623639Y-51790866D01*
X136857665Y-51770385D01*
X137159898Y-51748734D01*
X137513900Y-51726778D01*
X137903236Y-51705381D01*
X138311470Y-51685405D01*
X138722165Y-51667716D01*
X139118886Y-51653175D01*
X139406437Y-51644619D01*
X139712721Y-51634581D01*
X139946591Y-51621811D01*
X140120283Y-51605125D01*
X140246034Y-51583341D01*
X140336082Y-51555274D01*
X140337770Y-51554571D01*
X140480421Y-51519241D01*
X140668548Y-51504884D01*
X140873485Y-51510117D01*
X141066568Y-51533560D01*
X141219132Y-51573829D01*
X141270824Y-51599555D01*
X141370735Y-51638885D01*
X141516236Y-51647566D01*
X141613944Y-51641238D01*
X141704990Y-51634801D01*
X141875394Y-51624652D01*
X142119943Y-51611045D01*
X142433422Y-51594234D01*
X142810617Y-51574475D01*
X143246313Y-51552022D01*
X143735295Y-51527130D01*
X144272350Y-51500053D01*
X144852262Y-51471047D01*
X145469816Y-51440366D01*
X146119799Y-51408264D01*
X146796997Y-51374997D01*
X147496193Y-51340819D01*
X148212174Y-51305984D01*
X148939726Y-51270748D01*
X149673633Y-51235366D01*
X150408682Y-51200091D01*
X151139658Y-51165179D01*
X151861345Y-51130884D01*
X152568531Y-51097461D01*
X153255999Y-51065165D01*
X153918537Y-51034250D01*
X154550928Y-51004972D01*
X155147959Y-50977584D01*
X155704415Y-50952342D01*
X155871833Y-50944814D01*
X156364244Y-50922710D01*
X156914207Y-50897996D01*
X157497628Y-50871758D01*
X158090413Y-50845078D01*
X158668469Y-50819042D01*
X159207700Y-50794733D01*
X159639500Y-50775247D01*
X160787442Y-50723801D01*
X161864655Y-50676326D01*
X162870135Y-50632859D01*
X163802875Y-50593435D01*
X164661868Y-50558092D01*
X165446108Y-50526867D01*
X166154590Y-50499797D01*
X166786307Y-50476917D01*
X167340252Y-50458265D01*
X167815421Y-50443878D01*
X168210806Y-50433792D01*
X168525401Y-50428045D01*
X168758200Y-50426671D01*
X168908198Y-50429710D01*
X168908198Y-50429710D01*
G37*
X168908198Y-50429710D02*
X168965095Y-50434783D01*
X169093001Y-50461296D01*
X169163070Y-50495741D01*
X169200643Y-50561844D01*
X169231064Y-50683329D01*
X169231189Y-50683885D01*
X169240379Y-50728736D01*
X169245521Y-50774209D01*
X169244660Y-50827713D01*
X169235842Y-50896656D01*
X169217113Y-50988448D01*
X169186516Y-51110498D01*
X169142099Y-51270214D01*
X169081907Y-51475004D01*
X169003984Y-51732278D01*
X168906376Y-52049445D01*
X168787129Y-52433912D01*
X168670976Y-52807333D01*
X168569078Y-53134306D01*
X168465307Y-53466294D01*
X168358516Y-53806872D01*
X168247560Y-54159616D01*
X168131294Y-54528102D01*
X168008572Y-54915906D01*
X167878249Y-55326603D01*
X167739180Y-55763769D01*
X167590220Y-56230980D01*
X167430223Y-56731811D01*
X167258044Y-57269839D01*
X167072538Y-57848638D01*
X166872559Y-58471786D01*
X166656962Y-59142857D01*
X166424602Y-59865427D01*
X166174333Y-60643072D01*
X165905010Y-61479368D01*
X165615488Y-62377890D01*
X165304622Y-63342214D01*
X164971266Y-64375916D01*
X164614275Y-65482572D01*
X164232503Y-66665757D01*
X164182836Y-66819667D01*
X163957200Y-67518870D01*
X163737014Y-68201183D01*
X163523848Y-68861743D01*
X163319271Y-69495688D01*
X163124853Y-70098155D01*
X162942161Y-70664283D01*
X162772765Y-71189210D01*
X162618234Y-71668073D01*
X162480138Y-72096011D01*
X162360044Y-72468161D01*
X162259523Y-72779661D01*
X162180142Y-73025649D01*
X162123472Y-73201263D01*
X162091081Y-73301641D01*
X162089271Y-73307250D01*
X162027524Y-73488370D01*
X161971143Y-73635303D01*
X161926763Y-73731866D01*
X161902664Y-73762333D01*
X161848992Y-73758128D01*
X161712844Y-73745627D01*
X161495989Y-73725004D01*
X161200192Y-73696432D01*
X160827221Y-73660086D01*
X160378844Y-73616138D01*
X159856826Y-73564763D01*
X159262935Y-73506134D01*
X158598938Y-73440423D01*
X157866602Y-73367806D01*
X157067695Y-73288455D01*
X156274000Y-73209513D01*
X155596071Y-73141501D01*
X154927820Y-73073408D01*
X154276156Y-73005991D01*
X153647990Y-72940006D01*
X153050231Y-72876209D01*
X152489789Y-72815356D01*
X151973576Y-72758202D01*
X151508500Y-72705503D01*
X151101471Y-72658016D01*
X150759401Y-72616496D01*
X150489198Y-72581699D01*
X150330049Y-72559304D01*
X150161316Y-72534751D01*
X150028768Y-72516768D01*
X149951273Y-72507849D01*
X149939003Y-72507615D01*
X149956850Y-72546134D01*
X150016969Y-72646735D01*
X150114078Y-72801452D01*
X150242894Y-73002315D01*
X150398132Y-73241358D01*
X150574512Y-73510615D01*
X150766749Y-73802116D01*
X150969560Y-74107896D01*
X151177662Y-74419986D01*
X151385773Y-74730420D01*
X151588609Y-75031230D01*
X151780888Y-75314449D01*
X151957325Y-75572109D01*
X152112639Y-75796244D01*
X152230672Y-75963667D01*
X153298408Y-77418707D01*
X154433310Y-78886054D01*
X155622673Y-80349915D01*
X156853795Y-81794499D01*
X157594419Y-82631167D01*
X157805649Y-82865949D01*
X158002205Y-83083549D01*
X158175899Y-83274967D01*
X158318539Y-83431208D01*
X158421938Y-83543272D01*
X158477904Y-83602161D01*
X158480633Y-83604833D01*
X158590291Y-83756314D01*
X158639999Y-83946154D01*
X158629981Y-84180863D01*
X158560462Y-84466947D01*
X158514961Y-84600195D01*
X158423573Y-84839018D01*
X158346878Y-85009257D01*
X158277278Y-85124005D01*
X158207173Y-85196355D01*
X158148845Y-85231059D01*
X158051934Y-85266015D01*
X157968432Y-85265294D01*
X157878271Y-85221289D01*
X157761385Y-85126394D01*
X157683741Y-85054750D01*
X157577637Y-84949725D01*
X157423789Y-84790253D01*
X157230468Y-84585381D01*
X157005940Y-84344154D01*
X156758475Y-84075618D01*
X156496339Y-83788819D01*
X156227801Y-83492803D01*
X155961130Y-83196616D01*
X155704593Y-82909303D01*
X155466458Y-82639911D01*
X155255727Y-82398333D01*
X153876185Y-80757315D01*
X152548869Y-79085916D01*
X151280793Y-77393638D01*
X150078975Y-75689983D01*
X148950432Y-73984455D01*
X148421167Y-73142596D01*
X147870833Y-72251567D01*
X147595667Y-72270958D01*
X147415358Y-72275625D01*
X147159850Y-72269370D01*
X146827628Y-72252093D01*
X146417175Y-72223690D01*
X145926978Y-72184062D01*
X145355520Y-72133104D01*
X144886333Y-72088708D01*
X144591494Y-72060411D01*
X144323592Y-72035027D01*
X144094444Y-72013650D01*
X143915865Y-71997373D01*
X143799671Y-71987288D01*
X143758754Y-71984402D01*
X143726192Y-71950595D01*
X143668758Y-71848310D01*
X143585855Y-71676162D01*
X143476888Y-71432768D01*
X143341262Y-71116742D01*
X143178381Y-70726701D01*
X142987649Y-70261261D01*
X142768471Y-69719036D01*
X142559614Y-69197379D01*
X142324877Y-68607339D01*
X142066120Y-67954027D01*
X141786186Y-67244755D01*
X141487913Y-66486833D01*
X141174143Y-65687570D01*
X140847716Y-64854277D01*
X140511472Y-63994265D01*
X140168252Y-63114844D01*
X139820895Y-62223324D01*
X139472243Y-61327016D01*
X139125135Y-60433229D01*
X138782411Y-59549275D01*
X138446914Y-58682464D01*
X138121481Y-57840105D01*
X137808955Y-57029510D01*
X137512175Y-56257988D01*
X137233982Y-55532850D01*
X136977215Y-54861407D01*
X136744716Y-54250968D01*
X136539325Y-53708844D01*
X136461066Y-53501260D01*
X136311348Y-53099671D01*
X136193613Y-52769365D01*
X136108564Y-52502948D01*
X136056904Y-52293026D01*
X136039335Y-52132206D01*
X136056560Y-52013094D01*
X136109283Y-51928297D01*
X136198205Y-51870421D01*
X136324029Y-51832073D01*
X136487459Y-51805858D01*
X136623639Y-51790866D01*
X136857665Y-51770385D01*
X137159898Y-51748734D01*
X137513900Y-51726778D01*
X137903236Y-51705381D01*
X138311470Y-51685405D01*
X138722165Y-51667716D01*
X139118886Y-51653175D01*
X139406437Y-51644619D01*
X139712721Y-51634581D01*
X139946591Y-51621811D01*
X140120283Y-51605125D01*
X140246034Y-51583341D01*
X140336082Y-51555274D01*
X140337770Y-51554571D01*
X140480421Y-51519241D01*
X140668548Y-51504884D01*
X140873485Y-51510117D01*
X141066568Y-51533560D01*
X141219132Y-51573829D01*
X141270824Y-51599555D01*
X141370735Y-51638885D01*
X141516236Y-51647566D01*
X141613944Y-51641238D01*
X141704990Y-51634801D01*
X141875394Y-51624652D01*
X142119943Y-51611045D01*
X142433422Y-51594234D01*
X142810617Y-51574475D01*
X143246313Y-51552022D01*
X143735295Y-51527130D01*
X144272350Y-51500053D01*
X144852262Y-51471047D01*
X145469816Y-51440366D01*
X146119799Y-51408264D01*
X146796997Y-51374997D01*
X147496193Y-51340819D01*
X148212174Y-51305984D01*
X148939726Y-51270748D01*
X149673633Y-51235366D01*
X150408682Y-51200091D01*
X151139658Y-51165179D01*
X151861345Y-51130884D01*
X152568531Y-51097461D01*
X153255999Y-51065165D01*
X153918537Y-51034250D01*
X154550928Y-51004972D01*
X155147959Y-50977584D01*
X155704415Y-50952342D01*
X155871833Y-50944814D01*
X156364244Y-50922710D01*
X156914207Y-50897996D01*
X157497628Y-50871758D01*
X158090413Y-50845078D01*
X158668469Y-50819042D01*
X159207700Y-50794733D01*
X159639500Y-50775247D01*
X160787442Y-50723801D01*
X161864655Y-50676326D01*
X162870135Y-50632859D01*
X163802875Y-50593435D01*
X164661868Y-50558092D01*
X165446108Y-50526867D01*
X166154590Y-50499797D01*
X166786307Y-50476917D01*
X167340252Y-50458265D01*
X167815421Y-50443878D01*
X168210806Y-50433792D01*
X168525401Y-50428045D01*
X168758200Y-50426671D01*
X168908198Y-50429710D01*
G36*
X129299166Y-51423386D02*
X129418401Y-51430597D01*
X129595243Y-51451476D01*
X129711379Y-51478988D01*
X129790763Y-51520937D01*
X129842712Y-51568844D01*
X129910858Y-51659007D01*
X129942405Y-51733537D01*
X129942667Y-51738281D01*
X129941052Y-51764380D01*
X129935596Y-51800368D01*
X129925381Y-51849009D01*
X129909487Y-51913066D01*
X129886997Y-51995303D01*
X129856993Y-52098484D01*
X129818555Y-52225373D01*
X129770765Y-52378732D01*
X129712705Y-52561327D01*
X129643457Y-52775920D01*
X129562102Y-53025275D01*
X129467722Y-53312156D01*
X129359398Y-53639327D01*
X129236211Y-54009551D01*
X129097245Y-54425592D01*
X128941580Y-54890213D01*
X128768297Y-55406179D01*
X128576479Y-55976253D01*
X128365206Y-56603199D01*
X128133561Y-57289780D01*
X127880626Y-58038761D01*
X127605481Y-58852904D01*
X127307208Y-59734974D01*
X126984890Y-60687734D01*
X126637607Y-61713948D01*
X126264441Y-62816379D01*
X126094474Y-63318441D01*
X125847193Y-64049086D01*
X125607354Y-64758188D01*
X125376359Y-65441582D01*
X125155609Y-66095106D01*
X124946506Y-66714594D01*
X124750451Y-67295882D01*
X124568847Y-67834808D01*
X124403095Y-68327205D01*
X124254597Y-68768911D01*
X124124754Y-69155760D01*
X124014967Y-69483590D01*
X123926640Y-69748235D01*
X123861173Y-69945532D01*
X123819967Y-70071317D01*
X123804426Y-70121425D01*
X123804333Y-70122052D01*
X123772745Y-70193434D01*
X123693938Y-70287792D01*
X123591851Y-70382222D01*
X123490422Y-70453817D01*
X123432142Y-70478184D01*
X123336935Y-70491778D01*
X123163815Y-70509827D01*
X122919396Y-70531893D01*
X122610289Y-70557536D01*
X122243109Y-70586319D01*
X121824467Y-70617801D01*
X121360977Y-70651544D01*
X120859250Y-70687110D01*
X120325901Y-70724059D01*
X119767541Y-70761953D01*
X119190783Y-70800352D01*
X118602241Y-70838819D01*
X118008526Y-70876913D01*
X117416251Y-70914197D01*
X116832030Y-70950231D01*
X116262475Y-70984577D01*
X115714199Y-71016796D01*
X115193814Y-71046449D01*
X114707933Y-71073096D01*
X114263169Y-71096300D01*
X113866135Y-71115622D01*
X113740456Y-71121351D01*
X113487799Y-71133923D01*
X113307755Y-71146640D01*
X113188288Y-71161250D01*
X113117359Y-71179504D01*
X113082933Y-71203150D01*
X113075511Y-71217987D01*
X113005743Y-71457994D01*
X112916138Y-71776430D01*
X112807667Y-72169654D01*
X112681301Y-72634027D01*
X112538013Y-73165907D01*
X112378775Y-73761654D01*
X112204558Y-74417628D01*
X112016334Y-75130189D01*
X111815075Y-75895695D01*
X111601753Y-76710507D01*
X111377340Y-77570983D01*
X111294388Y-77889833D01*
X111026559Y-78916442D01*
X110776932Y-79865894D01*
X110544101Y-80743399D01*
X110326658Y-81554166D01*
X110123198Y-82303404D01*
X109932314Y-82996321D01*
X109752600Y-83638126D01*
X109582649Y-84234028D01*
X109562661Y-84303333D01*
X109470078Y-84619898D01*
X109395354Y-84864679D01*
X109334781Y-85047764D01*
X109284651Y-85179242D01*
X109241257Y-85269204D01*
X109200891Y-85327738D01*
X109177612Y-85351083D01*
X109042781Y-85426178D01*
X108897751Y-85442702D01*
X108773825Y-85397414D01*
X108768679Y-85393417D01*
X108727006Y-85333869D01*
X108663795Y-85212705D01*
X108586705Y-85047777D01*
X108503400Y-84856941D01*
X108421538Y-84658051D01*
X108348783Y-84468962D01*
X108292793Y-84307529D01*
X108271001Y-84233532D01*
X108217190Y-84019604D01*
X108186202Y-83853725D01*
X108178649Y-83709696D01*
X108195143Y-83561320D01*
X108236295Y-83382399D01*
X108295829Y-83170469D01*
X108423631Y-82724054D01*
X108570381Y-82201436D01*
X108734473Y-81608546D01*
X108914301Y-80951315D01*
X109108257Y-80235674D01*
X109314735Y-79467553D01*
X109532130Y-78652884D01*
X109758833Y-77797598D01*
X109993240Y-76907624D01*
X110024332Y-76789167D01*
X110163644Y-76258755D01*
X110305157Y-75721027D01*
X110446084Y-75186507D01*
X110583639Y-74665721D01*
X110715035Y-74169193D01*
X110837486Y-73707447D01*
X110948206Y-73291007D01*
X111044407Y-72930399D01*
X111123304Y-72636146D01*
X111154094Y-72521993D01*
X111237826Y-72209223D01*
X111312726Y-71923314D01*
X111376290Y-71674319D01*
X111426014Y-71472295D01*
X111459394Y-71327294D01*
X111473925Y-71249372D01*
X111473663Y-71238886D01*
X111427002Y-71235438D01*
X111308210Y-71237714D01*
X111129591Y-71245160D01*
X110903447Y-71257222D01*
X110642082Y-71273345D01*
X110505615Y-71282509D01*
X110045961Y-71313390D01*
X109594868Y-71341946D01*
X109138481Y-71368920D01*
X108662944Y-71395053D01*
X108154401Y-71421087D01*
X107598997Y-71447763D01*
X106982876Y-71475823D01*
X106490000Y-71497469D01*
X105840642Y-71523796D01*
X105275210Y-71542809D01*
X104793281Y-71554512D01*
X104394432Y-71558906D01*
X104078238Y-71555994D01*
X103844276Y-71545778D01*
X103692124Y-71528260D01*
X103635876Y-71512502D01*
X103557261Y-71447856D01*
X103475988Y-71319384D01*
X103402040Y-71157988D01*
X103333116Y-70988319D01*
X103235841Y-70742521D01*
X103111431Y-70423802D01*
X102961105Y-70035369D01*
X102786080Y-69580429D01*
X102587574Y-69062188D01*
X102366803Y-68483855D01*
X102124986Y-67848635D01*
X101863340Y-67159737D01*
X101583083Y-66420367D01*
X101285432Y-65633732D01*
X100971604Y-64803040D01*
X100642818Y-63931497D01*
X100300290Y-63022310D01*
X99945239Y-62078687D01*
X99578881Y-61103835D01*
X99202434Y-60100960D01*
X99040361Y-59668837D01*
X98721875Y-58819311D01*
X98431861Y-58045304D01*
X98168975Y-57343092D01*
X97931871Y-56708951D01*
X97719205Y-56139156D01*
X97529633Y-55629985D01*
X97361810Y-55177713D01*
X97214392Y-54778615D01*
X97086033Y-54428969D01*
X96975389Y-54125050D01*
X96881115Y-53863135D01*
X96801867Y-53639499D01*
X96736300Y-53450418D01*
X96683070Y-53292168D01*
X96640832Y-53161026D01*
X96608241Y-53053268D01*
X96583952Y-52965169D01*
X96566621Y-52893006D01*
X96554904Y-52833055D01*
X96547455Y-52781591D01*
X96544893Y-52757686D01*
X96517822Y-52475205D01*
X96751994Y-52407817D01*
X96832430Y-52389844D01*
X96947278Y-52373364D01*
X97103483Y-52357950D01*
X97307986Y-52343178D01*
X97567731Y-52328620D01*
X97889660Y-52313851D01*
X98280716Y-52298446D01*
X98747842Y-52281977D01*
X98870000Y-52277887D01*
X99334267Y-52262731D01*
X99876919Y-52245470D01*
X100491706Y-52226283D01*
X101172378Y-52205350D01*
X101912684Y-52182849D01*
X102706374Y-52158962D01*
X103547197Y-52133866D01*
X104428904Y-52107742D01*
X105345243Y-52080769D01*
X106289964Y-52053126D01*
X107256817Y-52024993D01*
X108239552Y-51996550D01*
X109231918Y-51967977D01*
X110227664Y-51939451D01*
X111220541Y-51911154D01*
X112204298Y-51883264D01*
X113172684Y-51855961D01*
X114119449Y-51829425D01*
X115038343Y-51803835D01*
X115923115Y-51779370D01*
X116767515Y-51756210D01*
X117565293Y-51734535D01*
X118310197Y-51714524D01*
X118995979Y-51696356D01*
X119616386Y-51680211D01*
X120165170Y-51666269D01*
X120184833Y-51665777D01*
X120585961Y-51655599D01*
X120986601Y-51645142D01*
X121372827Y-51634791D01*
X121730712Y-51624931D01*
X122046329Y-51615945D01*
X122305751Y-51608216D01*
X122495052Y-51602130D01*
X122501348Y-51601913D01*
X122809532Y-51595305D01*
X123037170Y-51599526D01*
X123182915Y-51614527D01*
X123228062Y-51627529D01*
X123317928Y-51650928D01*
X123428632Y-51637599D01*
X123533172Y-51606017D01*
X123675624Y-51574169D01*
X123875200Y-51551467D01*
X124110625Y-51538007D01*
X124360623Y-51533884D01*
X124603918Y-51539195D01*
X124819236Y-51554034D01*
X124985300Y-51578498D01*
X125055726Y-51599174D01*
X125184021Y-51636010D01*
X125327526Y-51635938D01*
X125424783Y-51621595D01*
X125605490Y-51595927D01*
X125855739Y-51569833D01*
X126162423Y-51543940D01*
X126512431Y-51518874D01*
X126892656Y-51495264D01*
X127289989Y-51473735D01*
X127691321Y-51454915D01*
X128083544Y-51439430D01*
X128453548Y-51427908D01*
X128788226Y-51420975D01*
X129074468Y-51419259D01*
X129299166Y-51423386D01*
X129299166Y-51423386D01*
G37*
X129299166Y-51423386D02*
X129418401Y-51430597D01*
X129595243Y-51451476D01*
X129711379Y-51478988D01*
X129790763Y-51520937D01*
X129842712Y-51568844D01*
X129910858Y-51659007D01*
X129942405Y-51733537D01*
X129942667Y-51738281D01*
X129941052Y-51764380D01*
X129935596Y-51800368D01*
X129925381Y-51849009D01*
X129909487Y-51913066D01*
X129886997Y-51995303D01*
X129856993Y-52098484D01*
X129818555Y-52225373D01*
X129770765Y-52378732D01*
X129712705Y-52561327D01*
X129643457Y-52775920D01*
X129562102Y-53025275D01*
X129467722Y-53312156D01*
X129359398Y-53639327D01*
X129236211Y-54009551D01*
X129097245Y-54425592D01*
X128941580Y-54890213D01*
X128768297Y-55406179D01*
X128576479Y-55976253D01*
X128365206Y-56603199D01*
X128133561Y-57289780D01*
X127880626Y-58038761D01*
X127605481Y-58852904D01*
X127307208Y-59734974D01*
X126984890Y-60687734D01*
X126637607Y-61713948D01*
X126264441Y-62816379D01*
X126094474Y-63318441D01*
X125847193Y-64049086D01*
X125607354Y-64758188D01*
X125376359Y-65441582D01*
X125155609Y-66095106D01*
X124946506Y-66714594D01*
X124750451Y-67295882D01*
X124568847Y-67834808D01*
X124403095Y-68327205D01*
X124254597Y-68768911D01*
X124124754Y-69155760D01*
X124014967Y-69483590D01*
X123926640Y-69748235D01*
X123861173Y-69945532D01*
X123819967Y-70071317D01*
X123804426Y-70121425D01*
X123804333Y-70122052D01*
X123772745Y-70193434D01*
X123693938Y-70287792D01*
X123591851Y-70382222D01*
X123490422Y-70453817D01*
X123432142Y-70478184D01*
X123336935Y-70491778D01*
X123163815Y-70509827D01*
X122919396Y-70531893D01*
X122610289Y-70557536D01*
X122243109Y-70586319D01*
X121824467Y-70617801D01*
X121360977Y-70651544D01*
X120859250Y-70687110D01*
X120325901Y-70724059D01*
X119767541Y-70761953D01*
X119190783Y-70800352D01*
X118602241Y-70838819D01*
X118008526Y-70876913D01*
X117416251Y-70914197D01*
X116832030Y-70950231D01*
X116262475Y-70984577D01*
X115714199Y-71016796D01*
X115193814Y-71046449D01*
X114707933Y-71073096D01*
X114263169Y-71096300D01*
X113866135Y-71115622D01*
X113740456Y-71121351D01*
X113487799Y-71133923D01*
X113307755Y-71146640D01*
X113188288Y-71161250D01*
X113117359Y-71179504D01*
X113082933Y-71203150D01*
X113075511Y-71217987D01*
X113005743Y-71457994D01*
X112916138Y-71776430D01*
X112807667Y-72169654D01*
X112681301Y-72634027D01*
X112538013Y-73165907D01*
X112378775Y-73761654D01*
X112204558Y-74417628D01*
X112016334Y-75130189D01*
X111815075Y-75895695D01*
X111601753Y-76710507D01*
X111377340Y-77570983D01*
X111294388Y-77889833D01*
X111026559Y-78916442D01*
X110776932Y-79865894D01*
X110544101Y-80743399D01*
X110326658Y-81554166D01*
X110123198Y-82303404D01*
X109932314Y-82996321D01*
X109752600Y-83638126D01*
X109582649Y-84234028D01*
X109562661Y-84303333D01*
X109470078Y-84619898D01*
X109395354Y-84864679D01*
X109334781Y-85047764D01*
X109284651Y-85179242D01*
X109241257Y-85269204D01*
X109200891Y-85327738D01*
X109177612Y-85351083D01*
X109042781Y-85426178D01*
X108897751Y-85442702D01*
X108773825Y-85397414D01*
X108768679Y-85393417D01*
X108727006Y-85333869D01*
X108663795Y-85212705D01*
X108586705Y-85047777D01*
X108503400Y-84856941D01*
X108421538Y-84658051D01*
X108348783Y-84468962D01*
X108292793Y-84307529D01*
X108271001Y-84233532D01*
X108217190Y-84019604D01*
X108186202Y-83853725D01*
X108178649Y-83709696D01*
X108195143Y-83561320D01*
X108236295Y-83382399D01*
X108295829Y-83170469D01*
X108423631Y-82724054D01*
X108570381Y-82201436D01*
X108734473Y-81608546D01*
X108914301Y-80951315D01*
X109108257Y-80235674D01*
X109314735Y-79467553D01*
X109532130Y-78652884D01*
X109758833Y-77797598D01*
X109993240Y-76907624D01*
X110024332Y-76789167D01*
X110163644Y-76258755D01*
X110305157Y-75721027D01*
X110446084Y-75186507D01*
X110583639Y-74665721D01*
X110715035Y-74169193D01*
X110837486Y-73707447D01*
X110948206Y-73291007D01*
X111044407Y-72930399D01*
X111123304Y-72636146D01*
X111154094Y-72521993D01*
X111237826Y-72209223D01*
X111312726Y-71923314D01*
X111376290Y-71674319D01*
X111426014Y-71472295D01*
X111459394Y-71327294D01*
X111473925Y-71249372D01*
X111473663Y-71238886D01*
X111427002Y-71235438D01*
X111308210Y-71237714D01*
X111129591Y-71245160D01*
X110903447Y-71257222D01*
X110642082Y-71273345D01*
X110505615Y-71282509D01*
X110045961Y-71313390D01*
X109594868Y-71341946D01*
X109138481Y-71368920D01*
X108662944Y-71395053D01*
X108154401Y-71421087D01*
X107598997Y-71447763D01*
X106982876Y-71475823D01*
X106490000Y-71497469D01*
X105840642Y-71523796D01*
X105275210Y-71542809D01*
X104793281Y-71554512D01*
X104394432Y-71558906D01*
X104078238Y-71555994D01*
X103844276Y-71545778D01*
X103692124Y-71528260D01*
X103635876Y-71512502D01*
X103557261Y-71447856D01*
X103475988Y-71319384D01*
X103402040Y-71157988D01*
X103333116Y-70988319D01*
X103235841Y-70742521D01*
X103111431Y-70423802D01*
X102961105Y-70035369D01*
X102786080Y-69580429D01*
X102587574Y-69062188D01*
X102366803Y-68483855D01*
X102124986Y-67848635D01*
X101863340Y-67159737D01*
X101583083Y-66420367D01*
X101285432Y-65633732D01*
X100971604Y-64803040D01*
X100642818Y-63931497D01*
X100300290Y-63022310D01*
X99945239Y-62078687D01*
X99578881Y-61103835D01*
X99202434Y-60100960D01*
X99040361Y-59668837D01*
X98721875Y-58819311D01*
X98431861Y-58045304D01*
X98168975Y-57343092D01*
X97931871Y-56708951D01*
X97719205Y-56139156D01*
X97529633Y-55629985D01*
X97361810Y-55177713D01*
X97214392Y-54778615D01*
X97086033Y-54428969D01*
X96975389Y-54125050D01*
X96881115Y-53863135D01*
X96801867Y-53639499D01*
X96736300Y-53450418D01*
X96683070Y-53292168D01*
X96640832Y-53161026D01*
X96608241Y-53053268D01*
X96583952Y-52965169D01*
X96566621Y-52893006D01*
X96554904Y-52833055D01*
X96547455Y-52781591D01*
X96544893Y-52757686D01*
X96517822Y-52475205D01*
X96751994Y-52407817D01*
X96832430Y-52389844D01*
X96947278Y-52373364D01*
X97103483Y-52357950D01*
X97307986Y-52343178D01*
X97567731Y-52328620D01*
X97889660Y-52313851D01*
X98280716Y-52298446D01*
X98747842Y-52281977D01*
X98870000Y-52277887D01*
X99334267Y-52262731D01*
X99876919Y-52245470D01*
X100491706Y-52226283D01*
X101172378Y-52205350D01*
X101912684Y-52182849D01*
X102706374Y-52158962D01*
X103547197Y-52133866D01*
X104428904Y-52107742D01*
X105345243Y-52080769D01*
X106289964Y-52053126D01*
X107256817Y-52024993D01*
X108239552Y-51996550D01*
X109231918Y-51967977D01*
X110227664Y-51939451D01*
X111220541Y-51911154D01*
X112204298Y-51883264D01*
X113172684Y-51855961D01*
X114119449Y-51829425D01*
X115038343Y-51803835D01*
X115923115Y-51779370D01*
X116767515Y-51756210D01*
X117565293Y-51734535D01*
X118310197Y-51714524D01*
X118995979Y-51696356D01*
X119616386Y-51680211D01*
X120165170Y-51666269D01*
X120184833Y-51665777D01*
X120585961Y-51655599D01*
X120986601Y-51645142D01*
X121372827Y-51634791D01*
X121730712Y-51624931D01*
X122046329Y-51615945D01*
X122305751Y-51608216D01*
X122495052Y-51602130D01*
X122501348Y-51601913D01*
X122809532Y-51595305D01*
X123037170Y-51599526D01*
X123182915Y-51614527D01*
X123228062Y-51627529D01*
X123317928Y-51650928D01*
X123428632Y-51637599D01*
X123533172Y-51606017D01*
X123675624Y-51574169D01*
X123875200Y-51551467D01*
X124110625Y-51538007D01*
X124360623Y-51533884D01*
X124603918Y-51539195D01*
X124819236Y-51554034D01*
X124985300Y-51578498D01*
X125055726Y-51599174D01*
X125184021Y-51636010D01*
X125327526Y-51635938D01*
X125424783Y-51621595D01*
X125605490Y-51595927D01*
X125855739Y-51569833D01*
X126162423Y-51543940D01*
X126512431Y-51518874D01*
X126892656Y-51495264D01*
X127289989Y-51473735D01*
X127691321Y-51454915D01*
X128083544Y-51439430D01*
X128453548Y-51427908D01*
X128788226Y-51420975D01*
X129074468Y-51419259D01*
X129299166Y-51423386D01*
G36*
X180357897Y-71420021D02*
X180486279Y-71475435D01*
X180592483Y-71576076D01*
X180687178Y-71723339D01*
X180723690Y-71794519D01*
X180791963Y-71974518D01*
X180833396Y-72167584D01*
X180846340Y-72350887D01*
X180829150Y-72501596D01*
X180781472Y-72595673D01*
X180723828Y-72629222D01*
X180601191Y-72686894D01*
X180427635Y-72762526D01*
X180217233Y-72849957D01*
X180023000Y-72927741D01*
X179580728Y-73104766D01*
X179159383Y-73279843D01*
X178744033Y-73459759D01*
X178319743Y-73651303D01*
X177871581Y-73861264D01*
X177384614Y-74096431D01*
X176843907Y-74363593D01*
X176636333Y-74467351D01*
X176311335Y-74631653D01*
X175964114Y-74809741D01*
X175604281Y-74996470D01*
X175241447Y-75186699D01*
X174885224Y-75375283D01*
X174545222Y-75557079D01*
X174231053Y-75726944D01*
X173952328Y-75879735D01*
X173718658Y-76010309D01*
X173539653Y-76113522D01*
X173424926Y-76184231D01*
X173413198Y-76192170D01*
X173406356Y-76209914D01*
X173426947Y-76239677D01*
X173480594Y-76285020D01*
X173572924Y-76349505D01*
X173709561Y-76436694D01*
X173896131Y-76550149D01*
X174138259Y-76693430D01*
X174441570Y-76870101D01*
X174811690Y-77083722D01*
X174916031Y-77143728D01*
X175171468Y-77290525D01*
X175493028Y-77475286D01*
X175873409Y-77693817D01*
X176305309Y-77941924D01*
X176781428Y-78215414D01*
X177294463Y-78510093D01*
X177837112Y-78821766D01*
X178402074Y-79146241D01*
X178982048Y-79479323D01*
X179569731Y-79816818D01*
X180157823Y-80154532D01*
X180620296Y-80420098D01*
X184752426Y-82792847D01*
X186014372Y-86225673D01*
X186408542Y-87298210D01*
X186774370Y-88294328D01*
X187112896Y-89217013D01*
X187425160Y-90069248D01*
X187712204Y-90854021D01*
X187975068Y-91574315D01*
X188214794Y-92233117D01*
X188432421Y-92833411D01*
X188628991Y-93378182D01*
X188805544Y-93870417D01*
X188963122Y-94313100D01*
X189102765Y-94709216D01*
X189225514Y-95061751D01*
X189332409Y-95373690D01*
X189424492Y-95648018D01*
X189502803Y-95887721D01*
X189568383Y-96095783D01*
X189622273Y-96275191D01*
X189665514Y-96428928D01*
X189699145Y-96559981D01*
X189724210Y-96671335D01*
X189741747Y-96765975D01*
X189752798Y-96846886D01*
X189758403Y-96917053D01*
X189759667Y-96968121D01*
X189750102Y-97112922D01*
X189712178Y-97212909D01*
X189641648Y-97297198D01*
X189523629Y-97415217D01*
X188678564Y-97443011D01*
X188347794Y-97453195D01*
X187933627Y-97464743D01*
X187437322Y-97477628D01*
X186860137Y-97491824D01*
X186203330Y-97507308D01*
X185468161Y-97524051D01*
X184655887Y-97542030D01*
X183767767Y-97561217D01*
X182805060Y-97581588D01*
X181769024Y-97603117D01*
X180660918Y-97625778D01*
X179482000Y-97649544D01*
X178233528Y-97674392D01*
X176916761Y-97700294D01*
X175532957Y-97727225D01*
X174083376Y-97755160D01*
X172569275Y-97784072D01*
X170991913Y-97813937D01*
X169352548Y-97844727D01*
X167652440Y-97876418D01*
X165892845Y-97908984D01*
X165672000Y-97913056D01*
X164644599Y-97932054D01*
X163698501Y-97949649D01*
X162830355Y-97965850D01*
X162036809Y-97980665D01*
X161314512Y-97994104D01*
X160660112Y-98006177D01*
X160070257Y-98016892D01*
X159541597Y-98026259D01*
X159070779Y-98034288D01*
X158654453Y-98040986D01*
X158289265Y-98046364D01*
X157971866Y-98050431D01*
X157698903Y-98053196D01*
X157467025Y-98054668D01*
X157272880Y-98054856D01*
X157113117Y-98053770D01*
X156984384Y-98051420D01*
X156883329Y-98047813D01*
X156806602Y-98042960D01*
X156750850Y-98036870D01*
X156712723Y-98029551D01*
X156688867Y-98021014D01*
X156675933Y-98011267D01*
X156670568Y-98000319D01*
X156669421Y-97988181D01*
X156669140Y-97974861D01*
X156666374Y-97960368D01*
X156657771Y-97944712D01*
X156651743Y-97937923D01*
X156550804Y-97794934D01*
X156528000Y-97688590D01*
X156537043Y-97637692D01*
X156564554Y-97535644D01*
X156611105Y-97380772D01*
X156677268Y-97171401D01*
X156763617Y-96905858D01*
X156870722Y-96582470D01*
X156999157Y-96199561D01*
X157149494Y-95755460D01*
X157322306Y-95248490D01*
X157518164Y-94676980D01*
X157737641Y-94039255D01*
X157981310Y-93333641D01*
X158249743Y-92558464D01*
X158543511Y-91712051D01*
X158863189Y-90792728D01*
X159209347Y-89798820D01*
X159582558Y-88728655D01*
X159983395Y-87580558D01*
X160033893Y-87436000D01*
X160281782Y-86726621D01*
X160503576Y-86092456D01*
X160700989Y-85528747D01*
X160875738Y-85030740D01*
X161029536Y-84593679D01*
X161164099Y-84212807D01*
X161281143Y-83883369D01*
X161382381Y-83600608D01*
X161469529Y-83359770D01*
X161544303Y-83156098D01*
X161608417Y-82984836D01*
X161663586Y-82841229D01*
X161711525Y-82720520D01*
X161753949Y-82617954D01*
X161792574Y-82528775D01*
X161829114Y-82448227D01*
X161844235Y-82415861D01*
X161939814Y-82203316D01*
X161999180Y-82044141D01*
X162028516Y-81918421D01*
X162034006Y-81806238D01*
X162033946Y-81804745D01*
X162040079Y-81654581D01*
X162065049Y-81516919D01*
X162074800Y-81487245D01*
X162113990Y-81376007D01*
X162137257Y-81293512D01*
X162155395Y-81235120D01*
X162198385Y-81109925D01*
X162261753Y-80930547D01*
X162341025Y-80709611D01*
X162431726Y-80459737D01*
X162467396Y-80362179D01*
X162541515Y-80158455D01*
X162626803Y-79921322D01*
X162724583Y-79646985D01*
X162836179Y-79331655D01*
X162962915Y-78971538D01*
X163106113Y-78562842D01*
X163267098Y-78101774D01*
X163447193Y-77584543D01*
X163647720Y-77007357D01*
X163870005Y-76366422D01*
X164115369Y-75657947D01*
X164385138Y-74878140D01*
X164680633Y-74023208D01*
X164777446Y-73742972D01*
X164911860Y-73356073D01*
X165039060Y-72994190D01*
X165156211Y-72665098D01*
X165260473Y-72376571D01*
X165349010Y-72136383D01*
X165418984Y-71952308D01*
X165467558Y-71832122D01*
X165491894Y-71783598D01*
X165492795Y-71783012D01*
X165535974Y-71801088D01*
X165646335Y-71858055D01*
X165817730Y-71950482D01*
X166044011Y-72074940D01*
X166319030Y-72228001D01*
X166636637Y-72406234D01*
X166990684Y-72606210D01*
X167375024Y-72824499D01*
X167783506Y-73057673D01*
X167985295Y-73173272D01*
X168584238Y-73516753D01*
X169114023Y-73820624D01*
X169578886Y-74087490D01*
X169983061Y-74319954D01*
X170330784Y-74520619D01*
X170626289Y-74692090D01*
X170873813Y-74836969D01*
X171077590Y-74957861D01*
X171241854Y-75057370D01*
X171370842Y-75138099D01*
X171468789Y-75202651D01*
X171539929Y-75253630D01*
X171588497Y-75293640D01*
X171618730Y-75325285D01*
X171634861Y-75351168D01*
X171641127Y-75373893D01*
X171641761Y-75396064D01*
X171641000Y-75420283D01*
X171641000Y-75420712D01*
X171652234Y-75485492D01*
X171665623Y-75498000D01*
X171708199Y-75478384D01*
X171813902Y-75423422D01*
X171971878Y-75338943D01*
X172171273Y-75230776D01*
X172401234Y-75104748D01*
X172522873Y-75037639D01*
X173385721Y-74562925D01*
X174181382Y-74130258D01*
X174914722Y-73737225D01*
X175590610Y-73381411D01*
X176213911Y-73060404D01*
X176789492Y-72771790D01*
X177322221Y-72513155D01*
X177816963Y-72282087D01*
X178278587Y-72076171D01*
X178711958Y-71892994D01*
X179121944Y-71730143D01*
X179409167Y-71622745D01*
X179732970Y-71511196D01*
X179991913Y-71439295D01*
X180196665Y-71408439D01*
X180357897Y-71420021D01*
X180357897Y-71420021D01*
G37*
X180357897Y-71420021D02*
X180486279Y-71475435D01*
X180592483Y-71576076D01*
X180687178Y-71723339D01*
X180723690Y-71794519D01*
X180791963Y-71974518D01*
X180833396Y-72167584D01*
X180846340Y-72350887D01*
X180829150Y-72501596D01*
X180781472Y-72595673D01*
X180723828Y-72629222D01*
X180601191Y-72686894D01*
X180427635Y-72762526D01*
X180217233Y-72849957D01*
X180023000Y-72927741D01*
X179580728Y-73104766D01*
X179159383Y-73279843D01*
X178744033Y-73459759D01*
X178319743Y-73651303D01*
X177871581Y-73861264D01*
X177384614Y-74096431D01*
X176843907Y-74363593D01*
X176636333Y-74467351D01*
X176311335Y-74631653D01*
X175964114Y-74809741D01*
X175604281Y-74996470D01*
X175241447Y-75186699D01*
X174885224Y-75375283D01*
X174545222Y-75557079D01*
X174231053Y-75726944D01*
X173952328Y-75879735D01*
X173718658Y-76010309D01*
X173539653Y-76113522D01*
X173424926Y-76184231D01*
X173413198Y-76192170D01*
X173406356Y-76209914D01*
X173426947Y-76239677D01*
X173480594Y-76285020D01*
X173572924Y-76349505D01*
X173709561Y-76436694D01*
X173896131Y-76550149D01*
X174138259Y-76693430D01*
X174441570Y-76870101D01*
X174811690Y-77083722D01*
X174916031Y-77143728D01*
X175171468Y-77290525D01*
X175493028Y-77475286D01*
X175873409Y-77693817D01*
X176305309Y-77941924D01*
X176781428Y-78215414D01*
X177294463Y-78510093D01*
X177837112Y-78821766D01*
X178402074Y-79146241D01*
X178982048Y-79479323D01*
X179569731Y-79816818D01*
X180157823Y-80154532D01*
X180620296Y-80420098D01*
X184752426Y-82792847D01*
X186014372Y-86225673D01*
X186408542Y-87298210D01*
X186774370Y-88294328D01*
X187112896Y-89217013D01*
X187425160Y-90069248D01*
X187712204Y-90854021D01*
X187975068Y-91574315D01*
X188214794Y-92233117D01*
X188432421Y-92833411D01*
X188628991Y-93378182D01*
X188805544Y-93870417D01*
X188963122Y-94313100D01*
X189102765Y-94709216D01*
X189225514Y-95061751D01*
X189332409Y-95373690D01*
X189424492Y-95648018D01*
X189502803Y-95887721D01*
X189568383Y-96095783D01*
X189622273Y-96275191D01*
X189665514Y-96428928D01*
X189699145Y-96559981D01*
X189724210Y-96671335D01*
X189741747Y-96765975D01*
X189752798Y-96846886D01*
X189758403Y-96917053D01*
X189759667Y-96968121D01*
X189750102Y-97112922D01*
X189712178Y-97212909D01*
X189641648Y-97297198D01*
X189523629Y-97415217D01*
X188678564Y-97443011D01*
X188347794Y-97453195D01*
X187933627Y-97464743D01*
X187437322Y-97477628D01*
X186860137Y-97491824D01*
X186203330Y-97507308D01*
X185468161Y-97524051D01*
X184655887Y-97542030D01*
X183767767Y-97561217D01*
X182805060Y-97581588D01*
X181769024Y-97603117D01*
X180660918Y-97625778D01*
X179482000Y-97649544D01*
X178233528Y-97674392D01*
X176916761Y-97700294D01*
X175532957Y-97727225D01*
X174083376Y-97755160D01*
X172569275Y-97784072D01*
X170991913Y-97813937D01*
X169352548Y-97844727D01*
X167652440Y-97876418D01*
X165892845Y-97908984D01*
X165672000Y-97913056D01*
X164644599Y-97932054D01*
X163698501Y-97949649D01*
X162830355Y-97965850D01*
X162036809Y-97980665D01*
X161314512Y-97994104D01*
X160660112Y-98006177D01*
X160070257Y-98016892D01*
X159541597Y-98026259D01*
X159070779Y-98034288D01*
X158654453Y-98040986D01*
X158289265Y-98046364D01*
X157971866Y-98050431D01*
X157698903Y-98053196D01*
X157467025Y-98054668D01*
X157272880Y-98054856D01*
X157113117Y-98053770D01*
X156984384Y-98051420D01*
X156883329Y-98047813D01*
X156806602Y-98042960D01*
X156750850Y-98036870D01*
X156712723Y-98029551D01*
X156688867Y-98021014D01*
X156675933Y-98011267D01*
X156670568Y-98000319D01*
X156669421Y-97988181D01*
X156669140Y-97974861D01*
X156666374Y-97960368D01*
X156657771Y-97944712D01*
X156651743Y-97937923D01*
X156550804Y-97794934D01*
X156528000Y-97688590D01*
X156537043Y-97637692D01*
X156564554Y-97535644D01*
X156611105Y-97380772D01*
X156677268Y-97171401D01*
X156763617Y-96905858D01*
X156870722Y-96582470D01*
X156999157Y-96199561D01*
X157149494Y-95755460D01*
X157322306Y-95248490D01*
X157518164Y-94676980D01*
X157737641Y-94039255D01*
X157981310Y-93333641D01*
X158249743Y-92558464D01*
X158543511Y-91712051D01*
X158863189Y-90792728D01*
X159209347Y-89798820D01*
X159582558Y-88728655D01*
X159983395Y-87580558D01*
X160033893Y-87436000D01*
X160281782Y-86726621D01*
X160503576Y-86092456D01*
X160700989Y-85528747D01*
X160875738Y-85030740D01*
X161029536Y-84593679D01*
X161164099Y-84212807D01*
X161281143Y-83883369D01*
X161382381Y-83600608D01*
X161469529Y-83359770D01*
X161544303Y-83156098D01*
X161608417Y-82984836D01*
X161663586Y-82841229D01*
X161711525Y-82720520D01*
X161753949Y-82617954D01*
X161792574Y-82528775D01*
X161829114Y-82448227D01*
X161844235Y-82415861D01*
X161939814Y-82203316D01*
X161999180Y-82044141D01*
X162028516Y-81918421D01*
X162034006Y-81806238D01*
X162033946Y-81804745D01*
X162040079Y-81654581D01*
X162065049Y-81516919D01*
X162074800Y-81487245D01*
X162113990Y-81376007D01*
X162137257Y-81293512D01*
X162155395Y-81235120D01*
X162198385Y-81109925D01*
X162261753Y-80930547D01*
X162341025Y-80709611D01*
X162431726Y-80459737D01*
X162467396Y-80362179D01*
X162541515Y-80158455D01*
X162626803Y-79921322D01*
X162724583Y-79646985D01*
X162836179Y-79331655D01*
X162962915Y-78971538D01*
X163106113Y-78562842D01*
X163267098Y-78101774D01*
X163447193Y-77584543D01*
X163647720Y-77007357D01*
X163870005Y-76366422D01*
X164115369Y-75657947D01*
X164385138Y-74878140D01*
X164680633Y-74023208D01*
X164777446Y-73742972D01*
X164911860Y-73356073D01*
X165039060Y-72994190D01*
X165156211Y-72665098D01*
X165260473Y-72376571D01*
X165349010Y-72136383D01*
X165418984Y-71952308D01*
X165467558Y-71832122D01*
X165491894Y-71783598D01*
X165492795Y-71783012D01*
X165535974Y-71801088D01*
X165646335Y-71858055D01*
X165817730Y-71950482D01*
X166044011Y-72074940D01*
X166319030Y-72228001D01*
X166636637Y-72406234D01*
X166990684Y-72606210D01*
X167375024Y-72824499D01*
X167783506Y-73057673D01*
X167985295Y-73173272D01*
X168584238Y-73516753D01*
X169114023Y-73820624D01*
X169578886Y-74087490D01*
X169983061Y-74319954D01*
X170330784Y-74520619D01*
X170626289Y-74692090D01*
X170873813Y-74836969D01*
X171077590Y-74957861D01*
X171241854Y-75057370D01*
X171370842Y-75138099D01*
X171468789Y-75202651D01*
X171539929Y-75253630D01*
X171588497Y-75293640D01*
X171618730Y-75325285D01*
X171634861Y-75351168D01*
X171641127Y-75373893D01*
X171641761Y-75396064D01*
X171641000Y-75420283D01*
X171641000Y-75420712D01*
X171652234Y-75485492D01*
X171665623Y-75498000D01*
X171708199Y-75478384D01*
X171813902Y-75423422D01*
X171971878Y-75338943D01*
X172171273Y-75230776D01*
X172401234Y-75104748D01*
X172522873Y-75037639D01*
X173385721Y-74562925D01*
X174181382Y-74130258D01*
X174914722Y-73737225D01*
X175590610Y-73381411D01*
X176213911Y-73060404D01*
X176789492Y-72771790D01*
X177322221Y-72513155D01*
X177816963Y-72282087D01*
X178278587Y-72076171D01*
X178711958Y-71892994D01*
X179121944Y-71730143D01*
X179409167Y-71622745D01*
X179732970Y-71511196D01*
X179991913Y-71439295D01*
X180196665Y-71408439D01*
X180357897Y-71420021D01*
G36*
X133274405Y-54095795D02*
X133348082Y-54118747D01*
X133415195Y-54149286D01*
X133464988Y-54189769D01*
X133497854Y-54250074D01*
X133514185Y-54340078D01*
X133514373Y-54469656D01*
X133498809Y-54648686D01*
X133467887Y-54887044D01*
X133421997Y-55194607D01*
X133397132Y-55354612D01*
X133191764Y-56775046D01*
X133025552Y-58166549D01*
X132897347Y-59546820D01*
X132805994Y-60933558D01*
X132750344Y-62344463D01*
X132729243Y-63797234D01*
X132741541Y-65309569D01*
X132743294Y-65401500D01*
X132766499Y-66300284D01*
X132800725Y-67154330D01*
X132847433Y-67974706D01*
X132908084Y-68772480D01*
X132984139Y-69558719D01*
X133077060Y-70344493D01*
X133188307Y-71140868D01*
X133319342Y-71958913D01*
X133471625Y-72809697D01*
X133646618Y-73704286D01*
X133845782Y-74653750D01*
X134070578Y-75669155D01*
X134137598Y-75963667D01*
X134214287Y-76299128D01*
X134288189Y-76622850D01*
X134356277Y-76921533D01*
X134415522Y-77181881D01*
X134462897Y-77390597D01*
X134495374Y-77534384D01*
X134502191Y-77564804D01*
X134539552Y-77722323D01*
X134569641Y-77812085D01*
X134601106Y-77849491D01*
X134642598Y-77849941D01*
X134659451Y-77844780D01*
X134726314Y-77836341D01*
X134870492Y-77828596D01*
X135084634Y-77821579D01*
X135361391Y-77815327D01*
X135693411Y-77809873D01*
X136073346Y-77805253D01*
X136493845Y-77801500D01*
X136947559Y-77798651D01*
X137427136Y-77796740D01*
X137925229Y-77795802D01*
X138434486Y-77795871D01*
X138947557Y-77796983D01*
X139457093Y-77799172D01*
X139955744Y-77802473D01*
X140436159Y-77806921D01*
X140890989Y-77812552D01*
X141028386Y-77814585D01*
X143160606Y-77847500D01*
X143258725Y-78122667D01*
X143289831Y-78210729D01*
X143347009Y-78373498D01*
X143428431Y-78605742D01*
X143532271Y-78902229D01*
X143656700Y-79257726D01*
X143799891Y-79667004D01*
X143960016Y-80124830D01*
X144135248Y-80625973D01*
X144323759Y-81165200D01*
X144523721Y-81737281D01*
X144733308Y-82336984D01*
X144950691Y-82959077D01*
X145174043Y-83598328D01*
X145401536Y-84249507D01*
X145631343Y-84907381D01*
X145861636Y-85566719D01*
X146090587Y-86222289D01*
X146316370Y-86868860D01*
X146537156Y-87501199D01*
X146751117Y-88114076D01*
X146956427Y-88702259D01*
X147151258Y-89260517D01*
X147333781Y-89783617D01*
X147502170Y-90266328D01*
X147654597Y-90703418D01*
X147789234Y-91089656D01*
X147904254Y-91419811D01*
X147997829Y-91688650D01*
X148005835Y-91711667D01*
X148284599Y-92514868D01*
X148550557Y-93284508D01*
X148801924Y-94015327D01*
X149036916Y-94702066D01*
X149253748Y-95339467D01*
X149450637Y-95922271D01*
X149625797Y-96445220D01*
X149777445Y-96903053D01*
X149903795Y-97290514D01*
X149983659Y-97540559D01*
X150226528Y-98310619D01*
X150143632Y-98498018D01*
X150080162Y-98618779D01*
X150012162Y-98681765D01*
X149918285Y-98710434D01*
X149843197Y-98716370D01*
X149687123Y-98722447D01*
X149453743Y-98728645D01*
X149146736Y-98734945D01*
X148769784Y-98741330D01*
X148326565Y-98747781D01*
X147820761Y-98754278D01*
X147256051Y-98760803D01*
X146636116Y-98767337D01*
X145964635Y-98773862D01*
X145245289Y-98780360D01*
X144481758Y-98786810D01*
X143677722Y-98793195D01*
X142836861Y-98799496D01*
X141962856Y-98805694D01*
X141059385Y-98811770D01*
X140130131Y-98817706D01*
X139178772Y-98823483D01*
X138208988Y-98829083D01*
X137224461Y-98834486D01*
X136228870Y-98839675D01*
X135225895Y-98844629D01*
X134219216Y-98849332D01*
X133212513Y-98853763D01*
X132209467Y-98857904D01*
X131213758Y-98861737D01*
X130229066Y-98865243D01*
X129259070Y-98868403D01*
X128307452Y-98871198D01*
X127377890Y-98873610D01*
X126474066Y-98875620D01*
X125599660Y-98877210D01*
X124758351Y-98878360D01*
X123953819Y-98879052D01*
X123189746Y-98879267D01*
X122469810Y-98878987D01*
X121797693Y-98878193D01*
X121177073Y-98876866D01*
X120611633Y-98874987D01*
X120105050Y-98872538D01*
X119661006Y-98869500D01*
X119295833Y-98866000D01*
X118787663Y-98859341D01*
X118361185Y-98851793D01*
X118013428Y-98843249D01*
X117741422Y-98833601D01*
X117542195Y-98822744D01*
X117412778Y-98810569D01*
X117350199Y-98796970D01*
X117348026Y-98795838D01*
X117223940Y-98702634D01*
X117142789Y-98584446D01*
X117103870Y-98431714D01*
X117106476Y-98234880D01*
X117149901Y-97984384D01*
X117233440Y-97670668D01*
X117258786Y-97586838D01*
X117328014Y-97369721D01*
X117424766Y-97078254D01*
X117547209Y-96717507D01*
X117693515Y-96292545D01*
X117861853Y-95808437D01*
X118050393Y-95270249D01*
X118257304Y-94683048D01*
X118480758Y-94051903D01*
X118718923Y-93381879D01*
X118969970Y-92678046D01*
X119232069Y-91945468D01*
X119503388Y-91189215D01*
X119782099Y-90414352D01*
X120066371Y-89625948D01*
X120354373Y-88829070D01*
X120644277Y-88028784D01*
X120934251Y-87230159D01*
X121222466Y-86438261D01*
X121507091Y-85658157D01*
X121786297Y-84894915D01*
X122058253Y-84153602D01*
X122321128Y-83439285D01*
X122573094Y-82757032D01*
X122812320Y-82111910D01*
X123036975Y-81508986D01*
X123245230Y-80953326D01*
X123435254Y-80450000D01*
X123605218Y-80004073D01*
X123669391Y-79837167D01*
X123853041Y-79362830D01*
X124009981Y-78961950D01*
X124142759Y-78628535D01*
X124253924Y-78356591D01*
X124346024Y-78140126D01*
X124421609Y-77973147D01*
X124483227Y-77849660D01*
X124533426Y-77763674D01*
X124574050Y-77709958D01*
X124672167Y-77603191D01*
X127677833Y-77631585D01*
X128213566Y-77637041D01*
X128753913Y-77643285D01*
X129288194Y-77650150D01*
X129805729Y-77657466D01*
X130295839Y-77665065D01*
X130747844Y-77672779D01*
X131151064Y-77680440D01*
X131494820Y-77687879D01*
X131768432Y-77694927D01*
X131847628Y-77697334D01*
X132151817Y-77706844D01*
X132426609Y-77714953D01*
X132661159Y-77721380D01*
X132844625Y-77725844D01*
X132966162Y-77728064D01*
X133014926Y-77727760D01*
X133015378Y-77727594D01*
X133007329Y-77686212D01*
X132982763Y-77575229D01*
X132944596Y-77407452D01*
X132895742Y-77195687D01*
X132839116Y-76952740D01*
X132835507Y-76937333D01*
X132522101Y-75554931D01*
X132245808Y-74239940D01*
X132005268Y-72984351D01*
X131799125Y-71780155D01*
X131626018Y-70619341D01*
X131484591Y-69493900D01*
X131373484Y-68395821D01*
X131359269Y-68232021D01*
X131339736Y-67992539D01*
X131322403Y-67756838D01*
X131307292Y-67520160D01*
X131294423Y-67277747D01*
X131283818Y-67024842D01*
X131275497Y-66756688D01*
X131269482Y-66468525D01*
X131265794Y-66155598D01*
X131264454Y-65813147D01*
X131265483Y-65436416D01*
X131268903Y-65020646D01*
X131274734Y-64561080D01*
X131282998Y-64052961D01*
X131293716Y-63491530D01*
X131306909Y-62872029D01*
X131322597Y-62189702D01*
X131340803Y-61439790D01*
X131361548Y-60617536D01*
X131384852Y-59718181D01*
X131399603Y-59157333D01*
X131408521Y-58912227D01*
X131423680Y-58700287D01*
X131448852Y-58505434D01*
X131487807Y-58311588D01*
X131544317Y-58102671D01*
X131622153Y-57862601D01*
X131725085Y-57575300D01*
X131846373Y-57252333D01*
X131898830Y-57111885D01*
X131974001Y-56907299D01*
X132066207Y-56654202D01*
X132169769Y-56368220D01*
X132279008Y-56064979D01*
X132361767Y-55834167D01*
X132471768Y-55530521D01*
X132581432Y-55234719D01*
X132684972Y-54961862D01*
X132776598Y-54727055D01*
X132850524Y-54545400D01*
X132891834Y-54451053D01*
X132989390Y-54262114D01*
X133077415Y-54145938D01*
X133168292Y-54093505D01*
X133274405Y-54095795D01*
X133274405Y-54095795D01*
G37*
X133274405Y-54095795D02*
X133348082Y-54118747D01*
X133415195Y-54149286D01*
X133464988Y-54189769D01*
X133497854Y-54250074D01*
X133514185Y-54340078D01*
X133514373Y-54469656D01*
X133498809Y-54648686D01*
X133467887Y-54887044D01*
X133421997Y-55194607D01*
X133397132Y-55354612D01*
X133191764Y-56775046D01*
X133025552Y-58166549D01*
X132897347Y-59546820D01*
X132805994Y-60933558D01*
X132750344Y-62344463D01*
X132729243Y-63797234D01*
X132741541Y-65309569D01*
X132743294Y-65401500D01*
X132766499Y-66300284D01*
X132800725Y-67154330D01*
X132847433Y-67974706D01*
X132908084Y-68772480D01*
X132984139Y-69558719D01*
X133077060Y-70344493D01*
X133188307Y-71140868D01*
X133319342Y-71958913D01*
X133471625Y-72809697D01*
X133646618Y-73704286D01*
X133845782Y-74653750D01*
X134070578Y-75669155D01*
X134137598Y-75963667D01*
X134214287Y-76299128D01*
X134288189Y-76622850D01*
X134356277Y-76921533D01*
X134415522Y-77181881D01*
X134462897Y-77390597D01*
X134495374Y-77534384D01*
X134502191Y-77564804D01*
X134539552Y-77722323D01*
X134569641Y-77812085D01*
X134601106Y-77849491D01*
X134642598Y-77849941D01*
X134659451Y-77844780D01*
X134726314Y-77836341D01*
X134870492Y-77828596D01*
X135084634Y-77821579D01*
X135361391Y-77815327D01*
X135693411Y-77809873D01*
X136073346Y-77805253D01*
X136493845Y-77801500D01*
X136947559Y-77798651D01*
X137427136Y-77796740D01*
X137925229Y-77795802D01*
X138434486Y-77795871D01*
X138947557Y-77796983D01*
X139457093Y-77799172D01*
X139955744Y-77802473D01*
X140436159Y-77806921D01*
X140890989Y-77812552D01*
X141028386Y-77814585D01*
X143160606Y-77847500D01*
X143258725Y-78122667D01*
X143289831Y-78210729D01*
X143347009Y-78373498D01*
X143428431Y-78605742D01*
X143532271Y-78902229D01*
X143656700Y-79257726D01*
X143799891Y-79667004D01*
X143960016Y-80124830D01*
X144135248Y-80625973D01*
X144323759Y-81165200D01*
X144523721Y-81737281D01*
X144733308Y-82336984D01*
X144950691Y-82959077D01*
X145174043Y-83598328D01*
X145401536Y-84249507D01*
X145631343Y-84907381D01*
X145861636Y-85566719D01*
X146090587Y-86222289D01*
X146316370Y-86868860D01*
X146537156Y-87501199D01*
X146751117Y-88114076D01*
X146956427Y-88702259D01*
X147151258Y-89260517D01*
X147333781Y-89783617D01*
X147502170Y-90266328D01*
X147654597Y-90703418D01*
X147789234Y-91089656D01*
X147904254Y-91419811D01*
X147997829Y-91688650D01*
X148005835Y-91711667D01*
X148284599Y-92514868D01*
X148550557Y-93284508D01*
X148801924Y-94015327D01*
X149036916Y-94702066D01*
X149253748Y-95339467D01*
X149450637Y-95922271D01*
X149625797Y-96445220D01*
X149777445Y-96903053D01*
X149903795Y-97290514D01*
X149983659Y-97540559D01*
X150226528Y-98310619D01*
X150143632Y-98498018D01*
X150080162Y-98618779D01*
X150012162Y-98681765D01*
X149918285Y-98710434D01*
X149843197Y-98716370D01*
X149687123Y-98722447D01*
X149453743Y-98728645D01*
X149146736Y-98734945D01*
X148769784Y-98741330D01*
X148326565Y-98747781D01*
X147820761Y-98754278D01*
X147256051Y-98760803D01*
X146636116Y-98767337D01*
X145964635Y-98773862D01*
X145245289Y-98780360D01*
X144481758Y-98786810D01*
X143677722Y-98793195D01*
X142836861Y-98799496D01*
X141962856Y-98805694D01*
X141059385Y-98811770D01*
X140130131Y-98817706D01*
X139178772Y-98823483D01*
X138208988Y-98829083D01*
X137224461Y-98834486D01*
X136228870Y-98839675D01*
X135225895Y-98844629D01*
X134219216Y-98849332D01*
X133212513Y-98853763D01*
X132209467Y-98857904D01*
X131213758Y-98861737D01*
X130229066Y-98865243D01*
X129259070Y-98868403D01*
X128307452Y-98871198D01*
X127377890Y-98873610D01*
X126474066Y-98875620D01*
X125599660Y-98877210D01*
X124758351Y-98878360D01*
X123953819Y-98879052D01*
X123189746Y-98879267D01*
X122469810Y-98878987D01*
X121797693Y-98878193D01*
X121177073Y-98876866D01*
X120611633Y-98874987D01*
X120105050Y-98872538D01*
X119661006Y-98869500D01*
X119295833Y-98866000D01*
X118787663Y-98859341D01*
X118361185Y-98851793D01*
X118013428Y-98843249D01*
X117741422Y-98833601D01*
X117542195Y-98822744D01*
X117412778Y-98810569D01*
X117350199Y-98796970D01*
X117348026Y-98795838D01*
X117223940Y-98702634D01*
X117142789Y-98584446D01*
X117103870Y-98431714D01*
X117106476Y-98234880D01*
X117149901Y-97984384D01*
X117233440Y-97670668D01*
X117258786Y-97586838D01*
X117328014Y-97369721D01*
X117424766Y-97078254D01*
X117547209Y-96717507D01*
X117693515Y-96292545D01*
X117861853Y-95808437D01*
X118050393Y-95270249D01*
X118257304Y-94683048D01*
X118480758Y-94051903D01*
X118718923Y-93381879D01*
X118969970Y-92678046D01*
X119232069Y-91945468D01*
X119503388Y-91189215D01*
X119782099Y-90414352D01*
X120066371Y-89625948D01*
X120354373Y-88829070D01*
X120644277Y-88028784D01*
X120934251Y-87230159D01*
X121222466Y-86438261D01*
X121507091Y-85658157D01*
X121786297Y-84894915D01*
X122058253Y-84153602D01*
X122321128Y-83439285D01*
X122573094Y-82757032D01*
X122812320Y-82111910D01*
X123036975Y-81508986D01*
X123245230Y-80953326D01*
X123435254Y-80450000D01*
X123605218Y-80004073D01*
X123669391Y-79837167D01*
X123853041Y-79362830D01*
X124009981Y-78961950D01*
X124142759Y-78628535D01*
X124253924Y-78356591D01*
X124346024Y-78140126D01*
X124421609Y-77973147D01*
X124483227Y-77849660D01*
X124533426Y-77763674D01*
X124574050Y-77709958D01*
X124672167Y-77603191D01*
X127677833Y-77631585D01*
X128213566Y-77637041D01*
X128753913Y-77643285D01*
X129288194Y-77650150D01*
X129805729Y-77657466D01*
X130295839Y-77665065D01*
X130747844Y-77672779D01*
X131151064Y-77680440D01*
X131494820Y-77687879D01*
X131768432Y-77694927D01*
X131847628Y-77697334D01*
X132151817Y-77706844D01*
X132426609Y-77714953D01*
X132661159Y-77721380D01*
X132844625Y-77725844D01*
X132966162Y-77728064D01*
X133014926Y-77727760D01*
X133015378Y-77727594D01*
X133007329Y-77686212D01*
X132982763Y-77575229D01*
X132944596Y-77407452D01*
X132895742Y-77195687D01*
X132839116Y-76952740D01*
X132835507Y-76937333D01*
X132522101Y-75554931D01*
X132245808Y-74239940D01*
X132005268Y-72984351D01*
X131799125Y-71780155D01*
X131626018Y-70619341D01*
X131484591Y-69493900D01*
X131373484Y-68395821D01*
X131359269Y-68232021D01*
X131339736Y-67992539D01*
X131322403Y-67756838D01*
X131307292Y-67520160D01*
X131294423Y-67277747D01*
X131283818Y-67024842D01*
X131275497Y-66756688D01*
X131269482Y-66468525D01*
X131265794Y-66155598D01*
X131264454Y-65813147D01*
X131265483Y-65436416D01*
X131268903Y-65020646D01*
X131274734Y-64561080D01*
X131282998Y-64052961D01*
X131293716Y-63491530D01*
X131306909Y-62872029D01*
X131322597Y-62189702D01*
X131340803Y-61439790D01*
X131361548Y-60617536D01*
X131384852Y-59718181D01*
X131399603Y-59157333D01*
X131408521Y-58912227D01*
X131423680Y-58700287D01*
X131448852Y-58505434D01*
X131487807Y-58311588D01*
X131544317Y-58102671D01*
X131622153Y-57862601D01*
X131725085Y-57575300D01*
X131846373Y-57252333D01*
X131898830Y-57111885D01*
X131974001Y-56907299D01*
X132066207Y-56654202D01*
X132169769Y-56368220D01*
X132279008Y-56064979D01*
X132361767Y-55834167D01*
X132471768Y-55530521D01*
X132581432Y-55234719D01*
X132684972Y-54961862D01*
X132776598Y-54727055D01*
X132850524Y-54545400D01*
X132891834Y-54451053D01*
X132989390Y-54262114D01*
X133077415Y-54145938D01*
X133168292Y-54093505D01*
X133274405Y-54095795D01*
G04 #@! TD*
D11*
G04 #@! TO.C,*
X153360719Y-49104903D03*
X151336655Y-49111136D03*
X152011346Y-49111144D03*
X152686028Y-49117370D03*
X154035409Y-49084411D03*
X153375779Y-51099730D03*
X151351716Y-51105964D03*
X152026406Y-51105971D03*
X152701089Y-51112197D03*
X154050469Y-51079238D03*
X174364541Y-97673120D03*
X172340478Y-97679350D03*
X173015160Y-97679360D03*
X173689851Y-97685580D03*
X175039223Y-97652620D03*
X174288377Y-99132030D03*
X172264313Y-99138260D03*
X172939004Y-99138270D03*
X173613694Y-99144490D03*
X174963067Y-99111530D03*
X134427346Y-98695880D03*
X132403283Y-98702110D03*
X133077969Y-98702120D03*
X133752660Y-98708340D03*
X135102032Y-98675380D03*
X134444630Y-100273400D03*
X132420567Y-100279630D03*
X133095258Y-100279640D03*
X133769944Y-100285860D03*
X135119321Y-100252910D03*
X112981429Y-96361193D03*
X112295059Y-94457051D03*
X112521887Y-95092469D03*
X112742854Y-95729968D03*
X113227567Y-96989728D03*
X109354800Y-96380945D03*
X108668427Y-94476794D03*
X108895254Y-95112212D03*
X109116226Y-95749720D03*
X109600935Y-97009470D03*
X136680241Y-59501126D03*
X137413309Y-61387781D03*
X137167012Y-60759658D03*
X136914924Y-60133800D03*
X136453028Y-58865516D03*
X138588531Y-58777719D03*
X139321600Y-60664378D03*
X139075302Y-60036250D03*
X138823213Y-59410392D03*
X138361317Y-58142108D03*
X174261593Y-54398869D03*
X174994662Y-56285524D03*
X174748363Y-55657397D03*
X174496275Y-55031540D03*
X174034376Y-53763249D03*
X175902012Y-53728587D03*
X176635081Y-55615242D03*
X176388786Y-54987125D03*
X176136698Y-54361268D03*
X175674799Y-53092977D03*
X163355093Y-69427194D03*
X162622020Y-71313851D03*
X162868320Y-70685727D03*
X163120403Y-70059868D03*
X163582298Y-68791583D03*
X166030889Y-70489833D03*
X165297816Y-72376490D03*
X165544115Y-71748368D03*
X165796198Y-71122509D03*
X166258103Y-69854228D03*
X128571199Y-66728444D03*
X127838129Y-68615102D03*
X128084429Y-67986974D03*
X128336516Y-67361117D03*
X128798414Y-66092832D03*
X125287667Y-65439247D03*
X124554598Y-67325906D03*
X124800893Y-66697785D03*
X125052982Y-66071928D03*
X125514878Y-64803643D03*
X112774951Y-49878211D03*
X110750888Y-49884444D03*
X111425578Y-49884452D03*
X112100264Y-49890677D03*
X113449643Y-49857718D03*
X112789763Y-51994536D03*
X110765700Y-52000769D03*
X111440388Y-52000777D03*
X112115077Y-52007003D03*
X113464452Y-51974044D03*
G04 #@! TD*
M02*
