G04 #@! TF.GenerationSoftware,KiCad,Pcbnew,5.0.0-fee4fd1~66~ubuntu16.04.1*
G04 #@! TF.CreationDate,2018-10-05T15:26:55+08:00*
G04 #@! TF.ProjectId,corners,636F726E6572732E6B696361645F7063,rev?*
G04 #@! TF.SameCoordinates,Original*
G04 #@! TF.FileFunction,Profile,NP*
%FSLAX46Y46*%
G04 Gerber Fmt 4.6, Leading zero omitted, Abs format (unit mm)*
G04 Created by KiCad (PCBNEW 5.0.0-fee4fd1~66~ubuntu16.04.1) date Fri Oct  5 15:26:55 2018*
%MOMM*%
%LPD*%
G01*
G04 APERTURE LIST*
G04 #@! TA.AperFunction,NonConductor*
%ADD10C,0.100000*%
G04 #@! TD*
G04 APERTURE END LIST*
D10*
G04 #@! TO.C,*
X124604738Y-67365734D02*
X124604738Y-67365734D01*
X124604738Y-67365734D02*
X124604738Y-67365734D01*
X113919430Y-98928870D02*
X124604738Y-67365734D01*
X113249152Y-97146240D02*
X113919430Y-98928870D01*
X109532309Y-97146240D02*
X113249152Y-97146240D01*
X110822151Y-100955690D02*
X109532309Y-97146240D01*
X132416008Y-100320690D02*
X110822151Y-100955690D01*
X132396165Y-98764060D02*
X132416008Y-100320690D01*
X116815515Y-98837920D02*
X132396165Y-98764060D01*
X127816116Y-68636838D02*
X116815515Y-98837920D01*
X124604738Y-67365734D02*
X127816116Y-68636838D01*
X139294624Y-60673430D02*
X139294624Y-60673430D01*
X139294624Y-60673430D02*
X139294624Y-60673430D01*
X137335053Y-61448991D02*
X139294624Y-60673430D01*
X150372946Y-98678620D02*
X137335053Y-61448991D01*
X135148382Y-98750830D02*
X150372946Y-98678620D01*
X135167124Y-100239660D02*
X135148382Y-98750830D01*
X172353757Y-99146050D02*
X135167124Y-100239660D01*
X172335014Y-97701870D02*
X172353757Y-99146050D01*
X156456158Y-98025430D02*
X172335014Y-97701870D01*
X165334583Y-72413764D02*
X156456158Y-98025430D01*
X162628668Y-71342753D02*
X165334583Y-72413764D01*
X154027503Y-98093780D02*
X162628668Y-71342753D01*
X139294624Y-60673430D02*
X154027503Y-98093780D01*
X176631737Y-55672255D02*
X176631737Y-55672255D01*
X176631737Y-55672255D02*
X176631737Y-55672255D01*
X174927931Y-56346391D02*
X176631737Y-55672255D01*
X190007530Y-97341920D02*
X174927931Y-56346391D01*
X175086681Y-97645640D02*
X190007530Y-97341920D01*
X175104873Y-99065020D02*
X175086681Y-97645640D01*
X192243260Y-98561210D02*
X175104873Y-99065020D01*
X176631737Y-55672255D02*
X192243260Y-98561210D01*
X110736712Y-49928043D02*
X110736712Y-49928043D01*
X110736712Y-49928043D02*
X110736712Y-49928043D01*
X93659514Y-50267040D02*
X110736712Y-49928043D01*
X108600754Y-94394580D02*
X93659514Y-50267040D01*
X112213970Y-94394580D02*
X108600754Y-94394580D01*
X96429922Y-52428354D02*
X112213970Y-94394580D01*
X110763723Y-52032029D02*
X96429922Y-52428354D01*
X110736712Y-49928043D02*
X110763723Y-52032029D01*
X151303398Y-49122716D02*
X151303398Y-49122716D01*
X151303398Y-49122716D02*
X151303398Y-49122716D01*
X113488378Y-49873473D02*
X151303398Y-49122716D01*
X113514839Y-51955962D02*
X113488378Y-49873473D01*
X129975226Y-51501209D02*
X113514839Y-51955962D01*
X125487783Y-64756283D02*
X129975226Y-51501209D01*
X128758143Y-66050537D02*
X125487783Y-64756283D01*
X133952245Y-51790597D02*
X128758143Y-66050537D01*
X136424446Y-58850013D02*
X133952245Y-51790597D01*
X138286450Y-58113037D02*
X136424446Y-58850013D01*
X135827479Y-51867217D02*
X138286450Y-58113037D01*
X151330407Y-51200798D02*
X135827479Y-51867217D01*
X151303398Y-49122716D02*
X151330407Y-51200798D01*
X174082918Y-48670721D02*
X174082918Y-48670721D01*
X174082918Y-48670721D02*
X174082918Y-48670721D01*
X154055065Y-49068146D02*
X174082918Y-48670721D01*
X154080973Y-51082287D02*
X154055065Y-49068146D01*
X169354596Y-50425790D02*
X154080973Y-51082287D01*
X163473127Y-68717867D02*
X169354596Y-50425790D01*
X166236921Y-69811478D02*
X163473127Y-68717867D01*
X172856465Y-50715728D02*
X166236921Y-69811478D01*
X173977638Y-53763398D02*
X172856465Y-50715728D01*
X175689711Y-53085404D02*
X173977638Y-53763398D01*
X174082918Y-48670721D02*
X175689711Y-53085404D01*
X194912660Y-46475801D02*
X194912660Y-46475801D01*
X194912660Y-46475801D02*
X194912660Y-46475801D01*
X194912660Y-102975700D02*
X194912660Y-46475801D01*
X91664115Y-103175220D02*
X194912660Y-102975700D01*
X91664115Y-46675319D02*
X91664115Y-103175220D01*
X194912660Y-46475801D02*
X91664115Y-46675319D01*
G04 #@! TD*
M02*
