M48
;DRILL file {KiCad 5.0.0-fee4fd1~66~ubuntu16.04.1} date Fri Oct  5 15:26:57 2018
;FORMAT={-:-/ absolute / metric / decimal}
FMAT,2
METRIC,TZ
T1C0.500
%
G90
G05
M71
T1
X108.668Y-94.477
X108.895Y-95.112
X109.116Y-95.75
X109.355Y-96.381
X109.601Y-97.009
X110.751Y-49.884
X110.766Y-52.001
X111.426Y-49.884
X111.44Y-52.001
X112.1Y-49.891
X112.115Y-52.007
X112.295Y-94.457
X112.522Y-95.092
X112.743Y-95.73
X112.775Y-49.878
X112.79Y-51.995
X112.981Y-96.361
X113.228Y-96.99
X113.45Y-49.858
X113.464Y-51.974
X124.555Y-67.326
X124.801Y-66.698
X125.053Y-66.072
X125.288Y-65.439
X125.515Y-64.804
X127.838Y-68.615
X128.084Y-67.987
X128.337Y-67.361
X128.571Y-66.728
X128.798Y-66.093
X132.403Y-98.702
X132.421Y-100.28
X133.078Y-98.702
X133.095Y-100.28
X133.753Y-98.708
X133.77Y-100.286
X134.427Y-98.696
X134.445Y-100.273
X135.102Y-98.675
X135.119Y-100.253
X136.453Y-58.866
X136.68Y-59.501
X136.915Y-60.134
X137.167Y-60.76
X137.413Y-61.388
X138.361Y-58.142
X138.589Y-58.778
X138.823Y-59.41
X139.075Y-60.036
X139.322Y-60.664
X151.337Y-49.111
X151.352Y-51.106
X152.011Y-49.111
X152.026Y-51.106
X152.686Y-49.117
X152.701Y-51.112
X153.361Y-49.105
X153.376Y-51.1
X154.035Y-49.084
X154.05Y-51.079
X162.622Y-71.314
X162.868Y-70.686
X163.12Y-70.06
X163.355Y-69.427
X163.582Y-68.792
X165.298Y-72.376
X165.544Y-71.748
X165.796Y-71.123
X166.031Y-70.49
X166.258Y-69.854
X172.264Y-99.138
X172.34Y-97.679
X172.939Y-99.138
X173.015Y-97.679
X173.614Y-99.144
X173.69Y-97.686
X174.034Y-53.763
X174.262Y-54.399
X174.288Y-99.132
X174.365Y-97.673
X174.496Y-55.032
X174.748Y-55.657
X174.963Y-99.112
X174.995Y-56.286
X175.039Y-97.653
X175.675Y-53.093
X175.902Y-53.729
X176.137Y-54.361
X176.389Y-54.987
X176.635Y-55.615
T0
M30
