G04 #@! TF.GenerationSoftware,KiCad,Pcbnew,5.0.0-fee4fd1~66~ubuntu16.04.1*
G04 #@! TF.CreationDate,2018-10-05T15:26:55+08:00*
G04 #@! TF.ProjectId,corners,636F726E6572732E6B696361645F7063,rev?*
G04 #@! TF.SameCoordinates,Original*
G04 #@! TF.FileFunction,Soldermask,Bot*
G04 #@! TF.FilePolarity,Negative*
%FSLAX46Y46*%
G04 Gerber Fmt 4.6, Leading zero omitted, Abs format (unit mm)*
G04 Created by KiCad (PCBNEW 5.0.0-fee4fd1~66~ubuntu16.04.1) date Fri Oct  5 15:26:55 2018*
%MOMM*%
%LPD*%
G01*
G04 APERTURE LIST*
%ADD10C,0.010000*%
%ADD11C,0.900000*%
G04 APERTURE END LIST*
D10*
G04 #@! TO.C,*
G36*
X172824017Y-51735383D02*
X172879420Y-51822333D01*
X172955044Y-51968720D01*
X173051355Y-52175745D01*
X173168815Y-52444609D01*
X173307890Y-52776515D01*
X173469043Y-53172666D01*
X173652739Y-53634262D01*
X173859441Y-54162505D01*
X174089614Y-54758599D01*
X174343722Y-55423744D01*
X174622229Y-56159143D01*
X174925599Y-56965997D01*
X175254296Y-57845508D01*
X175608785Y-58798879D01*
X175989529Y-59827312D01*
X176396992Y-60932008D01*
X176831640Y-62114169D01*
X177291922Y-63369500D01*
X177516825Y-63984284D01*
X177747520Y-64616125D01*
X177981027Y-65256790D01*
X178214365Y-65898046D01*
X178444550Y-66531660D01*
X178668603Y-67149400D01*
X178883541Y-67743034D01*
X179086383Y-68304329D01*
X179274147Y-68825051D01*
X179443852Y-69296970D01*
X179592517Y-69711851D01*
X179717160Y-70061463D01*
X179790949Y-70269833D01*
X179879951Y-70522047D01*
X179961433Y-70752714D01*
X180030411Y-70947746D01*
X180081900Y-71093054D01*
X180110918Y-71174546D01*
X180112882Y-71180000D01*
X180167797Y-71261639D01*
X180269131Y-71289951D01*
X180281293Y-71290530D01*
X180385950Y-71312206D01*
X180480541Y-71375766D01*
X180573027Y-71491166D01*
X180671371Y-71668362D01*
X180783536Y-71917311D01*
X180784622Y-71919882D01*
X180885134Y-72183424D01*
X180936949Y-72389591D01*
X180940422Y-72550020D01*
X180895909Y-72676348D01*
X180810684Y-72774352D01*
X180704134Y-72866003D01*
X180928664Y-73409418D01*
X181026297Y-73649923D01*
X181144442Y-73948052D01*
X181280747Y-74297445D01*
X181432860Y-74691747D01*
X181598429Y-75124599D01*
X181775103Y-75589643D01*
X181960528Y-76080522D01*
X182152355Y-76590879D01*
X182348229Y-77114355D01*
X182545800Y-77644594D01*
X182742716Y-78175238D01*
X182936624Y-78699929D01*
X183125173Y-79212309D01*
X183306011Y-79706021D01*
X183476785Y-80174708D01*
X183635145Y-80612011D01*
X183778737Y-81011574D01*
X183905211Y-81367038D01*
X184012214Y-81672047D01*
X184097394Y-81920241D01*
X184158399Y-82105265D01*
X184192877Y-82220760D01*
X184199501Y-82250924D01*
X184211290Y-82368163D01*
X184200035Y-82424070D01*
X184159589Y-82440279D01*
X184145574Y-82440667D01*
X184090300Y-82420430D01*
X183971039Y-82363055D01*
X183797239Y-82273545D01*
X183578345Y-82156902D01*
X183323806Y-82018130D01*
X183043068Y-81862229D01*
X182880403Y-81770705D01*
X182633663Y-81630871D01*
X182323578Y-81454547D01*
X181960187Y-81247471D01*
X181553530Y-81015381D01*
X181113645Y-80764014D01*
X180650573Y-80499107D01*
X180174352Y-80226399D01*
X179695022Y-79951627D01*
X179222622Y-79680528D01*
X179112833Y-79617476D01*
X178650014Y-79351956D01*
X178182785Y-79084506D01*
X177720501Y-78820444D01*
X177272517Y-78565086D01*
X176848185Y-78323753D01*
X176456859Y-78101761D01*
X176107895Y-77904428D01*
X175810646Y-77737072D01*
X175574465Y-77605012D01*
X175514500Y-77571733D01*
X175203710Y-77400776D01*
X174885590Y-77227785D01*
X174569270Y-77057545D01*
X174263879Y-76894839D01*
X173978546Y-76744453D01*
X173722401Y-76611172D01*
X173504572Y-76499780D01*
X173334190Y-76415061D01*
X173220384Y-76361801D01*
X173173245Y-76344695D01*
X173127128Y-76366175D01*
X173013474Y-76428674D01*
X172837141Y-76529314D01*
X172602988Y-76665217D01*
X172315876Y-76833502D01*
X171980662Y-77031291D01*
X171602207Y-77255706D01*
X171185369Y-77503868D01*
X170735009Y-77772897D01*
X170255984Y-78059914D01*
X169753155Y-78362042D01*
X169231381Y-78676401D01*
X168910500Y-78870140D01*
X168061305Y-79381061D01*
X167280229Y-79846279D01*
X166564930Y-80267028D01*
X165913062Y-80644543D01*
X165322282Y-80980060D01*
X164790246Y-81274815D01*
X164314609Y-81530041D01*
X163893028Y-81746975D01*
X163523158Y-81926851D01*
X163202656Y-82070906D01*
X162929177Y-82180373D01*
X162700378Y-82256488D01*
X162513914Y-82300487D01*
X162375712Y-82313667D01*
X162159244Y-82295880D01*
X162018664Y-82242191D01*
X161952952Y-82152103D01*
X161947402Y-82105788D01*
X161975782Y-81847525D01*
X162050847Y-81556127D01*
X162162145Y-81260944D01*
X162299227Y-80991325D01*
X162396436Y-80844708D01*
X162467224Y-80779456D01*
X162609082Y-80675963D01*
X162818583Y-80536223D01*
X163092303Y-80362232D01*
X163426815Y-80155983D01*
X163818695Y-79919474D01*
X164264516Y-79654697D01*
X164760854Y-79363649D01*
X165304283Y-79048325D01*
X165891377Y-78710719D01*
X166518711Y-78352827D01*
X167182860Y-77976643D01*
X167880397Y-77584162D01*
X168607898Y-77177380D01*
X169361937Y-76758292D01*
X170139089Y-76328893D01*
X170341129Y-76217667D01*
X170658072Y-76042775D01*
X170950452Y-75880397D01*
X171210240Y-75735071D01*
X171429409Y-75611333D01*
X171599929Y-75513722D01*
X171713773Y-75446775D01*
X171762911Y-75415029D01*
X171764270Y-75413333D01*
X171728512Y-75388857D01*
X171626365Y-75326995D01*
X171465190Y-75231947D01*
X171252348Y-75107912D01*
X170995200Y-74959089D01*
X170701109Y-74789676D01*
X170377434Y-74603872D01*
X170031539Y-74405877D01*
X169670784Y-74199890D01*
X169302530Y-73990108D01*
X168934139Y-73780732D01*
X168572972Y-73575961D01*
X168226391Y-73379993D01*
X167901757Y-73197026D01*
X167606432Y-73031262D01*
X167347776Y-72886897D01*
X167133151Y-72768131D01*
X166987181Y-72688468D01*
X166634810Y-72501072D01*
X166335359Y-72347858D01*
X166093311Y-72230960D01*
X165913150Y-72152510D01*
X165799361Y-72114642D01*
X165773887Y-72111333D01*
X165726906Y-72075189D01*
X165714333Y-72013976D01*
X165727877Y-71951792D01*
X165766333Y-71819851D01*
X165826432Y-71628237D01*
X165904909Y-71387035D01*
X165998496Y-71106327D01*
X166103927Y-70796197D01*
X166184048Y-70564059D01*
X166254755Y-70360246D01*
X166351031Y-70082400D01*
X166470804Y-69736515D01*
X166612000Y-69328586D01*
X166772546Y-68864606D01*
X166950370Y-68350569D01*
X167143397Y-67792470D01*
X167349556Y-67196304D01*
X167566772Y-66568063D01*
X167792974Y-65913742D01*
X168026087Y-65239335D01*
X168264039Y-64550837D01*
X168504757Y-63854241D01*
X168635679Y-63475333D01*
X169041794Y-62300163D01*
X169421263Y-61202603D01*
X169774958Y-60180188D01*
X170103745Y-59230456D01*
X170408495Y-58350946D01*
X170690076Y-57539193D01*
X170949357Y-56792736D01*
X171187208Y-56109111D01*
X171404497Y-55485856D01*
X171602093Y-54920509D01*
X171780865Y-54410606D01*
X171941683Y-53953685D01*
X172085414Y-53547283D01*
X172212929Y-53188938D01*
X172325096Y-52876186D01*
X172422785Y-52606565D01*
X172506863Y-52377613D01*
X172578200Y-52186867D01*
X172637666Y-52031863D01*
X172686129Y-51910140D01*
X172724458Y-51819235D01*
X172753521Y-51756684D01*
X172774189Y-51720026D01*
X172787330Y-51706797D01*
X172788372Y-51706667D01*
X172824017Y-51735383D01*
X172824017Y-51735383D01*
G37*
X172824017Y-51735383D02*
X172879420Y-51822333D01*
X172955044Y-51968720D01*
X173051355Y-52175745D01*
X173168815Y-52444609D01*
X173307890Y-52776515D01*
X173469043Y-53172666D01*
X173652739Y-53634262D01*
X173859441Y-54162505D01*
X174089614Y-54758599D01*
X174343722Y-55423744D01*
X174622229Y-56159143D01*
X174925599Y-56965997D01*
X175254296Y-57845508D01*
X175608785Y-58798879D01*
X175989529Y-59827312D01*
X176396992Y-60932008D01*
X176831640Y-62114169D01*
X177291922Y-63369500D01*
X177516825Y-63984284D01*
X177747520Y-64616125D01*
X177981027Y-65256790D01*
X178214365Y-65898046D01*
X178444550Y-66531660D01*
X178668603Y-67149400D01*
X178883541Y-67743034D01*
X179086383Y-68304329D01*
X179274147Y-68825051D01*
X179443852Y-69296970D01*
X179592517Y-69711851D01*
X179717160Y-70061463D01*
X179790949Y-70269833D01*
X179879951Y-70522047D01*
X179961433Y-70752714D01*
X180030411Y-70947746D01*
X180081900Y-71093054D01*
X180110918Y-71174546D01*
X180112882Y-71180000D01*
X180167797Y-71261639D01*
X180269131Y-71289951D01*
X180281293Y-71290530D01*
X180385950Y-71312206D01*
X180480541Y-71375766D01*
X180573027Y-71491166D01*
X180671371Y-71668362D01*
X180783536Y-71917311D01*
X180784622Y-71919882D01*
X180885134Y-72183424D01*
X180936949Y-72389591D01*
X180940422Y-72550020D01*
X180895909Y-72676348D01*
X180810684Y-72774352D01*
X180704134Y-72866003D01*
X180928664Y-73409418D01*
X181026297Y-73649923D01*
X181144442Y-73948052D01*
X181280747Y-74297445D01*
X181432860Y-74691747D01*
X181598429Y-75124599D01*
X181775103Y-75589643D01*
X181960528Y-76080522D01*
X182152355Y-76590879D01*
X182348229Y-77114355D01*
X182545800Y-77644594D01*
X182742716Y-78175238D01*
X182936624Y-78699929D01*
X183125173Y-79212309D01*
X183306011Y-79706021D01*
X183476785Y-80174708D01*
X183635145Y-80612011D01*
X183778737Y-81011574D01*
X183905211Y-81367038D01*
X184012214Y-81672047D01*
X184097394Y-81920241D01*
X184158399Y-82105265D01*
X184192877Y-82220760D01*
X184199501Y-82250924D01*
X184211290Y-82368163D01*
X184200035Y-82424070D01*
X184159589Y-82440279D01*
X184145574Y-82440667D01*
X184090300Y-82420430D01*
X183971039Y-82363055D01*
X183797239Y-82273545D01*
X183578345Y-82156902D01*
X183323806Y-82018130D01*
X183043068Y-81862229D01*
X182880403Y-81770705D01*
X182633663Y-81630871D01*
X182323578Y-81454547D01*
X181960187Y-81247471D01*
X181553530Y-81015381D01*
X181113645Y-80764014D01*
X180650573Y-80499107D01*
X180174352Y-80226399D01*
X179695022Y-79951627D01*
X179222622Y-79680528D01*
X179112833Y-79617476D01*
X178650014Y-79351956D01*
X178182785Y-79084506D01*
X177720501Y-78820444D01*
X177272517Y-78565086D01*
X176848185Y-78323753D01*
X176456859Y-78101761D01*
X176107895Y-77904428D01*
X175810646Y-77737072D01*
X175574465Y-77605012D01*
X175514500Y-77571733D01*
X175203710Y-77400776D01*
X174885590Y-77227785D01*
X174569270Y-77057545D01*
X174263879Y-76894839D01*
X173978546Y-76744453D01*
X173722401Y-76611172D01*
X173504572Y-76499780D01*
X173334190Y-76415061D01*
X173220384Y-76361801D01*
X173173245Y-76344695D01*
X173127128Y-76366175D01*
X173013474Y-76428674D01*
X172837141Y-76529314D01*
X172602988Y-76665217D01*
X172315876Y-76833502D01*
X171980662Y-77031291D01*
X171602207Y-77255706D01*
X171185369Y-77503868D01*
X170735009Y-77772897D01*
X170255984Y-78059914D01*
X169753155Y-78362042D01*
X169231381Y-78676401D01*
X168910500Y-78870140D01*
X168061305Y-79381061D01*
X167280229Y-79846279D01*
X166564930Y-80267028D01*
X165913062Y-80644543D01*
X165322282Y-80980060D01*
X164790246Y-81274815D01*
X164314609Y-81530041D01*
X163893028Y-81746975D01*
X163523158Y-81926851D01*
X163202656Y-82070906D01*
X162929177Y-82180373D01*
X162700378Y-82256488D01*
X162513914Y-82300487D01*
X162375712Y-82313667D01*
X162159244Y-82295880D01*
X162018664Y-82242191D01*
X161952952Y-82152103D01*
X161947402Y-82105788D01*
X161975782Y-81847525D01*
X162050847Y-81556127D01*
X162162145Y-81260944D01*
X162299227Y-80991325D01*
X162396436Y-80844708D01*
X162467224Y-80779456D01*
X162609082Y-80675963D01*
X162818583Y-80536223D01*
X163092303Y-80362232D01*
X163426815Y-80155983D01*
X163818695Y-79919474D01*
X164264516Y-79654697D01*
X164760854Y-79363649D01*
X165304283Y-79048325D01*
X165891377Y-78710719D01*
X166518711Y-78352827D01*
X167182860Y-77976643D01*
X167880397Y-77584162D01*
X168607898Y-77177380D01*
X169361937Y-76758292D01*
X170139089Y-76328893D01*
X170341129Y-76217667D01*
X170658072Y-76042775D01*
X170950452Y-75880397D01*
X171210240Y-75735071D01*
X171429409Y-75611333D01*
X171599929Y-75513722D01*
X171713773Y-75446775D01*
X171762911Y-75415029D01*
X171764270Y-75413333D01*
X171728512Y-75388857D01*
X171626365Y-75326995D01*
X171465190Y-75231947D01*
X171252348Y-75107912D01*
X170995200Y-74959089D01*
X170701109Y-74789676D01*
X170377434Y-74603872D01*
X170031539Y-74405877D01*
X169670784Y-74199890D01*
X169302530Y-73990108D01*
X168934139Y-73780732D01*
X168572972Y-73575961D01*
X168226391Y-73379993D01*
X167901757Y-73197026D01*
X167606432Y-73031262D01*
X167347776Y-72886897D01*
X167133151Y-72768131D01*
X166987181Y-72688468D01*
X166634810Y-72501072D01*
X166335359Y-72347858D01*
X166093311Y-72230960D01*
X165913150Y-72152510D01*
X165799361Y-72114642D01*
X165773887Y-72111333D01*
X165726906Y-72075189D01*
X165714333Y-72013976D01*
X165727877Y-71951792D01*
X165766333Y-71819851D01*
X165826432Y-71628237D01*
X165904909Y-71387035D01*
X165998496Y-71106327D01*
X166103927Y-70796197D01*
X166184048Y-70564059D01*
X166254755Y-70360246D01*
X166351031Y-70082400D01*
X166470804Y-69736515D01*
X166612000Y-69328586D01*
X166772546Y-68864606D01*
X166950370Y-68350569D01*
X167143397Y-67792470D01*
X167349556Y-67196304D01*
X167566772Y-66568063D01*
X167792974Y-65913742D01*
X168026087Y-65239335D01*
X168264039Y-64550837D01*
X168504757Y-63854241D01*
X168635679Y-63475333D01*
X169041794Y-62300163D01*
X169421263Y-61202603D01*
X169774958Y-60180188D01*
X170103745Y-59230456D01*
X170408495Y-58350946D01*
X170690076Y-57539193D01*
X170949357Y-56792736D01*
X171187208Y-56109111D01*
X171404497Y-55485856D01*
X171602093Y-54920509D01*
X171780865Y-54410606D01*
X171941683Y-53953685D01*
X172085414Y-53547283D01*
X172212929Y-53188938D01*
X172325096Y-52876186D01*
X172422785Y-52606565D01*
X172506863Y-52377613D01*
X172578200Y-52186867D01*
X172637666Y-52031863D01*
X172686129Y-51910140D01*
X172724458Y-51819235D01*
X172753521Y-51756684D01*
X172774189Y-51720026D01*
X172787330Y-51706797D01*
X172788372Y-51706667D01*
X172824017Y-51735383D01*
G36*
X140941934Y-51520503D02*
X141179581Y-51592880D01*
X141357302Y-51710363D01*
X141380462Y-51734225D01*
X141414027Y-51803243D01*
X141460657Y-51946311D01*
X141517820Y-52154265D01*
X141582983Y-52417936D01*
X141647777Y-52701642D01*
X142137979Y-54749609D01*
X142698961Y-56770096D01*
X143333741Y-58772457D01*
X144045339Y-60766049D01*
X144836773Y-62760226D01*
X145078650Y-63332965D01*
X145670526Y-64667415D01*
X146316711Y-66034433D01*
X147006194Y-67412720D01*
X147727964Y-68780977D01*
X148471008Y-70117907D01*
X149224315Y-71402210D01*
X149400319Y-71691922D01*
X149752317Y-72267344D01*
X150526075Y-72361159D01*
X151195584Y-72440668D01*
X151942831Y-72526261D01*
X152768663Y-72618028D01*
X153673931Y-72716059D01*
X154659483Y-72820444D01*
X155726168Y-72931273D01*
X156874836Y-73048636D01*
X158106335Y-73172623D01*
X159205583Y-73281973D01*
X159745695Y-73335805D01*
X160206818Y-73382654D01*
X160594288Y-73423172D01*
X160913437Y-73458013D01*
X161169599Y-73487831D01*
X161368107Y-73513277D01*
X161514296Y-73535006D01*
X161613500Y-73553671D01*
X161671051Y-73569926D01*
X161692283Y-73584423D01*
X161692667Y-73586605D01*
X161680344Y-73644041D01*
X161646095Y-73768178D01*
X161594001Y-73945147D01*
X161528140Y-74161074D01*
X161455913Y-74391623D01*
X161315799Y-74832603D01*
X161153485Y-75342005D01*
X160972862Y-75907704D01*
X160777819Y-76517576D01*
X160572247Y-77159494D01*
X160360036Y-77821336D01*
X160145077Y-78490975D01*
X159931258Y-79156287D01*
X159722472Y-79805147D01*
X159522606Y-80425430D01*
X159335553Y-81005012D01*
X159165202Y-81531768D01*
X159149187Y-81581220D01*
X158474608Y-83663939D01*
X158544701Y-83810926D01*
X158574461Y-83880364D01*
X158589494Y-83947046D01*
X158588970Y-84030337D01*
X158572059Y-84149601D01*
X158537930Y-84324199D01*
X158518748Y-84416373D01*
X158449950Y-84712401D01*
X158381455Y-84932661D01*
X158308419Y-85085896D01*
X158225998Y-85180846D01*
X158129347Y-85226254D01*
X158066035Y-85233320D01*
X158010029Y-85248978D01*
X157963584Y-85305335D01*
X157915400Y-85419307D01*
X157888400Y-85499250D01*
X157860075Y-85586960D01*
X157808421Y-85747342D01*
X157735991Y-85972451D01*
X157645338Y-86254346D01*
X157539015Y-86585084D01*
X157419576Y-86956722D01*
X157289574Y-87361318D01*
X157151562Y-87790929D01*
X157014018Y-88219167D01*
X156793520Y-88904090D01*
X156570691Y-89593102D01*
X156347139Y-90281395D01*
X156124469Y-90964163D01*
X155904289Y-91636600D01*
X155688207Y-92293899D01*
X155477828Y-92931254D01*
X155274759Y-93543857D01*
X155080609Y-94126904D01*
X154896983Y-94675586D01*
X154725488Y-95185098D01*
X154567733Y-95650633D01*
X154425322Y-96067385D01*
X154299865Y-96430548D01*
X154192966Y-96735314D01*
X154106234Y-96976877D01*
X154041275Y-97150431D01*
X153999697Y-97251169D01*
X153986418Y-97274896D01*
X153949214Y-97263088D01*
X153895387Y-97183060D01*
X153858188Y-97105563D01*
X153818184Y-97010287D01*
X153752245Y-96848788D01*
X153659999Y-96620125D01*
X153541071Y-96323358D01*
X153395090Y-95957545D01*
X153221682Y-95521747D01*
X153020474Y-95015023D01*
X152791094Y-94436433D01*
X152533168Y-93785036D01*
X152246323Y-93059892D01*
X151930187Y-92260060D01*
X151584385Y-91384600D01*
X151208546Y-90432572D01*
X150802297Y-89403035D01*
X150635876Y-88981167D01*
X150066403Y-87537025D01*
X149527623Y-86169765D01*
X149018859Y-84877627D01*
X148539437Y-83658852D01*
X148088680Y-82511679D01*
X147665914Y-81434350D01*
X147270464Y-80425103D01*
X146901653Y-79482181D01*
X146558807Y-78603822D01*
X146241250Y-77788267D01*
X145948307Y-77033756D01*
X145679302Y-76338531D01*
X145433559Y-75700829D01*
X145210405Y-75118893D01*
X145009162Y-74590963D01*
X144829157Y-74115278D01*
X144669713Y-73690079D01*
X144530154Y-73313605D01*
X144409807Y-72984099D01*
X144307994Y-72699799D01*
X144224042Y-72458946D01*
X144157274Y-72259780D01*
X144107015Y-72100541D01*
X144072589Y-71979470D01*
X144053322Y-71894807D01*
X144048538Y-71844793D01*
X144053176Y-71829712D01*
X144100787Y-71826191D01*
X144222536Y-71829493D01*
X144408223Y-71838997D01*
X144647649Y-71854079D01*
X144930612Y-71874117D01*
X145246914Y-71898489D01*
X145447112Y-71914821D01*
X145846353Y-71946327D01*
X146230606Y-71973379D01*
X146591109Y-71995619D01*
X146919101Y-72012690D01*
X147205818Y-72024233D01*
X147442500Y-72029892D01*
X147620383Y-72029307D01*
X147730705Y-72022123D01*
X147765000Y-72009438D01*
X147744669Y-71968433D01*
X147689386Y-71869813D01*
X147607717Y-71728591D01*
X147513354Y-71568407D01*
X147187683Y-71008790D01*
X146838390Y-70388363D01*
X146474598Y-69724396D01*
X146105428Y-69034160D01*
X145740003Y-68334924D01*
X145387445Y-67643957D01*
X145056877Y-66978529D01*
X144757421Y-66355909D01*
X144736586Y-66311667D01*
X143989182Y-64659093D01*
X143293522Y-62992430D01*
X142652660Y-61320654D01*
X142069645Y-59652741D01*
X141547527Y-57997668D01*
X141089359Y-56364410D01*
X140698191Y-54761944D01*
X140506356Y-53865667D01*
X140448246Y-53586591D01*
X140385835Y-53299655D01*
X140324824Y-53030246D01*
X140270912Y-52803751D01*
X140244997Y-52701500D01*
X140193550Y-52473366D01*
X140155872Y-52241508D01*
X140133236Y-52023312D01*
X140126917Y-51836164D01*
X140138191Y-51697451D01*
X140166167Y-51626561D01*
X140237821Y-51592871D01*
X140368260Y-51561146D01*
X140531616Y-51534923D01*
X140702020Y-51517739D01*
X140853604Y-51513130D01*
X140941934Y-51520503D01*
X140941934Y-51520503D01*
G37*
X140941934Y-51520503D02*
X141179581Y-51592880D01*
X141357302Y-51710363D01*
X141380462Y-51734225D01*
X141414027Y-51803243D01*
X141460657Y-51946311D01*
X141517820Y-52154265D01*
X141582983Y-52417936D01*
X141647777Y-52701642D01*
X142137979Y-54749609D01*
X142698961Y-56770096D01*
X143333741Y-58772457D01*
X144045339Y-60766049D01*
X144836773Y-62760226D01*
X145078650Y-63332965D01*
X145670526Y-64667415D01*
X146316711Y-66034433D01*
X147006194Y-67412720D01*
X147727964Y-68780977D01*
X148471008Y-70117907D01*
X149224315Y-71402210D01*
X149400319Y-71691922D01*
X149752317Y-72267344D01*
X150526075Y-72361159D01*
X151195584Y-72440668D01*
X151942831Y-72526261D01*
X152768663Y-72618028D01*
X153673931Y-72716059D01*
X154659483Y-72820444D01*
X155726168Y-72931273D01*
X156874836Y-73048636D01*
X158106335Y-73172623D01*
X159205583Y-73281973D01*
X159745695Y-73335805D01*
X160206818Y-73382654D01*
X160594288Y-73423172D01*
X160913437Y-73458013D01*
X161169599Y-73487831D01*
X161368107Y-73513277D01*
X161514296Y-73535006D01*
X161613500Y-73553671D01*
X161671051Y-73569926D01*
X161692283Y-73584423D01*
X161692667Y-73586605D01*
X161680344Y-73644041D01*
X161646095Y-73768178D01*
X161594001Y-73945147D01*
X161528140Y-74161074D01*
X161455913Y-74391623D01*
X161315799Y-74832603D01*
X161153485Y-75342005D01*
X160972862Y-75907704D01*
X160777819Y-76517576D01*
X160572247Y-77159494D01*
X160360036Y-77821336D01*
X160145077Y-78490975D01*
X159931258Y-79156287D01*
X159722472Y-79805147D01*
X159522606Y-80425430D01*
X159335553Y-81005012D01*
X159165202Y-81531768D01*
X159149187Y-81581220D01*
X158474608Y-83663939D01*
X158544701Y-83810926D01*
X158574461Y-83880364D01*
X158589494Y-83947046D01*
X158588970Y-84030337D01*
X158572059Y-84149601D01*
X158537930Y-84324199D01*
X158518748Y-84416373D01*
X158449950Y-84712401D01*
X158381455Y-84932661D01*
X158308419Y-85085896D01*
X158225998Y-85180846D01*
X158129347Y-85226254D01*
X158066035Y-85233320D01*
X158010029Y-85248978D01*
X157963584Y-85305335D01*
X157915400Y-85419307D01*
X157888400Y-85499250D01*
X157860075Y-85586960D01*
X157808421Y-85747342D01*
X157735991Y-85972451D01*
X157645338Y-86254346D01*
X157539015Y-86585084D01*
X157419576Y-86956722D01*
X157289574Y-87361318D01*
X157151562Y-87790929D01*
X157014018Y-88219167D01*
X156793520Y-88904090D01*
X156570691Y-89593102D01*
X156347139Y-90281395D01*
X156124469Y-90964163D01*
X155904289Y-91636600D01*
X155688207Y-92293899D01*
X155477828Y-92931254D01*
X155274759Y-93543857D01*
X155080609Y-94126904D01*
X154896983Y-94675586D01*
X154725488Y-95185098D01*
X154567733Y-95650633D01*
X154425322Y-96067385D01*
X154299865Y-96430548D01*
X154192966Y-96735314D01*
X154106234Y-96976877D01*
X154041275Y-97150431D01*
X153999697Y-97251169D01*
X153986418Y-97274896D01*
X153949214Y-97263088D01*
X153895387Y-97183060D01*
X153858188Y-97105563D01*
X153818184Y-97010287D01*
X153752245Y-96848788D01*
X153659999Y-96620125D01*
X153541071Y-96323358D01*
X153395090Y-95957545D01*
X153221682Y-95521747D01*
X153020474Y-95015023D01*
X152791094Y-94436433D01*
X152533168Y-93785036D01*
X152246323Y-93059892D01*
X151930187Y-92260060D01*
X151584385Y-91384600D01*
X151208546Y-90432572D01*
X150802297Y-89403035D01*
X150635876Y-88981167D01*
X150066403Y-87537025D01*
X149527623Y-86169765D01*
X149018859Y-84877627D01*
X148539437Y-83658852D01*
X148088680Y-82511679D01*
X147665914Y-81434350D01*
X147270464Y-80425103D01*
X146901653Y-79482181D01*
X146558807Y-78603822D01*
X146241250Y-77788267D01*
X145948307Y-77033756D01*
X145679302Y-76338531D01*
X145433559Y-75700829D01*
X145210405Y-75118893D01*
X145009162Y-74590963D01*
X144829157Y-74115278D01*
X144669713Y-73690079D01*
X144530154Y-73313605D01*
X144409807Y-72984099D01*
X144307994Y-72699799D01*
X144224042Y-72458946D01*
X144157274Y-72259780D01*
X144107015Y-72100541D01*
X144072589Y-71979470D01*
X144053322Y-71894807D01*
X144048538Y-71844793D01*
X144053176Y-71829712D01*
X144100787Y-71826191D01*
X144222536Y-71829493D01*
X144408223Y-71838997D01*
X144647649Y-71854079D01*
X144930612Y-71874117D01*
X145246914Y-71898489D01*
X145447112Y-71914821D01*
X145846353Y-71946327D01*
X146230606Y-71973379D01*
X146591109Y-71995619D01*
X146919101Y-72012690D01*
X147205818Y-72024233D01*
X147442500Y-72029892D01*
X147620383Y-72029307D01*
X147730705Y-72022123D01*
X147765000Y-72009438D01*
X147744669Y-71968433D01*
X147689386Y-71869813D01*
X147607717Y-71728591D01*
X147513354Y-71568407D01*
X147187683Y-71008790D01*
X146838390Y-70388363D01*
X146474598Y-69724396D01*
X146105428Y-69034160D01*
X145740003Y-68334924D01*
X145387445Y-67643957D01*
X145056877Y-66978529D01*
X144757421Y-66355909D01*
X144736586Y-66311667D01*
X143989182Y-64659093D01*
X143293522Y-62992430D01*
X142652660Y-61320654D01*
X142069645Y-59652741D01*
X141547527Y-57997668D01*
X141089359Y-56364410D01*
X140698191Y-54761944D01*
X140506356Y-53865667D01*
X140448246Y-53586591D01*
X140385835Y-53299655D01*
X140324824Y-53030246D01*
X140270912Y-52803751D01*
X140244997Y-52701500D01*
X140193550Y-52473366D01*
X140155872Y-52241508D01*
X140133236Y-52023312D01*
X140126917Y-51836164D01*
X140138191Y-51697451D01*
X140166167Y-51626561D01*
X140237821Y-51592871D01*
X140368260Y-51561146D01*
X140531616Y-51534923D01*
X140702020Y-51517739D01*
X140853604Y-51513130D01*
X140941934Y-51520503D01*
G36*
X124791656Y-51542247D02*
X124957128Y-51554967D01*
X125062258Y-51574889D01*
X125077116Y-51581156D01*
X125142589Y-51659829D01*
X125161067Y-51784330D01*
X125133723Y-51930859D01*
X125061734Y-52075617D01*
X125052038Y-52089196D01*
X124967125Y-52183606D01*
X124852086Y-52286408D01*
X124729850Y-52379920D01*
X124623342Y-52446459D01*
X124560034Y-52468667D01*
X124509831Y-52492991D01*
X124404198Y-52560321D01*
X124254930Y-52662189D01*
X124073820Y-52790127D01*
X123872663Y-52935669D01*
X123663252Y-53090347D01*
X123457383Y-53245694D01*
X123266848Y-53393244D01*
X123214968Y-53434303D01*
X122201998Y-54293793D01*
X121229383Y-55226874D01*
X120298069Y-56232201D01*
X119409002Y-57308430D01*
X118563128Y-58454215D01*
X117761392Y-59668212D01*
X117004741Y-60949076D01*
X116294119Y-62295463D01*
X115630473Y-63706027D01*
X115092793Y-64982517D01*
X114997644Y-65228346D01*
X114888321Y-65524053D01*
X114767257Y-65862078D01*
X114636881Y-66234864D01*
X114499626Y-66634851D01*
X114357924Y-67054479D01*
X114214206Y-67486190D01*
X114070903Y-67922425D01*
X113930447Y-68355624D01*
X113795270Y-68778229D01*
X113667802Y-69182679D01*
X113550476Y-69561418D01*
X113445723Y-69906884D01*
X113355974Y-70211520D01*
X113283662Y-70467765D01*
X113231217Y-70668061D01*
X113201071Y-70804850D01*
X113195655Y-70870571D01*
X113197578Y-70874356D01*
X113248590Y-70880607D01*
X113381294Y-70880970D01*
X113592931Y-70875599D01*
X113880744Y-70864647D01*
X114241973Y-70848270D01*
X114673860Y-70826620D01*
X115173646Y-70799851D01*
X115738573Y-70768117D01*
X116365881Y-70731571D01*
X117052814Y-70690369D01*
X117796611Y-70644663D01*
X118594514Y-70594607D01*
X119443765Y-70540355D01*
X120341605Y-70482061D01*
X120946833Y-70442282D01*
X121460141Y-70408554D01*
X121895395Y-70380409D01*
X122259007Y-70357570D01*
X122557386Y-70339760D01*
X122796943Y-70326700D01*
X122984089Y-70318115D01*
X123125233Y-70313727D01*
X123226787Y-70313258D01*
X123295161Y-70316432D01*
X123336764Y-70322971D01*
X123358008Y-70332599D01*
X123362611Y-70337827D01*
X123364525Y-70349283D01*
X123361840Y-70373064D01*
X123353568Y-70412144D01*
X123338719Y-70469498D01*
X123316304Y-70548100D01*
X123285336Y-70650925D01*
X123244824Y-70780947D01*
X123193780Y-70941140D01*
X123131216Y-71134478D01*
X123056143Y-71363937D01*
X122967571Y-71632490D01*
X122864512Y-71943112D01*
X122745978Y-72298777D01*
X122610978Y-72702460D01*
X122458526Y-73157135D01*
X122287631Y-73665775D01*
X122097305Y-74231357D01*
X121886559Y-74856854D01*
X121654404Y-75545240D01*
X121399852Y-76299490D01*
X121121913Y-77122578D01*
X120819600Y-78017478D01*
X120491922Y-78987166D01*
X120204633Y-79837167D01*
X119680424Y-81387922D01*
X119182788Y-82859839D01*
X118711252Y-84254311D01*
X118265344Y-85572732D01*
X117844589Y-86816492D01*
X117448516Y-87986987D01*
X117076651Y-89085607D01*
X116728520Y-90113747D01*
X116403652Y-91072799D01*
X116101572Y-91964155D01*
X115821809Y-92789209D01*
X115563888Y-93549353D01*
X115327337Y-94245981D01*
X115111683Y-94880484D01*
X114916453Y-95454256D01*
X114741174Y-95968690D01*
X114585373Y-96425178D01*
X114448576Y-96825114D01*
X114330311Y-97169889D01*
X114230105Y-97460898D01*
X114147485Y-97699532D01*
X114081977Y-97887185D01*
X114033109Y-98025249D01*
X114000407Y-98115117D01*
X113983399Y-98158182D01*
X113981070Y-98162452D01*
X113948725Y-98145202D01*
X113894155Y-98065890D01*
X113827944Y-97940506D01*
X113812924Y-97908452D01*
X113725834Y-97710690D01*
X113612100Y-97439800D01*
X113474149Y-97102173D01*
X113314410Y-96704198D01*
X113135308Y-96252266D01*
X112939272Y-95752769D01*
X112728728Y-95212098D01*
X112506104Y-94636642D01*
X112273827Y-94032793D01*
X112034325Y-93406941D01*
X111790024Y-92765477D01*
X111543352Y-92114793D01*
X111296736Y-91461278D01*
X111052603Y-90811323D01*
X110813381Y-90171320D01*
X110581497Y-89547658D01*
X110359377Y-88946730D01*
X110149450Y-88374924D01*
X109954142Y-87838633D01*
X109775881Y-87344247D01*
X109617094Y-86898157D01*
X109480208Y-86506753D01*
X109457589Y-86441167D01*
X109093500Y-85382833D01*
X108960467Y-85395759D01*
X108855840Y-85389352D01*
X108776551Y-85332180D01*
X108735962Y-85280223D01*
X108619060Y-85083428D01*
X108498121Y-84820717D01*
X108380598Y-84510056D01*
X108273944Y-84169414D01*
X108271423Y-84160461D01*
X108216762Y-83960470D01*
X108184365Y-83820395D01*
X108171976Y-83719117D01*
X108177338Y-83635515D01*
X108198192Y-83548468D01*
X108203946Y-83529047D01*
X108222227Y-83464226D01*
X108231765Y-83405049D01*
X108229371Y-83339206D01*
X108211860Y-83254390D01*
X108176046Y-83138292D01*
X108118743Y-82978604D01*
X108036765Y-82763018D01*
X107942753Y-82520052D01*
X107771633Y-82077361D01*
X107586023Y-81594759D01*
X107387871Y-81077448D01*
X107179128Y-80530630D01*
X106961741Y-79959507D01*
X106737659Y-79369280D01*
X106508831Y-78765151D01*
X106277205Y-78152323D01*
X106044730Y-77535996D01*
X105813356Y-76921374D01*
X105585029Y-76313657D01*
X105361700Y-75718048D01*
X105145318Y-75139749D01*
X104937829Y-74583961D01*
X104741184Y-74055886D01*
X104557331Y-73560726D01*
X104388219Y-73103683D01*
X104235797Y-72689959D01*
X104102012Y-72324755D01*
X103988814Y-72013274D01*
X103898152Y-71760717D01*
X103831974Y-71572287D01*
X103792230Y-71453185D01*
X103780667Y-71409780D01*
X103783140Y-71397710D01*
X103794702Y-71387016D01*
X103821568Y-71377298D01*
X103869953Y-71368158D01*
X103946072Y-71359194D01*
X104056139Y-71350007D01*
X104206369Y-71340198D01*
X104402977Y-71329366D01*
X104652179Y-71317113D01*
X104960187Y-71303037D01*
X105333218Y-71286740D01*
X105777487Y-71267822D01*
X106299207Y-71245883D01*
X106384167Y-71242322D01*
X107274430Y-71203888D01*
X108080427Y-71166720D01*
X108802548Y-71130793D01*
X109441184Y-71096079D01*
X109996725Y-71062552D01*
X110469561Y-71030187D01*
X110860083Y-70998956D01*
X111168681Y-70968834D01*
X111395746Y-70939794D01*
X111541668Y-70911810D01*
X111599917Y-70890376D01*
X111629452Y-70839912D01*
X111673610Y-70726727D01*
X111725366Y-70569952D01*
X111757880Y-70460333D01*
X111910346Y-69937773D01*
X112086207Y-69357919D01*
X112279797Y-68738078D01*
X112485450Y-68095558D01*
X112697499Y-67447665D01*
X112910278Y-66811706D01*
X113118120Y-66204989D01*
X113315359Y-65644820D01*
X113496329Y-65148507D01*
X113501882Y-65133621D01*
X114009051Y-63873381D01*
X114589805Y-62607673D01*
X115235676Y-61351911D01*
X115938198Y-60121511D01*
X116688905Y-58931886D01*
X117479329Y-57798452D01*
X117676409Y-57533301D01*
X118191370Y-56862738D01*
X118688676Y-56244742D01*
X119186421Y-55658489D01*
X119702700Y-55083150D01*
X120255609Y-54497900D01*
X120755011Y-53989991D01*
X121249201Y-53500178D01*
X121691902Y-53072488D01*
X122086212Y-52704323D01*
X122435229Y-52393084D01*
X122742051Y-52136173D01*
X123009773Y-51930991D01*
X123241495Y-51774942D01*
X123440314Y-51665426D01*
X123601907Y-51602011D01*
X123728080Y-51577200D01*
X123908583Y-51557969D01*
X124124305Y-51544588D01*
X124356132Y-51537328D01*
X124584953Y-51536457D01*
X124791656Y-51542247D01*
X124791656Y-51542247D01*
G37*
X124791656Y-51542247D02*
X124957128Y-51554967D01*
X125062258Y-51574889D01*
X125077116Y-51581156D01*
X125142589Y-51659829D01*
X125161067Y-51784330D01*
X125133723Y-51930859D01*
X125061734Y-52075617D01*
X125052038Y-52089196D01*
X124967125Y-52183606D01*
X124852086Y-52286408D01*
X124729850Y-52379920D01*
X124623342Y-52446459D01*
X124560034Y-52468667D01*
X124509831Y-52492991D01*
X124404198Y-52560321D01*
X124254930Y-52662189D01*
X124073820Y-52790127D01*
X123872663Y-52935669D01*
X123663252Y-53090347D01*
X123457383Y-53245694D01*
X123266848Y-53393244D01*
X123214968Y-53434303D01*
X122201998Y-54293793D01*
X121229383Y-55226874D01*
X120298069Y-56232201D01*
X119409002Y-57308430D01*
X118563128Y-58454215D01*
X117761392Y-59668212D01*
X117004741Y-60949076D01*
X116294119Y-62295463D01*
X115630473Y-63706027D01*
X115092793Y-64982517D01*
X114997644Y-65228346D01*
X114888321Y-65524053D01*
X114767257Y-65862078D01*
X114636881Y-66234864D01*
X114499626Y-66634851D01*
X114357924Y-67054479D01*
X114214206Y-67486190D01*
X114070903Y-67922425D01*
X113930447Y-68355624D01*
X113795270Y-68778229D01*
X113667802Y-69182679D01*
X113550476Y-69561418D01*
X113445723Y-69906884D01*
X113355974Y-70211520D01*
X113283662Y-70467765D01*
X113231217Y-70668061D01*
X113201071Y-70804850D01*
X113195655Y-70870571D01*
X113197578Y-70874356D01*
X113248590Y-70880607D01*
X113381294Y-70880970D01*
X113592931Y-70875599D01*
X113880744Y-70864647D01*
X114241973Y-70848270D01*
X114673860Y-70826620D01*
X115173646Y-70799851D01*
X115738573Y-70768117D01*
X116365881Y-70731571D01*
X117052814Y-70690369D01*
X117796611Y-70644663D01*
X118594514Y-70594607D01*
X119443765Y-70540355D01*
X120341605Y-70482061D01*
X120946833Y-70442282D01*
X121460141Y-70408554D01*
X121895395Y-70380409D01*
X122259007Y-70357570D01*
X122557386Y-70339760D01*
X122796943Y-70326700D01*
X122984089Y-70318115D01*
X123125233Y-70313727D01*
X123226787Y-70313258D01*
X123295161Y-70316432D01*
X123336764Y-70322971D01*
X123358008Y-70332599D01*
X123362611Y-70337827D01*
X123364525Y-70349283D01*
X123361840Y-70373064D01*
X123353568Y-70412144D01*
X123338719Y-70469498D01*
X123316304Y-70548100D01*
X123285336Y-70650925D01*
X123244824Y-70780947D01*
X123193780Y-70941140D01*
X123131216Y-71134478D01*
X123056143Y-71363937D01*
X122967571Y-71632490D01*
X122864512Y-71943112D01*
X122745978Y-72298777D01*
X122610978Y-72702460D01*
X122458526Y-73157135D01*
X122287631Y-73665775D01*
X122097305Y-74231357D01*
X121886559Y-74856854D01*
X121654404Y-75545240D01*
X121399852Y-76299490D01*
X121121913Y-77122578D01*
X120819600Y-78017478D01*
X120491922Y-78987166D01*
X120204633Y-79837167D01*
X119680424Y-81387922D01*
X119182788Y-82859839D01*
X118711252Y-84254311D01*
X118265344Y-85572732D01*
X117844589Y-86816492D01*
X117448516Y-87986987D01*
X117076651Y-89085607D01*
X116728520Y-90113747D01*
X116403652Y-91072799D01*
X116101572Y-91964155D01*
X115821809Y-92789209D01*
X115563888Y-93549353D01*
X115327337Y-94245981D01*
X115111683Y-94880484D01*
X114916453Y-95454256D01*
X114741174Y-95968690D01*
X114585373Y-96425178D01*
X114448576Y-96825114D01*
X114330311Y-97169889D01*
X114230105Y-97460898D01*
X114147485Y-97699532D01*
X114081977Y-97887185D01*
X114033109Y-98025249D01*
X114000407Y-98115117D01*
X113983399Y-98158182D01*
X113981070Y-98162452D01*
X113948725Y-98145202D01*
X113894155Y-98065890D01*
X113827944Y-97940506D01*
X113812924Y-97908452D01*
X113725834Y-97710690D01*
X113612100Y-97439800D01*
X113474149Y-97102173D01*
X113314410Y-96704198D01*
X113135308Y-96252266D01*
X112939272Y-95752769D01*
X112728728Y-95212098D01*
X112506104Y-94636642D01*
X112273827Y-94032793D01*
X112034325Y-93406941D01*
X111790024Y-92765477D01*
X111543352Y-92114793D01*
X111296736Y-91461278D01*
X111052603Y-90811323D01*
X110813381Y-90171320D01*
X110581497Y-89547658D01*
X110359377Y-88946730D01*
X110149450Y-88374924D01*
X109954142Y-87838633D01*
X109775881Y-87344247D01*
X109617094Y-86898157D01*
X109480208Y-86506753D01*
X109457589Y-86441167D01*
X109093500Y-85382833D01*
X108960467Y-85395759D01*
X108855840Y-85389352D01*
X108776551Y-85332180D01*
X108735962Y-85280223D01*
X108619060Y-85083428D01*
X108498121Y-84820717D01*
X108380598Y-84510056D01*
X108273944Y-84169414D01*
X108271423Y-84160461D01*
X108216762Y-83960470D01*
X108184365Y-83820395D01*
X108171976Y-83719117D01*
X108177338Y-83635515D01*
X108198192Y-83548468D01*
X108203946Y-83529047D01*
X108222227Y-83464226D01*
X108231765Y-83405049D01*
X108229371Y-83339206D01*
X108211860Y-83254390D01*
X108176046Y-83138292D01*
X108118743Y-82978604D01*
X108036765Y-82763018D01*
X107942753Y-82520052D01*
X107771633Y-82077361D01*
X107586023Y-81594759D01*
X107387871Y-81077448D01*
X107179128Y-80530630D01*
X106961741Y-79959507D01*
X106737659Y-79369280D01*
X106508831Y-78765151D01*
X106277205Y-78152323D01*
X106044730Y-77535996D01*
X105813356Y-76921374D01*
X105585029Y-76313657D01*
X105361700Y-75718048D01*
X105145318Y-75139749D01*
X104937829Y-74583961D01*
X104741184Y-74055886D01*
X104557331Y-73560726D01*
X104388219Y-73103683D01*
X104235797Y-72689959D01*
X104102012Y-72324755D01*
X103988814Y-72013274D01*
X103898152Y-71760717D01*
X103831974Y-71572287D01*
X103792230Y-71453185D01*
X103780667Y-71409780D01*
X103783140Y-71397710D01*
X103794702Y-71387016D01*
X103821568Y-71377298D01*
X103869953Y-71368158D01*
X103946072Y-71359194D01*
X104056139Y-71350007D01*
X104206369Y-71340198D01*
X104402977Y-71329366D01*
X104652179Y-71317113D01*
X104960187Y-71303037D01*
X105333218Y-71286740D01*
X105777487Y-71267822D01*
X106299207Y-71245883D01*
X106384167Y-71242322D01*
X107274430Y-71203888D01*
X108080427Y-71166720D01*
X108802548Y-71130793D01*
X109441184Y-71096079D01*
X109996725Y-71062552D01*
X110469561Y-71030187D01*
X110860083Y-70998956D01*
X111168681Y-70968834D01*
X111395746Y-70939794D01*
X111541668Y-70911810D01*
X111599917Y-70890376D01*
X111629452Y-70839912D01*
X111673610Y-70726727D01*
X111725366Y-70569952D01*
X111757880Y-70460333D01*
X111910346Y-69937773D01*
X112086207Y-69357919D01*
X112279797Y-68738078D01*
X112485450Y-68095558D01*
X112697499Y-67447665D01*
X112910278Y-66811706D01*
X113118120Y-66204989D01*
X113315359Y-65644820D01*
X113496329Y-65148507D01*
X113501882Y-65133621D01*
X114009051Y-63873381D01*
X114589805Y-62607673D01*
X115235676Y-61351911D01*
X115938198Y-60121511D01*
X116688905Y-58931886D01*
X117479329Y-57798452D01*
X117676409Y-57533301D01*
X118191370Y-56862738D01*
X118688676Y-56244742D01*
X119186421Y-55658489D01*
X119702700Y-55083150D01*
X120255609Y-54497900D01*
X120755011Y-53989991D01*
X121249201Y-53500178D01*
X121691902Y-53072488D01*
X122086212Y-52704323D01*
X122435229Y-52393084D01*
X122742051Y-52136173D01*
X123009773Y-51930991D01*
X123241495Y-51774942D01*
X123440314Y-51665426D01*
X123601907Y-51602011D01*
X123728080Y-51577200D01*
X123908583Y-51557969D01*
X124124305Y-51544588D01*
X124356132Y-51537328D01*
X124584953Y-51536457D01*
X124791656Y-51542247D01*
G36*
X134023187Y-52627096D02*
X134039354Y-52668395D01*
X134060877Y-52729483D01*
X134109018Y-52866546D01*
X134182400Y-53075654D01*
X134279645Y-53352877D01*
X134399378Y-53694286D01*
X134540219Y-54095950D01*
X134700793Y-54553941D01*
X134879722Y-55064328D01*
X135075630Y-55623181D01*
X135287138Y-56226571D01*
X135512870Y-56870569D01*
X135751449Y-57551244D01*
X136001498Y-58264666D01*
X136261639Y-59006907D01*
X136530496Y-59774035D01*
X136806691Y-60562122D01*
X137088847Y-61367238D01*
X137375587Y-62185453D01*
X137665535Y-63012837D01*
X137957312Y-63845460D01*
X138249543Y-64679393D01*
X138540849Y-65510707D01*
X138829853Y-66335470D01*
X139115179Y-67149754D01*
X139395449Y-67949629D01*
X139669287Y-68731165D01*
X139935315Y-69490433D01*
X140192156Y-70223502D01*
X140438433Y-70926443D01*
X140672768Y-71595326D01*
X140893786Y-72226222D01*
X141100108Y-72815200D01*
X141290357Y-73358331D01*
X141463157Y-73851686D01*
X141617130Y-74291334D01*
X141750899Y-74673345D01*
X141863088Y-74993791D01*
X141952318Y-75248741D01*
X141990550Y-75358020D01*
X142147119Y-75806282D01*
X142295122Y-76231256D01*
X142432221Y-76626157D01*
X142556081Y-76984197D01*
X142664367Y-77298589D01*
X142754744Y-77562549D01*
X142824875Y-77769288D01*
X142872426Y-77912020D01*
X142895061Y-77983959D01*
X142896667Y-77991085D01*
X142854577Y-77998973D01*
X142728275Y-78005470D01*
X142517711Y-78010575D01*
X142222835Y-78014289D01*
X141843598Y-78016613D01*
X141379949Y-78017545D01*
X140831841Y-78017088D01*
X140199222Y-78015239D01*
X139482043Y-78012001D01*
X138745470Y-78007782D01*
X134594273Y-77981933D01*
X134618133Y-78084050D01*
X134633286Y-78147730D01*
X134665852Y-78283765D01*
X134713438Y-78482190D01*
X134773653Y-78733042D01*
X134844105Y-79026357D01*
X134922402Y-79352172D01*
X135003382Y-79689000D01*
X135161433Y-80351488D01*
X135299145Y-80943067D01*
X135417992Y-81474639D01*
X135519446Y-81957104D01*
X135604979Y-82401364D01*
X135676063Y-82818319D01*
X135734171Y-83218870D01*
X135780774Y-83613919D01*
X135817345Y-84014365D01*
X135845357Y-84431111D01*
X135866281Y-84875057D01*
X135881589Y-85357103D01*
X135892755Y-85888151D01*
X135899259Y-86322373D01*
X135905018Y-87095820D01*
X135899948Y-87797544D01*
X135882711Y-88439959D01*
X135851967Y-89035475D01*
X135806377Y-89596504D01*
X135744603Y-90135458D01*
X135665305Y-90664747D01*
X135567145Y-91196785D01*
X135448783Y-91743981D01*
X135308880Y-92318749D01*
X135212557Y-92687571D01*
X135138728Y-92951941D01*
X135045003Y-93268142D01*
X134934736Y-93626265D01*
X134811283Y-94016402D01*
X134677999Y-94428644D01*
X134538240Y-94853083D01*
X134395362Y-95279811D01*
X134252720Y-95698919D01*
X134113669Y-96100500D01*
X133981566Y-96474643D01*
X133859764Y-96811441D01*
X133751621Y-97100986D01*
X133660491Y-97333369D01*
X133589730Y-97498682D01*
X133568203Y-97543177D01*
X133531037Y-97633925D01*
X133480189Y-97781971D01*
X133423826Y-97962815D01*
X133392957Y-98069066D01*
X133311226Y-98340245D01*
X133231562Y-98541644D01*
X133139701Y-98684437D01*
X133021377Y-98779797D01*
X132862324Y-98838898D01*
X132648278Y-98872913D01*
X132364973Y-98893015D01*
X132339330Y-98894335D01*
X132120703Y-98904904D01*
X131969875Y-98908976D01*
X131870087Y-98904348D01*
X131804578Y-98888813D01*
X131756589Y-98860168D01*
X131709362Y-98816208D01*
X131703886Y-98810735D01*
X131616690Y-98682409D01*
X131593667Y-98578360D01*
X131610388Y-98503909D01*
X131657096Y-98365924D01*
X131728608Y-98177888D01*
X131819742Y-97953284D01*
X131925313Y-97705594D01*
X131956499Y-97634519D01*
X132435559Y-96513782D01*
X132858010Y-95448708D01*
X133225731Y-94433740D01*
X133540601Y-93463323D01*
X133804497Y-92531900D01*
X134019299Y-91633917D01*
X134073884Y-91373000D01*
X134189002Y-90711883D01*
X134283073Y-89973046D01*
X134355765Y-89160864D01*
X134406747Y-88279708D01*
X134435689Y-87333954D01*
X134442734Y-86504667D01*
X134441242Y-86083489D01*
X134436790Y-85692572D01*
X134428341Y-85325139D01*
X134414856Y-84974408D01*
X134395298Y-84633602D01*
X134368627Y-84295940D01*
X134333808Y-83954645D01*
X134289801Y-83602936D01*
X134235568Y-83234035D01*
X134170072Y-82841162D01*
X134092274Y-82417538D01*
X134001136Y-81956385D01*
X133895621Y-81450922D01*
X133774691Y-80894371D01*
X133637307Y-80279952D01*
X133482432Y-79600887D01*
X133309027Y-78850396D01*
X133196998Y-78368749D01*
X133153650Y-78191671D01*
X133118370Y-78080532D01*
X133082499Y-78018274D01*
X133037377Y-77987838D01*
X132998071Y-77976843D01*
X132912417Y-77966946D01*
X132746090Y-77956099D01*
X132503077Y-77944417D01*
X132187364Y-77932014D01*
X131802940Y-77919004D01*
X131353790Y-77905504D01*
X130843903Y-77891627D01*
X130277264Y-77877489D01*
X129657860Y-77863204D01*
X128989680Y-77848887D01*
X128276708Y-77834654D01*
X127656667Y-77823037D01*
X127183185Y-77813906D01*
X126734586Y-77804263D01*
X126318057Y-77794328D01*
X125940783Y-77784318D01*
X125609952Y-77774453D01*
X125332749Y-77764951D01*
X125116362Y-77756031D01*
X124967975Y-77747911D01*
X124894777Y-77740810D01*
X124888422Y-77738804D01*
X124870811Y-77690561D01*
X124874648Y-77594762D01*
X124900968Y-77447990D01*
X124950806Y-77246830D01*
X125025197Y-76987865D01*
X125125176Y-76667679D01*
X125251778Y-76282855D01*
X125406037Y-75829978D01*
X125588988Y-75305630D01*
X125801666Y-74706397D01*
X125836497Y-74609000D01*
X125932974Y-74340584D01*
X126056563Y-73998573D01*
X126205120Y-73588820D01*
X126376502Y-73117182D01*
X126568564Y-72589514D01*
X126779163Y-72011672D01*
X127006154Y-71389510D01*
X127247395Y-70728884D01*
X127500741Y-70035650D01*
X127764049Y-69315662D01*
X128035174Y-68574776D01*
X128311972Y-67818848D01*
X128592301Y-67053732D01*
X128874016Y-66285285D01*
X129154972Y-65519361D01*
X129433028Y-64761816D01*
X129706037Y-64018505D01*
X129971858Y-63295284D01*
X130228345Y-62598007D01*
X130473355Y-61932531D01*
X130704745Y-61304711D01*
X130920370Y-60720401D01*
X131052119Y-60363833D01*
X131153907Y-60086483D01*
X131229294Y-59873567D01*
X131282079Y-59710424D01*
X131316060Y-59582391D01*
X131335036Y-59474807D01*
X131342806Y-59373008D01*
X131343169Y-59262332D01*
X131342776Y-59242000D01*
X131347901Y-59009126D01*
X131375120Y-58766869D01*
X131427487Y-58503183D01*
X131508057Y-58206023D01*
X131619883Y-57863343D01*
X131766018Y-57463097D01*
X131847164Y-57252333D01*
X131918139Y-57070076D01*
X131978567Y-56913750D01*
X132033419Y-56769836D01*
X132087666Y-56624812D01*
X132146281Y-56465160D01*
X132214234Y-56277359D01*
X132296497Y-56047889D01*
X132398042Y-55763229D01*
X132499101Y-55479375D01*
X132629391Y-55133624D01*
X132747774Y-54865820D01*
X132858145Y-54670733D01*
X132964399Y-54543130D01*
X133070429Y-54477780D01*
X133180131Y-54469451D01*
X133238921Y-54485540D01*
X133362330Y-54532121D01*
X133478490Y-54040144D01*
X133548805Y-53757389D01*
X133624637Y-53478288D01*
X133701778Y-53216022D01*
X133776019Y-52983772D01*
X133843152Y-52794720D01*
X133898969Y-52662047D01*
X133938364Y-52599652D01*
X133986129Y-52580051D01*
X134023187Y-52627096D01*
X134023187Y-52627096D01*
G37*
X134023187Y-52627096D02*
X134039354Y-52668395D01*
X134060877Y-52729483D01*
X134109018Y-52866546D01*
X134182400Y-53075654D01*
X134279645Y-53352877D01*
X134399378Y-53694286D01*
X134540219Y-54095950D01*
X134700793Y-54553941D01*
X134879722Y-55064328D01*
X135075630Y-55623181D01*
X135287138Y-56226571D01*
X135512870Y-56870569D01*
X135751449Y-57551244D01*
X136001498Y-58264666D01*
X136261639Y-59006907D01*
X136530496Y-59774035D01*
X136806691Y-60562122D01*
X137088847Y-61367238D01*
X137375587Y-62185453D01*
X137665535Y-63012837D01*
X137957312Y-63845460D01*
X138249543Y-64679393D01*
X138540849Y-65510707D01*
X138829853Y-66335470D01*
X139115179Y-67149754D01*
X139395449Y-67949629D01*
X139669287Y-68731165D01*
X139935315Y-69490433D01*
X140192156Y-70223502D01*
X140438433Y-70926443D01*
X140672768Y-71595326D01*
X140893786Y-72226222D01*
X141100108Y-72815200D01*
X141290357Y-73358331D01*
X141463157Y-73851686D01*
X141617130Y-74291334D01*
X141750899Y-74673345D01*
X141863088Y-74993791D01*
X141952318Y-75248741D01*
X141990550Y-75358020D01*
X142147119Y-75806282D01*
X142295122Y-76231256D01*
X142432221Y-76626157D01*
X142556081Y-76984197D01*
X142664367Y-77298589D01*
X142754744Y-77562549D01*
X142824875Y-77769288D01*
X142872426Y-77912020D01*
X142895061Y-77983959D01*
X142896667Y-77991085D01*
X142854577Y-77998973D01*
X142728275Y-78005470D01*
X142517711Y-78010575D01*
X142222835Y-78014289D01*
X141843598Y-78016613D01*
X141379949Y-78017545D01*
X140831841Y-78017088D01*
X140199222Y-78015239D01*
X139482043Y-78012001D01*
X138745470Y-78007782D01*
X134594273Y-77981933D01*
X134618133Y-78084050D01*
X134633286Y-78147730D01*
X134665852Y-78283765D01*
X134713438Y-78482190D01*
X134773653Y-78733042D01*
X134844105Y-79026357D01*
X134922402Y-79352172D01*
X135003382Y-79689000D01*
X135161433Y-80351488D01*
X135299145Y-80943067D01*
X135417992Y-81474639D01*
X135519446Y-81957104D01*
X135604979Y-82401364D01*
X135676063Y-82818319D01*
X135734171Y-83218870D01*
X135780774Y-83613919D01*
X135817345Y-84014365D01*
X135845357Y-84431111D01*
X135866281Y-84875057D01*
X135881589Y-85357103D01*
X135892755Y-85888151D01*
X135899259Y-86322373D01*
X135905018Y-87095820D01*
X135899948Y-87797544D01*
X135882711Y-88439959D01*
X135851967Y-89035475D01*
X135806377Y-89596504D01*
X135744603Y-90135458D01*
X135665305Y-90664747D01*
X135567145Y-91196785D01*
X135448783Y-91743981D01*
X135308880Y-92318749D01*
X135212557Y-92687571D01*
X135138728Y-92951941D01*
X135045003Y-93268142D01*
X134934736Y-93626265D01*
X134811283Y-94016402D01*
X134677999Y-94428644D01*
X134538240Y-94853083D01*
X134395362Y-95279811D01*
X134252720Y-95698919D01*
X134113669Y-96100500D01*
X133981566Y-96474643D01*
X133859764Y-96811441D01*
X133751621Y-97100986D01*
X133660491Y-97333369D01*
X133589730Y-97498682D01*
X133568203Y-97543177D01*
X133531037Y-97633925D01*
X133480189Y-97781971D01*
X133423826Y-97962815D01*
X133392957Y-98069066D01*
X133311226Y-98340245D01*
X133231562Y-98541644D01*
X133139701Y-98684437D01*
X133021377Y-98779797D01*
X132862324Y-98838898D01*
X132648278Y-98872913D01*
X132364973Y-98893015D01*
X132339330Y-98894335D01*
X132120703Y-98904904D01*
X131969875Y-98908976D01*
X131870087Y-98904348D01*
X131804578Y-98888813D01*
X131756589Y-98860168D01*
X131709362Y-98816208D01*
X131703886Y-98810735D01*
X131616690Y-98682409D01*
X131593667Y-98578360D01*
X131610388Y-98503909D01*
X131657096Y-98365924D01*
X131728608Y-98177888D01*
X131819742Y-97953284D01*
X131925313Y-97705594D01*
X131956499Y-97634519D01*
X132435559Y-96513782D01*
X132858010Y-95448708D01*
X133225731Y-94433740D01*
X133540601Y-93463323D01*
X133804497Y-92531900D01*
X134019299Y-91633917D01*
X134073884Y-91373000D01*
X134189002Y-90711883D01*
X134283073Y-89973046D01*
X134355765Y-89160864D01*
X134406747Y-88279708D01*
X134435689Y-87333954D01*
X134442734Y-86504667D01*
X134441242Y-86083489D01*
X134436790Y-85692572D01*
X134428341Y-85325139D01*
X134414856Y-84974408D01*
X134395298Y-84633602D01*
X134368627Y-84295940D01*
X134333808Y-83954645D01*
X134289801Y-83602936D01*
X134235568Y-83234035D01*
X134170072Y-82841162D01*
X134092274Y-82417538D01*
X134001136Y-81956385D01*
X133895621Y-81450922D01*
X133774691Y-80894371D01*
X133637307Y-80279952D01*
X133482432Y-79600887D01*
X133309027Y-78850396D01*
X133196998Y-78368749D01*
X133153650Y-78191671D01*
X133118370Y-78080532D01*
X133082499Y-78018274D01*
X133037377Y-77987838D01*
X132998071Y-77976843D01*
X132912417Y-77966946D01*
X132746090Y-77956099D01*
X132503077Y-77944417D01*
X132187364Y-77932014D01*
X131802940Y-77919004D01*
X131353790Y-77905504D01*
X130843903Y-77891627D01*
X130277264Y-77877489D01*
X129657860Y-77863204D01*
X128989680Y-77848887D01*
X128276708Y-77834654D01*
X127656667Y-77823037D01*
X127183185Y-77813906D01*
X126734586Y-77804263D01*
X126318057Y-77794328D01*
X125940783Y-77784318D01*
X125609952Y-77774453D01*
X125332749Y-77764951D01*
X125116362Y-77756031D01*
X124967975Y-77747911D01*
X124894777Y-77740810D01*
X124888422Y-77738804D01*
X124870811Y-77690561D01*
X124874648Y-77594762D01*
X124900968Y-77447990D01*
X124950806Y-77246830D01*
X125025197Y-76987865D01*
X125125176Y-76667679D01*
X125251778Y-76282855D01*
X125406037Y-75829978D01*
X125588988Y-75305630D01*
X125801666Y-74706397D01*
X125836497Y-74609000D01*
X125932974Y-74340584D01*
X126056563Y-73998573D01*
X126205120Y-73588820D01*
X126376502Y-73117182D01*
X126568564Y-72589514D01*
X126779163Y-72011672D01*
X127006154Y-71389510D01*
X127247395Y-70728884D01*
X127500741Y-70035650D01*
X127764049Y-69315662D01*
X128035174Y-68574776D01*
X128311972Y-67818848D01*
X128592301Y-67053732D01*
X128874016Y-66285285D01*
X129154972Y-65519361D01*
X129433028Y-64761816D01*
X129706037Y-64018505D01*
X129971858Y-63295284D01*
X130228345Y-62598007D01*
X130473355Y-61932531D01*
X130704745Y-61304711D01*
X130920370Y-60720401D01*
X131052119Y-60363833D01*
X131153907Y-60086483D01*
X131229294Y-59873567D01*
X131282079Y-59710424D01*
X131316060Y-59582391D01*
X131335036Y-59474807D01*
X131342806Y-59373008D01*
X131343169Y-59262332D01*
X131342776Y-59242000D01*
X131347901Y-59009126D01*
X131375120Y-58766869D01*
X131427487Y-58503183D01*
X131508057Y-58206023D01*
X131619883Y-57863343D01*
X131766018Y-57463097D01*
X131847164Y-57252333D01*
X131918139Y-57070076D01*
X131978567Y-56913750D01*
X132033419Y-56769836D01*
X132087666Y-56624812D01*
X132146281Y-56465160D01*
X132214234Y-56277359D01*
X132296497Y-56047889D01*
X132398042Y-55763229D01*
X132499101Y-55479375D01*
X132629391Y-55133624D01*
X132747774Y-54865820D01*
X132858145Y-54670733D01*
X132964399Y-54543130D01*
X133070429Y-54477780D01*
X133180131Y-54469451D01*
X133238921Y-54485540D01*
X133362330Y-54532121D01*
X133478490Y-54040144D01*
X133548805Y-53757389D01*
X133624637Y-53478288D01*
X133701778Y-53216022D01*
X133776019Y-52983772D01*
X133843152Y-52794720D01*
X133898969Y-52662047D01*
X133938364Y-52599652D01*
X133986129Y-52580051D01*
X134023187Y-52627096D01*
G04 #@! TD*
D11*
G04 #@! TO.C,*
X153360719Y-49104903D03*
X151336655Y-49111136D03*
X152011346Y-49111144D03*
X152686028Y-49117370D03*
X154035409Y-49084411D03*
X153375779Y-51099730D03*
X151351716Y-51105964D03*
X152026406Y-51105971D03*
X152701089Y-51112197D03*
X154050469Y-51079238D03*
X174364541Y-97673120D03*
X172340478Y-97679350D03*
X173015160Y-97679360D03*
X173689851Y-97685580D03*
X175039223Y-97652620D03*
X174288377Y-99132030D03*
X172264313Y-99138260D03*
X172939004Y-99138270D03*
X173613694Y-99144490D03*
X174963067Y-99111530D03*
X134427346Y-98695880D03*
X132403283Y-98702110D03*
X133077969Y-98702120D03*
X133752660Y-98708340D03*
X135102032Y-98675380D03*
X134444630Y-100273400D03*
X132420567Y-100279630D03*
X133095258Y-100279640D03*
X133769944Y-100285860D03*
X135119321Y-100252910D03*
X112981429Y-96361193D03*
X112295059Y-94457051D03*
X112521887Y-95092469D03*
X112742854Y-95729968D03*
X113227567Y-96989728D03*
X109354800Y-96380945D03*
X108668427Y-94476794D03*
X108895254Y-95112212D03*
X109116226Y-95749720D03*
X109600935Y-97009470D03*
X136680241Y-59501126D03*
X137413309Y-61387781D03*
X137167012Y-60759658D03*
X136914924Y-60133800D03*
X136453028Y-58865516D03*
X138588531Y-58777719D03*
X139321600Y-60664378D03*
X139075302Y-60036250D03*
X138823213Y-59410392D03*
X138361317Y-58142108D03*
X174261593Y-54398869D03*
X174994662Y-56285524D03*
X174748363Y-55657397D03*
X174496275Y-55031540D03*
X174034376Y-53763249D03*
X175902012Y-53728587D03*
X176635081Y-55615242D03*
X176388786Y-54987125D03*
X176136698Y-54361268D03*
X175674799Y-53092977D03*
X163355093Y-69427194D03*
X162622020Y-71313851D03*
X162868320Y-70685727D03*
X163120403Y-70059868D03*
X163582298Y-68791583D03*
X166030889Y-70489833D03*
X165297816Y-72376490D03*
X165544115Y-71748368D03*
X165796198Y-71122509D03*
X166258103Y-69854228D03*
X128571199Y-66728444D03*
X127838129Y-68615102D03*
X128084429Y-67986974D03*
X128336516Y-67361117D03*
X128798414Y-66092832D03*
X125287667Y-65439247D03*
X124554598Y-67325906D03*
X124800893Y-66697785D03*
X125052982Y-66071928D03*
X125514878Y-64803643D03*
X112774951Y-49878211D03*
X110750888Y-49884444D03*
X111425578Y-49884452D03*
X112100264Y-49890677D03*
X113449643Y-49857718D03*
X112789763Y-51994536D03*
X110765700Y-52000769D03*
X111440388Y-52000777D03*
X112115077Y-52007003D03*
X113464452Y-51974044D03*
G04 #@! TD*
M02*
